<svg width="2097" height="1483" xmlns="http://www.w3.org/2000/svg" xmlns:xlink="http://www.w3.org/1999/xlink" xml:space="preserve" overflow="hidden"><g transform="translate(-758 -482)"><rect x="761.5" y="1806.5" width="355" height="155" stroke="#BF9000" stroke-width="6.875" stroke-miterlimit="8" fill="#FFE699" fill-opacity="0.8"/><path d="M890.233 1855.54 928.126 1855.54 928.126 1867.78 924.155 1867.78C923.75 1866.45 923.331 1865.29 922.898 1864.29 922.466 1863.29 922.02 1862.45 921.561 1861.78 921.102 1861.1 920.595 1860.56 920.041 1860.16 919.487 1859.75 918.832 1859.48 918.076 1859.33 917.319 1859.18 916.414 1859.1 915.36 1859.1L902.554 1859.1 902.554 1880.34 911.227 1880.34C912.415 1880.34 913.347 1880.17 914.023 1879.83 914.698 1879.5 915.259 1878.92 915.705 1878.11 916.151 1877.3 916.576 1876.03 916.981 1874.3L920.791 1874.3 920.791 1889.86 916.981 1889.86C916.603 1888.24 916.184 1887.02 915.725 1886.2 915.266 1885.37 914.719 1884.78 914.084 1884.43 913.449 1884.08 912.496 1883.91 911.227 1883.91L902.554 1883.91 902.554 1907.29 915.158 1907.29C916.482 1907.29 917.556 1907.18 918.38 1906.95 919.204 1906.72 919.913 1906.32 920.507 1905.77 921.102 1905.22 921.629 1904.49 922.088 1903.6 922.547 1902.71 922.932 1901.79 923.243 1900.83 923.554 1899.87 923.979 1898.47 924.52 1896.63L928.532 1896.63 927.762 1910.86 890.233 1910.86 890.233 1908.87C891.909 1908.44 893.03 1907.96 893.597 1907.43 894.165 1906.91 894.536 1906.16 894.712 1905.18 894.887 1904.21 894.975 1902.72 894.975 1900.73L894.975 1865.67C894.975 1863.8 894.908 1862.45 894.772 1861.6 894.637 1860.74 894.414 1860.08 894.104 1859.61 893.793 1859.14 893.381 1858.76 892.868 1858.48 892.354 1858.19 891.476 1857.87 890.233 1857.52Z" fill-rule="evenodd"/><text fill="#000000" fill-opacity="0" font-family="Arial,Arial_MSFontService,sans-serif" font-size="55.3198" x="890.233" y="1903.94">E</text><path d="M951.085 1889.34 952.901 1889.34C952.862 1890.43 952.832 1891.41 952.812 1892.27 952.792 1893.14 952.777 1893.97 952.767 1894.79 952.758 1895.6 952.753 1896.41 952.753 1897.2L952.753 1919.84C952.753 1920.45 952.772 1920.98 952.812 1921.43 952.852 1921.88 952.916 1922.26 953.006 1922.56 953.095 1922.87 953.214 1923.13 953.363 1923.35 953.512 1923.57 953.686 1923.76 953.884 1923.92 954.123 1924.16 954.44 1924.34 954.838 1924.47 955.235 1924.6 955.741 1924.71 956.357 1924.8 956.972 1924.89 957.712 1924.96 958.576 1925.01 959.439 1925.05 960.477 1925.09 961.688 1925.11L961.688 1927.7 938.068 1927.7 938.068 1925.11C939.24 1925.07 940.233 1925.03 941.047 1924.98 941.861 1924.93 942.556 1924.86 943.132 1924.77 943.708 1924.68 944.169 1924.58 944.517 1924.47 944.864 1924.36 945.167 1924.23 945.425 1924.07 945.703 1923.89 945.942 1923.69 946.14 1923.49 946.339 1923.28 946.498 1923.01 946.617 1922.7 946.736 1922.38 946.83 1921.99 946.9 1921.54 946.969 1921.08 947.004 1920.51 947.004 1919.84L947.004 1898.48C947.004 1897.71 946.855 1897.16 946.557 1896.84 946.259 1896.53 945.832 1896.37 945.276 1896.37 944.661 1896.37 943.747 1896.68 942.536 1897.32 941.325 1897.96 939.756 1898.9 937.83 1900.15 937.572 1899.69 937.334 1899.24 937.115 1898.78 936.897 1898.32 936.669 1897.86 936.43 1897.38 938.893 1896.03 941.33 1894.68 943.743 1893.34 946.155 1892 948.602 1890.67 951.085 1889.34Z" fill-rule="evenodd"/><text fill="#000000" fill-opacity="0" font-family="Arial,Arial_MSFontService,sans-serif" font-size="38.3633" x="936.43" y="1922.91">1</text><path d="M761.5 1425C761.5 1364.52 840.969 1315.5 939 1315.5 1037.03 1315.5 1116.5 1364.52 1116.5 1425 1116.5 1485.48 1037.03 1534.5 939 1534.5 840.969 1534.5 761.5 1485.48 761.5 1425Z" stroke="#172C51" stroke-width="4.58333" stroke-miterlimit="8" fill="#8FAADC" fill-rule="evenodd" fill-opacity="0.901961"/><path d="M948.615 1412.85C950.318 1412.85 951.662 1413.41 952.648 1414.53 953.634 1415.65 954.127 1417.12 954.127 1418.93 954.127 1420.41 953.816 1421.99 953.195 1423.67L953.681 1423.83C956.167 1420.13 958.639 1417.38 961.098 1415.58 963.557 1413.79 966.042 1412.89 968.555 1412.89 971.149 1412.89 973.121 1413.62 974.472 1415.1 975.823 1416.57 976.498 1418.7 976.498 1421.48L976.498 1422.05C976.498 1422.24 976.485 1422.44 976.458 1422.66 978.781 1419.36 981.098 1416.91 983.408 1415.3 985.718 1413.69 988.116 1412.89 990.602 1412.89 993.087 1412.89 995.006 1413.6 996.357 1415.04 997.708 1416.47 998.383 1418.48 998.383 1421.07 998.383 1422.78 997.991 1425.2 997.208 1428.33L994.573 1438.95C993.844 1441.89 993.479 1443.97 993.479 1445.19 993.479 1446.27 993.655 1447.05 994.006 1447.54 994.357 1448.03 994.911 1448.27 995.668 1448.27 996.478 1448.27 997.343 1447.94 998.261 1447.28 999.18 1446.61 1000.48 1445.35 1002.15 1443.49L1004.46 1445.76C1002.14 1448.21 1000.11 1450.02 998.383 1451.19 996.654 1452.35 994.681 1452.93 992.466 1452.93 990.71 1452.93 989.305 1452.3 988.251 1451.04 987.197 1449.79 986.671 1448.19 986.671 1446.24 986.671 1444.49 987.116 1441.91 988.008 1438.5L989.791 1431.49C990.44 1428.95 990.865 1427.07 991.068 1425.86 991.27 1424.64 991.372 1423.66 991.372 1422.9 991.372 1421.03 991.061 1419.69 990.44 1418.87 989.818 1418.04 988.805 1417.63 987.4 1417.63 986.265 1417.63 985.049 1418.06 983.753 1418.91 982.456 1419.76 981.091 1421.08 979.659 1422.88 978.227 1424.68 977.059 1426.44 976.154 1428.19 975.249 1429.93 974.526 1432.06 973.986 1434.57L970.298 1452.28 963.286 1452.28 967.947 1431.69C968.514 1429.18 968.899 1427.32 969.102 1426.12 969.305 1424.92 969.406 1423.88 969.406 1423.02 969.406 1421.07 969.061 1419.69 968.372 1418.87 967.684 1418.04 966.61 1417.63 965.151 1417.63 964.124 1417.63 962.955 1418.06 961.645 1418.91 960.335 1419.76 958.936 1421.12 957.45 1423 955.964 1424.88 954.803 1426.68 953.965 1428.41 953.127 1430.14 952.425 1432.25 951.858 1434.73L948.008 1452.28 940.996 1452.28 946.913 1426.59C947.508 1423.99 947.805 1421.99 947.805 1420.59 947.805 1419.51 947.629 1418.72 947.278 1418.24 946.927 1417.75 946.373 1417.51 945.616 1417.51 944.779 1417.51 943.894 1417.85 942.962 1418.54 942.03 1419.23 940.753 1420.48 939.132 1422.29L936.822 1420.02C939.2 1417.54 941.246 1415.72 942.962 1414.57 944.677 1413.42 946.562 1412.85 948.615 1412.85ZM909.575 1412.85C911.277 1412.85 912.621 1413.41 913.607 1414.53 914.594 1415.65 915.087 1417.12 915.087 1418.93 915.087 1420.28 914.83 1421.67 914.317 1423.1L914.843 1423.3C917.491 1419.71 920.038 1417.08 922.483 1415.4 924.928 1413.73 927.407 1412.89 929.92 1412.89 931.892 1412.89 933.54 1413.04 934.864 1413.33L932.919 1422.41 928.744 1422.41C928.582 1421.28 928.353 1420.4 928.055 1419.78 927.758 1419.16 927.407 1418.72 927.002 1418.48 926.596 1418.24 926.083 1418.12 925.462 1418.12 924.489 1418.12 923.428 1418.54 922.28 1419.37 921.132 1420.21 919.842 1421.52 918.41 1423.3 916.978 1425.09 915.836 1426.8 914.985 1428.45 914.134 1430.1 913.425 1432.19 912.858 1434.73L909.008 1452.28 901.996 1452.28 907.873 1426.59C908.251 1424.97 908.494 1423.71 908.602 1422.82 908.71 1421.93 908.764 1421.18 908.764 1420.59 908.764 1419.51 908.589 1418.72 908.237 1418.24 907.886 1417.75 907.332 1417.51 906.576 1417.51 905.738 1417.51 904.853 1417.85 903.921 1418.54 902.989 1419.23 901.713 1420.48 900.091 1422.29L897.781 1420.02C900.267 1417.43 902.348 1415.58 904.023 1414.49 905.698 1413.39 907.549 1412.85 909.575 1412.85ZM853.726 1396.96 896.036 1396.96 892.875 1411.23 888.985 1411.23C888.985 1408.61 888.917 1406.64 888.782 1405.33 888.647 1404.02 888.39 1403.02 888.012 1402.33 887.634 1401.64 887.168 1401.17 886.614 1400.91 886.06 1400.66 885.08 1400.53 883.675 1400.53L877.677 1400.53 868.883 1440.49C868.64 1441.54 868.471 1442.38 868.376 1443 868.282 1443.62 868.201 1444.28 868.133 1444.97 868.066 1445.65 868.032 1446.27 868.032 1446.81 868.032 1447.65 868.167 1448.3 868.437 1448.78 868.707 1449.25 869.113 1449.59 869.653 1449.81 870.193 1450.02 871.125 1450.19 872.449 1450.3L872.004 1452.28 854.942 1452.28 855.387 1450.3C856.468 1450.13 857.265 1449.92 857.779 1449.65 858.292 1449.38 858.744 1448.96 859.136 1448.39 859.528 1447.82 859.92 1446.93 860.311 1445.72 860.703 1444.5 861.169 1442.66 861.71 1440.2L870.383 1400.53 865.236 1400.53C863.56 1400.53 862.223 1400.77 861.223 1401.26 860.224 1401.74 859.224 1402.65 858.224 1403.97 857.225 1405.3 856.009 1407.51 854.577 1410.62L850.686 1410.62Z" fill-rule="evenodd"/><text fill="#000000" fill-opacity="0" font-family="Arial,Arial_MSFontService,sans-serif" font-size="55.9683" x="850.686" y="1445.93">𝑇𝑟𝑚</text><path d="M761.5 935C761.5 874.525 840.969 825.5 939 825.5 1037.03 825.5 1116.5 874.525 1116.5 935 1116.5 995.475 1037.03 1044.5 939 1044.5 840.969 1044.5 761.5 995.475 761.5 935Z" stroke="#172C51" stroke-width="4.58333" stroke-miterlimit="8" fill="#8FAADC" fill-rule="evenodd" fill-opacity="0.901961"/><path d="M948.615 922.459C950.318 922.459 951.662 923.02 952.648 924.141 953.634 925.262 954.127 926.728 954.127 928.538 954.127 930.024 953.816 931.605 953.195 933.28L953.681 933.442C956.167 929.74 958.639 926.991 961.098 925.195 963.557 923.398 966.042 922.499 968.555 922.499 971.149 922.499 973.121 923.236 974.472 924.708 975.823 926.181 976.498 928.308 976.498 931.091L976.498 931.659C976.498 931.848 976.485 932.05 976.458 932.267 978.781 928.97 981.098 926.518 983.408 924.911 985.718 923.303 988.116 922.499 990.602 922.499 993.087 922.499 995.006 923.215 996.357 924.647 997.708 926.079 998.383 928.092 998.383 930.686 998.383 932.388 997.991 934.806 997.208 937.94L994.573 948.559C993.844 951.504 993.479 953.584 993.479 954.8 993.479 955.88 993.655 956.664 994.006 957.15 994.357 957.637 994.911 957.88 995.668 957.88 996.478 957.88 997.343 957.549 998.261 956.887 999.18 956.225 1000.48 954.962 1002.15 953.098L1004.46 955.367C1002.14 957.826 1000.11 959.636 998.383 960.798 996.654 961.96 994.681 962.54 992.466 962.54 990.71 962.54 989.305 961.912 988.251 960.656 987.197 959.4 986.671 957.799 986.671 955.853 986.671 954.097 987.116 951.517 988.008 948.113L989.791 941.102C990.44 938.562 990.865 936.684 991.068 935.468 991.27 934.252 991.372 933.266 991.372 932.51 991.372 930.645 991.061 929.301 990.44 928.477 989.818 927.653 988.805 927.241 987.4 927.241 986.265 927.241 985.049 927.667 983.753 928.518 982.456 929.369 981.091 930.693 979.659 932.489 978.227 934.286 977.059 936.056 976.154 937.799 975.249 939.541 974.526 941.669 973.986 944.182L970.298 961.892 963.286 961.892 967.947 941.304C968.514 938.791 968.899 936.934 969.102 935.732 969.305 934.529 969.406 933.496 969.406 932.631 969.406 930.686 969.061 929.301 968.372 928.477 967.684 927.653 966.61 927.241 965.151 927.241 964.124 927.241 962.955 927.667 961.645 928.518 960.335 929.369 958.936 930.733 957.45 932.611 955.964 934.489 954.803 936.292 953.965 938.021 953.127 939.751 952.425 941.858 951.858 944.344L948.008 961.892 940.996 961.892 946.913 936.198C947.508 933.604 947.805 931.605 947.805 930.2 947.805 929.119 947.629 928.335 947.278 927.849 946.927 927.363 946.373 927.12 945.616 927.12 944.779 927.12 943.894 927.464 942.962 928.153 942.03 928.842 940.753 930.092 939.132 931.902L936.822 929.632C939.2 927.147 941.246 925.33 942.962 924.181 944.677 923.033 946.562 922.459 948.615 922.459ZM909.575 922.459C911.277 922.459 912.621 923.02 913.607 924.141 914.594 925.262 915.087 926.728 915.087 928.538 915.087 929.889 914.83 931.28 914.317 932.712L914.843 932.915C917.491 929.322 920.038 926.687 922.483 925.012 924.928 923.337 927.407 922.499 929.92 922.499 931.892 922.499 933.54 922.648 934.864 922.945L932.919 932.023 928.744 932.023C928.582 930.889 928.353 930.01 928.055 929.389 927.758 928.768 927.407 928.335 927.002 928.092 926.596 927.849 926.083 927.727 925.462 927.727 924.489 927.727 923.428 928.146 922.28 928.984 921.132 929.821 919.842 931.132 918.41 932.915 916.978 934.698 915.836 936.414 914.985 938.062 914.134 939.71 913.425 941.804 912.858 944.344L909.008 961.892 901.996 961.892 907.873 936.198C908.251 934.577 908.494 933.32 908.602 932.429 908.71 931.537 908.764 930.794 908.764 930.2 908.764 929.119 908.589 928.335 908.237 927.849 907.886 927.363 907.332 927.12 906.576 927.12 905.738 927.12 904.853 927.464 903.921 928.153 902.989 928.842 901.713 930.092 900.091 931.902L897.781 929.632C900.267 927.039 902.348 925.195 904.023 924.1 905.698 923.006 907.549 922.459 909.575 922.459ZM853.726 906.572 896.036 906.572 892.875 920.838 888.985 920.838C888.985 918.217 888.917 916.251 888.782 914.941 888.647 913.631 888.39 912.631 888.012 911.942 887.634 911.253 887.168 910.78 886.614 910.524 886.06 910.267 885.08 910.139 883.675 910.139L877.677 910.139 868.883 950.099C868.64 951.152 868.471 951.99 868.376 952.611 868.282 953.233 868.201 953.888 868.133 954.577 868.066 955.266 868.032 955.88 868.032 956.421 868.032 957.258 868.167 957.914 868.437 958.386 868.707 958.859 869.113 959.204 869.653 959.42 870.193 959.636 871.125 959.798 872.449 959.906L872.004 961.892 854.942 961.892 855.387 959.906C856.468 959.744 857.265 959.528 857.779 959.258 858.292 958.988 858.744 958.569 859.136 958.001 859.528 957.434 859.92 956.542 860.311 955.327 860.703 954.111 861.169 952.274 861.71 949.815L870.383 910.139 865.236 910.139C863.56 910.139 862.223 910.382 861.223 910.868 860.224 911.354 859.224 912.26 858.224 913.583 857.225 914.907 856.009 917.123 854.577 920.23L850.686 920.23Z" fill-rule="evenodd"/><text fill="#000000" fill-opacity="0" font-family="Arial,Arial_MSFontService,sans-serif" font-size="55.9683" x="850.686" y="955.544">𝑇𝑟𝑚</text><path d="M761.5 521.79C761.5 501.195 778.195 484.5 798.79 484.5L1079.21 484.5C1099.8 484.5 1116.5 501.195 1116.5 521.79L1116.5 613.21C1116.5 633.805 1099.8 650.5 1079.21 650.5L798.79 650.5C778.195 650.5 761.5 633.805 761.5 613.21Z" stroke="#172C51" stroke-width="4.58333" stroke-miterlimit="8" fill="#C5E0B4" fill-rule="evenodd" fill-opacity="0.901961"/><path d="M894.781 539.024 937.092 539.024 933.93 553.289 930.04 553.289C930.04 550.668 929.972 548.703 929.837 547.392 929.702 546.082 929.445 545.082 929.067 544.393 928.689 543.704 928.223 543.232 927.669 542.975 927.115 542.718 926.136 542.59 924.731 542.59L918.733 542.59 909.938 582.55C909.695 583.604 909.526 584.441 909.432 585.063 909.337 585.684 909.256 586.339 909.189 587.028 909.121 587.717 909.087 588.332 909.087 588.872 909.087 589.71 909.222 590.365 909.492 590.838 909.763 591.311 910.168 591.655 910.708 591.871 911.249 592.087 912.181 592.249 913.505 592.358L913.059 594.343 895.997 594.343 896.443 592.358C897.523 592.195 898.32 591.979 898.834 591.709 899.347 591.439 899.8 591.02 900.191 590.453 900.583 589.885 900.975 588.994 901.367 587.778 901.759 586.562 902.225 584.725 902.765 582.266L911.438 542.59 906.291 542.59C904.616 542.59 903.278 542.833 902.279 543.319 901.279 543.806 900.279 544.711 899.28 546.035 898.28 547.359 897.064 549.574 895.632 552.681L891.742 552.681Z" fill-rule="evenodd"/><text fill="#000000" fill-opacity="0" font-family="Arial,Arial_MSFontService,sans-serif" font-size="55.3198" x="891.742" y="587.428">𝑇</text><path d="M947.51 572.824 949.326 572.824C949.287 573.916 949.257 574.894 949.237 575.758 949.217 576.621 949.202 577.46 949.192 578.275 949.182 579.089 949.178 579.893 949.178 580.687L949.178 603.324C949.178 603.939 949.197 604.471 949.237 604.917 949.277 605.364 949.341 605.741 949.431 606.049 949.52 606.357 949.639 606.62 949.788 606.839 949.937 607.057 950.111 607.246 950.309 607.404 950.548 607.643 950.865 607.826 951.263 607.955 951.66 608.085 952.166 608.194 952.782 608.283 953.397 608.372 954.137 608.442 955.001 608.492 955.864 608.541 956.902 608.576 958.113 608.596L958.113 611.187 934.493 611.187 934.493 608.596C935.665 608.556 936.658 608.511 937.472 608.462 938.286 608.412 938.981 608.343 939.557 608.253 940.133 608.164 940.594 608.065 940.942 607.955 941.289 607.846 941.592 607.712 941.85 607.553 942.128 607.375 942.367 607.181 942.565 606.973 942.764 606.764 942.923 606.501 943.042 606.183 943.161 605.866 943.255 605.478 943.325 605.022 943.394 604.565 943.429 603.999 943.429 603.324L943.429 581.968C943.429 581.193 943.28 580.647 942.982 580.33 942.684 580.012 942.257 579.853 941.701 579.853 941.086 579.853 940.172 580.171 938.961 580.806 937.75 581.442 936.181 582.385 934.255 583.636 933.997 583.179 933.759 582.722 933.54 582.266 933.322 581.809 933.094 581.342 932.855 580.866 935.318 579.516 937.755 578.17 940.168 576.83 942.58 575.49 945.027 574.154 947.51 572.824Z" fill-rule="evenodd"/><text fill="#000000" fill-opacity="0" font-family="Arial,Arial_MSFontService,sans-serif" font-size="38.3633" x="932.855" y="606.392">1</text><rect x="1338.5" y="1806.5" width="356" height="155" stroke="#BF9000" stroke-width="6.875" stroke-miterlimit="8" fill="#FFE699" fill-opacity="0.8"/><path d="M1466.99 1855.54 1504.88 1855.54 1504.88 1867.78 1500.91 1867.78C1500.5 1866.45 1500.09 1865.29 1499.65 1864.29 1499.22 1863.29 1498.77 1862.45 1498.32 1861.78 1497.86 1861.1 1497.35 1860.56 1496.8 1860.16 1496.24 1859.75 1495.59 1859.48 1494.83 1859.33 1494.07 1859.18 1493.17 1859.1 1492.11 1859.1L1479.31 1859.1 1479.31 1880.34 1487.98 1880.34C1489.17 1880.34 1490.1 1880.17 1490.78 1879.83 1491.45 1879.5 1492.01 1878.92 1492.46 1878.11 1492.91 1877.3 1493.33 1876.03 1493.74 1874.3L1497.55 1874.3 1497.55 1889.86 1493.74 1889.86C1493.36 1888.24 1492.94 1887.02 1492.48 1886.2 1492.02 1885.37 1491.47 1884.78 1490.84 1884.43 1490.2 1884.08 1489.25 1883.91 1487.98 1883.91L1479.31 1883.91 1479.31 1907.29 1491.91 1907.29C1493.24 1907.29 1494.31 1907.18 1495.13 1906.95 1495.96 1906.72 1496.67 1906.32 1497.26 1905.77 1497.86 1905.22 1498.38 1904.49 1498.84 1903.6 1499.3 1902.71 1499.69 1901.79 1500 1900.83 1500.31 1899.87 1500.73 1898.47 1501.27 1896.63L1505.29 1896.63 1504.52 1910.86 1466.99 1910.86 1466.99 1908.87C1468.66 1908.44 1469.78 1907.96 1470.35 1907.43 1470.92 1906.91 1471.29 1906.16 1471.47 1905.18 1471.64 1904.21 1471.73 1902.72 1471.73 1900.73L1471.73 1865.67C1471.73 1863.8 1471.66 1862.45 1471.53 1861.6 1471.39 1860.74 1471.17 1860.08 1470.86 1859.61 1470.55 1859.14 1470.14 1858.76 1469.62 1858.48 1469.11 1858.19 1468.23 1857.87 1466.99 1857.52Z" fill-rule="evenodd"/><text fill="#000000" fill-opacity="0" font-family="Arial,Arial_MSFontService,sans-serif" font-size="55.3198" x="1466.99" y="1903.94">E</text><path d="M1527.42 1889.13C1529.48 1889.13 1531.25 1889.36 1532.7 1889.83 1534.16 1890.3 1535.35 1890.93 1536.26 1891.72 1537.18 1892.51 1537.84 1893.47 1538.24 1894.58 1538.65 1895.69 1538.86 1896.89 1538.86 1898.18 1538.86 1898.96 1538.8 1899.68 1538.69 1900.34 1538.58 1901.01 1538.39 1901.66 1538.13 1902.31 1537.86 1902.95 1537.51 1903.6 1537.07 1904.26 1536.63 1904.92 1536.09 1905.61 1535.43 1906.34 1534.93 1906.98 1534.29 1907.71 1533.49 1908.55 1532.7 1909.38 1531.83 1910.28 1530.89 1911.23 1529.94 1912.18 1528.96 1913.18 1527.92 1914.21 1526.89 1915.24 1525.89 1916.26 1524.92 1917.28 1523.94 1918.29 1523.05 1919.27 1522.24 1920.22 1521.42 1921.18 1520.76 1922.05 1520.24 1922.85L1531.26 1922.85C1532.19 1922.85 1532.94 1922.81 1533.49 1922.74 1534.05 1922.67 1534.51 1922.52 1534.88 1922.28 1535.25 1922.04 1535.56 1921.68 1535.82 1921.19 1536.08 1920.71 1536.37 1920.04 1536.71 1919.18L1539.48 1919.18C1539.38 1920.59 1539.29 1922.01 1539.2 1923.44 1539.11 1924.87 1539.01 1926.29 1538.91 1927.7L1513.69 1927.7 1513.69 1926.15C1514.16 1925.08 1514.72 1924.02 1515.35 1922.98 1515.99 1921.94 1516.71 1920.88 1517.5 1919.81 1518.29 1918.74 1519.2 1917.63 1520.21 1916.49 1521.22 1915.34 1522.34 1914.16 1523.58 1912.93 1525.44 1911.06 1526.96 1909.47 1528.13 1908.15 1529.3 1906.83 1530.23 1905.65 1530.9 1904.62 1531.58 1903.58 1532.04 1902.63 1532.29 1901.76 1532.54 1900.88 1532.66 1899.95 1532.66 1898.96 1532.66 1897.95 1532.52 1897.01 1532.23 1896.16 1531.94 1895.3 1531.53 1894.58 1530.99 1893.98 1530.46 1893.39 1529.78 1892.92 1528.95 1892.58 1528.13 1892.25 1527.18 1892.08 1526.11 1892.08 1524.26 1892.08 1522.71 1892.58 1521.46 1893.58 1520.21 1894.58 1519.24 1896.04 1518.54 1897.95L1514.64 1897.95 1514.64 1892.14C1517.18 1891.08 1519.52 1890.32 1521.65 1889.84 1523.79 1889.37 1525.71 1889.13 1527.42 1889.13Z" fill-rule="evenodd"/><text fill="#000000" fill-opacity="0" font-family="Arial,Arial_MSFontService,sans-serif" font-size="38.5718" x="1513.69" y="1922.88">2</text><path d="M1338.5 1425C1338.5 1364.52 1418.19 1315.5 1516.5 1315.5 1614.81 1315.5 1694.5 1364.52 1694.5 1425 1694.5 1485.48 1614.81 1534.5 1516.5 1534.5 1418.19 1534.5 1338.5 1485.48 1338.5 1425Z" stroke="#172C51" stroke-width="4.58333" stroke-miterlimit="8" fill="#8FAADC" fill-rule="evenodd" fill-opacity="0.901961"/><path d="M1526.32 1412.85C1528.02 1412.85 1529.37 1413.41 1530.35 1414.53 1531.34 1415.65 1531.83 1417.12 1531.83 1418.93 1531.83 1420.41 1531.52 1421.99 1530.9 1423.67L1531.39 1423.83C1533.87 1420.13 1536.34 1417.38 1538.8 1415.58 1541.26 1413.79 1543.75 1412.89 1546.26 1412.89 1548.85 1412.89 1550.83 1413.62 1552.18 1415.1 1553.53 1416.57 1554.2 1418.7 1554.2 1421.48L1554.2 1422.05C1554.2 1422.24 1554.19 1422.44 1554.16 1422.66 1556.49 1419.36 1558.8 1416.91 1561.11 1415.3 1563.42 1413.69 1565.82 1412.89 1568.31 1412.89 1570.79 1412.89 1572.71 1413.6 1574.06 1415.04 1575.41 1416.47 1576.09 1418.48 1576.09 1421.07 1576.09 1422.78 1575.7 1425.2 1574.91 1428.33L1572.28 1438.95C1571.55 1441.89 1571.18 1443.97 1571.18 1445.19 1571.18 1446.27 1571.36 1447.05 1571.71 1447.54 1572.06 1448.03 1572.62 1448.27 1573.37 1448.27 1574.18 1448.27 1575.05 1447.94 1575.97 1447.28 1576.89 1446.61 1578.18 1445.35 1579.86 1443.49L1582.17 1445.76C1579.84 1448.21 1577.82 1450.02 1576.09 1451.19 1574.36 1452.35 1572.39 1452.93 1570.17 1452.93 1568.42 1452.93 1567.01 1452.3 1565.96 1451.04 1564.9 1449.79 1564.38 1448.19 1564.38 1446.24 1564.38 1444.49 1564.82 1441.91 1565.71 1438.5L1567.5 1431.49C1568.15 1428.95 1568.57 1427.07 1568.77 1425.86 1568.98 1424.64 1569.08 1423.66 1569.08 1422.9 1569.08 1421.03 1568.77 1419.69 1568.15 1418.87 1567.52 1418.04 1566.51 1417.63 1565.11 1417.63 1563.97 1417.63 1562.75 1418.06 1561.46 1418.91 1560.16 1419.76 1558.8 1421.08 1557.36 1422.88 1555.93 1424.68 1554.76 1426.44 1553.86 1428.19 1552.95 1429.93 1552.23 1432.06 1551.69 1434.57L1548 1452.28 1540.99 1452.28 1545.65 1431.69C1546.22 1429.18 1546.6 1427.32 1546.81 1426.12 1547.01 1424.92 1547.11 1423.88 1547.11 1423.02 1547.11 1421.07 1546.77 1419.69 1546.08 1418.87 1545.39 1418.04 1544.31 1417.63 1542.86 1417.63 1541.83 1417.63 1540.66 1418.06 1539.35 1418.91 1538.04 1419.76 1536.64 1421.12 1535.16 1423 1533.67 1424.88 1532.51 1426.68 1531.67 1428.41 1530.83 1430.14 1530.13 1432.25 1529.56 1434.73L1525.71 1452.28 1518.7 1452.28 1524.62 1426.59C1525.21 1423.99 1525.51 1421.99 1525.51 1420.59 1525.51 1419.51 1525.33 1418.72 1524.98 1418.24 1524.63 1417.75 1524.08 1417.51 1523.32 1417.51 1522.48 1417.51 1521.6 1417.85 1520.67 1418.54 1519.74 1419.23 1518.46 1420.48 1516.84 1422.29L1514.53 1420.02C1516.9 1417.54 1518.95 1415.72 1520.67 1414.57 1522.38 1413.42 1524.27 1412.85 1526.32 1412.85ZM1487.28 1412.85C1488.98 1412.85 1490.33 1413.41 1491.31 1414.53 1492.3 1415.65 1492.79 1417.12 1492.79 1418.93 1492.79 1420.28 1492.54 1421.67 1492.02 1423.1L1492.55 1423.3C1495.2 1419.71 1497.74 1417.08 1500.19 1415.4 1502.63 1413.73 1505.11 1412.89 1507.62 1412.89 1509.6 1412.89 1511.25 1413.04 1512.57 1413.33L1510.62 1422.41 1506.45 1422.41C1506.29 1421.28 1506.06 1420.4 1505.76 1419.78 1505.46 1419.16 1505.11 1418.72 1504.71 1418.48 1504.3 1418.24 1503.79 1418.12 1503.17 1418.12 1502.19 1418.12 1501.13 1418.54 1499.99 1419.37 1498.84 1420.21 1497.55 1421.52 1496.12 1423.3 1494.68 1425.09 1493.54 1426.8 1492.69 1428.45 1491.84 1430.1 1491.13 1432.19 1490.56 1434.73L1486.71 1452.28 1479.7 1452.28 1485.58 1426.59C1485.96 1424.97 1486.2 1423.71 1486.31 1422.82 1486.42 1421.93 1486.47 1421.18 1486.47 1420.59 1486.47 1419.51 1486.29 1418.72 1485.94 1418.24 1485.59 1417.75 1485.04 1417.51 1484.28 1417.51 1483.44 1417.51 1482.56 1417.85 1481.63 1418.54 1480.69 1419.23 1479.42 1420.48 1477.8 1422.29L1475.49 1420.02C1477.97 1417.43 1480.05 1415.58 1481.73 1414.49 1483.4 1413.39 1485.25 1412.85 1487.28 1412.85ZM1431.43 1396.96 1473.74 1396.96 1470.58 1411.23 1466.69 1411.23C1466.69 1408.61 1466.62 1406.64 1466.49 1405.33 1466.35 1404.02 1466.1 1403.02 1465.72 1402.33 1465.34 1401.64 1464.87 1401.17 1464.32 1400.91 1463.77 1400.66 1462.79 1400.53 1461.38 1400.53L1455.38 1400.53 1446.59 1440.49C1446.35 1441.54 1446.18 1442.38 1446.08 1443 1445.99 1443.62 1445.91 1444.28 1445.84 1444.97 1445.77 1445.65 1445.74 1446.27 1445.74 1446.81 1445.74 1447.65 1445.87 1448.3 1446.14 1448.78 1446.41 1449.25 1446.82 1449.59 1447.36 1449.81 1447.9 1450.02 1448.83 1450.19 1450.15 1450.3L1449.71 1452.28 1432.65 1452.28 1433.09 1450.3C1434.17 1450.13 1434.97 1449.92 1435.48 1449.65 1436 1449.38 1436.45 1448.96 1436.84 1448.39 1437.23 1447.82 1437.63 1446.93 1438.02 1445.72 1438.41 1444.5 1438.87 1442.66 1439.42 1440.2L1448.09 1400.53 1442.94 1400.53C1441.27 1400.53 1439.93 1400.77 1438.93 1401.26 1437.93 1401.74 1436.93 1402.65 1435.93 1403.97 1434.93 1405.3 1433.71 1407.51 1432.28 1410.62L1428.39 1410.62Z" fill-rule="evenodd"/><text fill="#000000" fill-opacity="0" font-family="Arial,Arial_MSFontService,sans-serif" font-size="55.9683" x="1428.39" y="1445.93">𝑇𝑟𝑚</text><path d="M1338.5 935C1338.5 874.525 1418.19 825.5 1516.5 825.5 1614.81 825.5 1694.5 874.525 1694.5 935 1694.5 995.475 1614.81 1044.5 1516.5 1044.5 1418.19 1044.5 1338.5 995.475 1338.5 935Z" stroke="#172C51" stroke-width="4.58333" stroke-miterlimit="8" fill="#8FAADC" fill-rule="evenodd" fill-opacity="0.901961"/><path d="M1526.32 922.459C1528.02 922.459 1529.37 923.02 1530.35 924.141 1531.34 925.262 1531.83 926.728 1531.83 928.538 1531.83 930.024 1531.52 931.605 1530.9 933.28L1531.39 933.442C1533.87 929.74 1536.34 926.991 1538.8 925.195 1541.26 923.398 1543.75 922.499 1546.26 922.499 1548.85 922.499 1550.83 923.236 1552.18 924.708 1553.53 926.181 1554.2 928.308 1554.2 931.091L1554.2 931.659C1554.2 931.848 1554.19 932.05 1554.16 932.267 1556.49 928.97 1558.8 926.518 1561.11 924.911 1563.42 923.303 1565.82 922.499 1568.31 922.499 1570.79 922.499 1572.71 923.215 1574.06 924.647 1575.41 926.079 1576.09 928.092 1576.09 930.686 1576.09 932.388 1575.7 934.806 1574.91 937.94L1572.28 948.559C1571.55 951.504 1571.18 953.584 1571.18 954.8 1571.18 955.88 1571.36 956.664 1571.71 957.15 1572.06 957.637 1572.62 957.88 1573.37 957.88 1574.18 957.88 1575.05 957.549 1575.97 956.887 1576.89 956.225 1578.18 954.962 1579.86 953.098L1582.17 955.367C1579.84 957.826 1577.82 959.636 1576.09 960.798 1574.36 961.96 1572.39 962.54 1570.17 962.54 1568.42 962.54 1567.01 961.912 1565.96 960.656 1564.9 959.4 1564.38 957.799 1564.38 955.853 1564.38 954.097 1564.82 951.517 1565.71 948.113L1567.5 941.102C1568.15 938.562 1568.57 936.684 1568.77 935.468 1568.98 934.252 1569.08 933.266 1569.08 932.51 1569.08 930.645 1568.77 929.301 1568.15 928.477 1567.52 927.653 1566.51 927.241 1565.11 927.241 1563.97 927.241 1562.75 927.667 1561.46 928.518 1560.16 929.369 1558.8 930.693 1557.36 932.489 1555.93 934.286 1554.76 936.056 1553.86 937.799 1552.95 939.541 1552.23 941.669 1551.69 944.182L1548 961.892 1540.99 961.892 1545.65 941.304C1546.22 938.791 1546.6 936.934 1546.81 935.732 1547.01 934.529 1547.11 933.496 1547.11 932.631 1547.11 930.686 1546.77 929.301 1546.08 928.477 1545.39 927.653 1544.31 927.241 1542.86 927.241 1541.83 927.241 1540.66 927.667 1539.35 928.518 1538.04 929.369 1536.64 930.733 1535.16 932.611 1533.67 934.489 1532.51 936.292 1531.67 938.021 1530.83 939.751 1530.13 941.858 1529.56 944.344L1525.71 961.892 1518.7 961.892 1524.62 936.198C1525.21 933.604 1525.51 931.605 1525.51 930.2 1525.51 929.119 1525.33 928.335 1524.98 927.849 1524.63 927.363 1524.08 927.12 1523.32 927.12 1522.48 927.12 1521.6 927.464 1520.67 928.153 1519.74 928.842 1518.46 930.092 1516.84 931.902L1514.53 929.632C1516.9 927.147 1518.95 925.33 1520.67 924.181 1522.38 923.033 1524.27 922.459 1526.32 922.459ZM1487.28 922.459C1488.98 922.459 1490.33 923.02 1491.31 924.141 1492.3 925.262 1492.79 926.728 1492.79 928.538 1492.79 929.889 1492.54 931.28 1492.02 932.712L1492.55 932.915C1495.2 929.322 1497.74 926.687 1500.19 925.012 1502.63 923.337 1505.11 922.499 1507.62 922.499 1509.6 922.499 1511.25 922.648 1512.57 922.945L1510.62 932.023 1506.45 932.023C1506.29 930.889 1506.06 930.01 1505.76 929.389 1505.46 928.768 1505.11 928.335 1504.71 928.092 1504.3 927.849 1503.79 927.727 1503.17 927.727 1502.19 927.727 1501.13 928.146 1499.99 928.984 1498.84 929.821 1497.55 931.132 1496.12 932.915 1494.68 934.698 1493.54 936.414 1492.69 938.062 1491.84 939.71 1491.13 941.804 1490.56 944.344L1486.71 961.892 1479.7 961.892 1485.58 936.198C1485.96 934.577 1486.2 933.32 1486.31 932.429 1486.42 931.537 1486.47 930.794 1486.47 930.2 1486.47 929.119 1486.29 928.335 1485.94 927.849 1485.59 927.363 1485.04 927.12 1484.28 927.12 1483.44 927.12 1482.56 927.464 1481.63 928.153 1480.69 928.842 1479.42 930.092 1477.8 931.902L1475.49 929.632C1477.97 927.039 1480.05 925.195 1481.73 924.1 1483.4 923.006 1485.25 922.459 1487.28 922.459ZM1431.43 906.572 1473.74 906.572 1470.58 920.838 1466.69 920.838C1466.69 918.217 1466.62 916.251 1466.49 914.941 1466.35 913.631 1466.1 912.631 1465.72 911.942 1465.34 911.253 1464.87 910.78 1464.32 910.524 1463.77 910.267 1462.79 910.139 1461.38 910.139L1455.38 910.139 1446.59 950.099C1446.35 951.152 1446.18 951.99 1446.08 952.611 1445.99 953.233 1445.91 953.888 1445.84 954.577 1445.77 955.266 1445.74 955.88 1445.74 956.421 1445.74 957.258 1445.87 957.914 1446.14 958.386 1446.41 958.859 1446.82 959.204 1447.36 959.42 1447.9 959.636 1448.83 959.798 1450.15 959.906L1449.71 961.892 1432.65 961.892 1433.09 959.906C1434.17 959.744 1434.97 959.528 1435.48 959.258 1436 958.988 1436.45 958.569 1436.84 958.001 1437.23 957.434 1437.63 956.542 1438.02 955.327 1438.41 954.111 1438.87 952.274 1439.42 949.815L1448.09 910.139 1442.94 910.139C1441.27 910.139 1439.93 910.382 1438.93 910.868 1437.93 911.354 1436.93 912.26 1435.93 913.583 1434.93 914.907 1433.71 917.123 1432.28 920.23L1428.39 920.23Z" fill-rule="evenodd"/><text fill="#000000" fill-opacity="0" font-family="Arial,Arial_MSFontService,sans-serif" font-size="55.9683" x="1428.39" y="955.544">𝑇𝑟𝑚</text><path d="M1338.5 521.79C1338.5 501.195 1355.2 484.5 1375.79 484.5L1657.21 484.5C1677.8 484.5 1694.5 501.195 1694.5 521.79L1694.5 613.21C1694.5 633.805 1677.8 650.5 1657.21 650.5L1375.79 650.5C1355.2 650.5 1338.5 633.805 1338.5 613.21Z" stroke="#172C51" stroke-width="4.58333" stroke-miterlimit="8" fill="#C5E0B4" fill-rule="evenodd" fill-opacity="0.901961"/><path d="M1471.54 539.024 1513.85 539.024 1510.68 553.289 1506.79 553.289C1506.79 550.668 1506.73 548.703 1506.59 547.392 1506.46 546.082 1506.2 545.082 1505.82 544.393 1505.44 543.704 1504.98 543.232 1504.42 542.975 1503.87 542.718 1502.89 542.59 1501.48 542.59L1495.49 542.59 1486.69 582.55C1486.45 583.604 1486.28 584.441 1486.19 585.063 1486.09 585.684 1486.01 586.339 1485.94 587.028 1485.88 587.717 1485.84 588.332 1485.84 588.872 1485.84 589.71 1485.98 590.365 1486.25 590.838 1486.52 591.311 1486.92 591.655 1487.46 591.871 1488 592.087 1488.94 592.249 1490.26 592.358L1489.81 594.343 1472.75 594.343 1473.2 592.358C1474.28 592.195 1475.07 591.979 1475.59 591.709 1476.1 591.439 1476.55 591.02 1476.95 590.453 1477.34 589.885 1477.73 588.994 1478.12 587.778 1478.51 586.562 1478.98 584.725 1479.52 582.266L1488.19 542.59 1483.05 542.59C1481.37 542.59 1480.03 542.833 1479.03 543.319 1478.03 543.806 1477.03 544.711 1476.03 546.035 1475.03 547.359 1473.82 549.574 1472.39 552.681L1468.5 552.681Z" fill-rule="evenodd"/><text fill="#000000" fill-opacity="0" font-family="Arial,Arial_MSFontService,sans-serif" font-size="55.3198" x="1468.5" y="587.428">𝑇</text><path d="M1523.84 572.615C1525.91 572.615 1527.67 572.849 1529.13 573.315 1530.59 573.782 1531.78 574.412 1532.69 575.207 1533.6 576.001 1534.26 576.954 1534.67 578.066 1535.08 579.178 1535.28 580.379 1535.28 581.67 1535.28 582.444 1535.23 583.164 1535.12 583.829 1535.01 584.495 1534.82 585.15 1534.55 585.795 1534.28 586.441 1533.93 587.091 1533.49 587.746 1533.06 588.401 1532.51 589.096 1531.85 589.831 1531.36 590.467 1530.71 591.201 1529.92 592.035 1529.12 592.869 1528.26 593.763 1527.31 594.716 1526.37 595.669 1525.38 596.662 1524.35 597.694 1523.32 598.727 1522.31 599.75 1521.34 600.762 1520.37 601.775 1519.47 602.758 1518.66 603.711 1517.85 604.664 1517.18 605.538 1516.66 606.332L1527.68 606.332C1528.62 606.332 1529.36 606.297 1529.92 606.228 1530.47 606.158 1530.94 606.005 1531.3 605.766 1531.67 605.528 1531.98 605.166 1532.24 604.679 1532.5 604.193 1532.8 603.522 1533.14 602.669L1535.91 602.669C1535.81 604.078 1535.71 605.498 1535.62 606.928 1535.53 608.358 1535.44 609.777 1535.34 611.187L1510.11 611.187 1510.11 609.638C1510.59 608.566 1511.14 607.509 1511.78 606.466 1512.42 605.424 1513.13 604.366 1513.92 603.294 1514.72 602.222 1515.62 601.115 1516.63 599.973 1517.65 598.831 1518.77 597.645 1520 596.414 1521.87 594.547 1523.39 592.954 1524.56 591.633 1525.73 590.313 1526.65 589.136 1527.33 588.104 1528 587.071 1528.46 586.118 1528.71 585.244 1528.96 584.371 1529.08 583.437 1529.08 582.444 1529.08 581.432 1528.94 580.498 1528.65 579.645 1528.36 578.791 1527.95 578.066 1527.42 577.47 1526.88 576.875 1526.2 576.408 1525.38 576.07 1524.55 575.733 1523.6 575.564 1522.53 575.564 1520.69 575.564 1519.14 576.065 1517.89 577.068 1516.63 578.071 1515.66 579.526 1514.97 581.432L1511.06 581.432 1511.06 575.624C1513.61 574.571 1515.94 573.807 1518.08 573.33 1520.21 572.854 1522.14 572.615 1523.84 572.615Z" fill-rule="evenodd"/><text fill="#000000" fill-opacity="0" font-family="Arial,Arial_MSFontService,sans-serif" font-size="38.5718" x="1510.11" y="606.366">2</text><path d="M3.4375-4.5745e-06 3.43783 248.275-3.43717 248.275-3.4375 4.5745e-06ZM13.7503 243.692 0.000360892 271.192-13.7497 243.692Z" transform="matrix(1 0 0 -1 939.5 1805.69)"/><rect x="2495.5" y="1806.5" width="356" height="155" stroke="#BF9000" stroke-width="6.875" stroke-miterlimit="8" fill="#FFE699" fill-opacity="0.8"/><path d="M2622.55 1855.54 2660.45 1855.54 2660.45 1867.78 2656.48 1867.78C2656.07 1866.45 2655.65 1865.29 2655.22 1864.29 2654.79 1863.29 2654.34 1862.45 2653.88 1861.78 2653.42 1861.1 2652.92 1860.56 2652.36 1860.16 2651.81 1859.75 2651.15 1859.48 2650.4 1859.33 2649.64 1859.18 2648.74 1859.1 2647.68 1859.1L2634.88 1859.1 2634.88 1880.34 2643.55 1880.34C2644.74 1880.34 2645.67 1880.17 2646.34 1879.83 2647.02 1879.5 2647.58 1878.92 2648.03 1878.11 2648.47 1877.3 2648.9 1876.03 2649.3 1874.3L2653.11 1874.3 2653.11 1889.86 2649.3 1889.86C2648.92 1888.24 2648.51 1887.02 2648.05 1886.2 2647.59 1885.37 2647.04 1884.78 2646.41 1884.43 2645.77 1884.08 2644.82 1883.91 2643.55 1883.91L2634.88 1883.91 2634.88 1907.29 2647.48 1907.29C2648.8 1907.29 2649.88 1907.18 2650.7 1906.95 2651.52 1906.72 2652.23 1906.32 2652.83 1905.77 2653.42 1905.22 2653.95 1904.49 2654.41 1903.6 2654.87 1902.71 2655.25 1901.79 2655.56 1900.83 2655.88 1899.87 2656.3 1898.47 2656.84 1896.63L2660.85 1896.63 2660.08 1910.86 2622.55 1910.86 2622.55 1908.87C2624.23 1908.44 2625.35 1907.96 2625.92 1907.43 2626.49 1906.91 2626.86 1906.16 2627.03 1905.18 2627.21 1904.21 2627.3 1902.72 2627.3 1900.73L2627.3 1865.67C2627.3 1863.8 2627.23 1862.45 2627.09 1861.6 2626.96 1860.74 2626.74 1860.08 2626.43 1859.61 2626.11 1859.14 2625.7 1858.76 2625.19 1858.48 2624.68 1858.19 2623.8 1857.87 2622.55 1857.52Z" fill-rule="evenodd"/><text fill="#000000" fill-opacity="0" font-family="Arial,Arial_MSFontService,sans-serif" font-size="55.3198" x="2622.55" y="1903.94">E</text><path d="M2688.26 1897.29C2689.73 1897.29 2691.01 1897.48 2692.11 1897.87 2693.22 1898.26 2694.13 1898.88 2694.87 1899.73 2695.6 1900.59 2696.15 1901.68 2696.52 1903.01 2696.89 1904.34 2697.07 1905.94 2697.07 1907.8L2697.07 1920.11C2697.07 1921.28 2697.08 1922.18 2697.1 1922.82 2697.12 1923.45 2697.24 1923.94 2697.46 1924.29 2697.68 1924.64 2698.04 1924.91 2698.53 1925.11 2699.03 1925.31 2699.75 1925.54 2700.71 1925.79L2700.71 1927.7 2687.6 1927.7 2687.6 1925.79C2688.42 1925.52 2689.06 1925.29 2689.52 1925.12 2689.99 1924.96 2690.34 1924.71 2690.58 1924.38 2690.82 1924.05 2690.97 1923.58 2691.04 1922.96 2691.11 1922.35 2691.15 1921.45 2691.15 1920.25L2691.15 1911.97C2691.15 1909.85 2691.06 1908.1 2690.88 1906.73 2690.7 1905.36 2690.4 1904.28 2689.97 1903.5 2689.54 1902.72 2688.98 1902.17 2688.27 1901.86 2687.57 1901.55 2686.7 1901.4 2685.67 1901.4 2684.79 1901.4 2683.91 1901.62 2683.03 1902.06 2682.15 1902.49 2681.35 1903.03 2680.65 1903.68 2679.94 1904.32 2679.37 1905.03 2678.92 1905.79 2678.47 1906.56 2678.25 1907.27 2678.25 1907.92L2678.25 1920.11C2678.25 1921.32 2678.28 1922.24 2678.34 1922.88 2678.4 1923.51 2678.55 1924 2678.8 1924.35 2679.05 1924.7 2679.42 1924.96 2679.9 1925.12 2680.39 1925.29 2681.06 1925.52 2681.91 1925.79L2681.91 1927.7 2668.84 1927.7 2668.84 1925.79C2669.63 1925.52 2670.26 1925.3 2670.73 1925.14 2671.19 1924.98 2671.55 1924.74 2671.79 1924.41 2672.02 1924.08 2672.18 1923.6 2672.25 1922.96 2672.32 1922.33 2672.35 1921.41 2672.35 1920.19L2672.35 1906.17C2672.35 1905.47 2672.34 1904.88 2672.31 1904.39 2672.28 1903.91 2672.24 1903.5 2672.2 1903.16 2672.16 1902.68 2672.09 1902.28 2671.99 1901.95 2671.89 1901.62 2671.71 1901.34 2671.44 1901.09 2671.17 1900.84 2670.8 1900.63 2670.31 1900.45 2669.82 1900.27 2669.18 1900.1 2668.39 1899.94L2668.39 1897.92 2676.19 1897.59 2678.31 1897.59C2678.25 1898.44 2678.18 1899.28 2678.1 1900.1 2678.02 1900.93 2677.95 1901.76 2677.89 1902.59 2677.95 1902.63 2678.01 1902.65 2678.07 1902.65 2678.13 1902.65 2678.19 1902.67 2678.25 1902.71 2679.22 1901.72 2680.14 1900.88 2680.99 1900.19 2681.84 1899.51 2682.67 1898.95 2683.46 1898.51 2684.26 1898.07 2685.04 1897.76 2685.83 1897.57 2686.61 1897.38 2687.42 1897.29 2688.26 1897.29Z" fill-rule="evenodd"/><text fill="#000000" fill-opacity="0" font-family="Arial,Arial_MSFontService,sans-serif" font-size="30.4106" x="2668.39" y="1923.9">n</text><path d="M2495.5 1425C2495.5 1364.52 2575.19 1315.5 2673.5 1315.5 2771.81 1315.5 2851.5 1364.52 2851.5 1425 2851.5 1485.48 2771.81 1534.5 2673.5 1534.5 2575.19 1534.5 2495.5 1485.48 2495.5 1425Z" stroke="#172C51" stroke-width="4.58333" stroke-miterlimit="8" fill="#8FAADC" fill-rule="evenodd" fill-opacity="0.901961"/><path d="M2683.32 1412.85C2685.02 1412.85 2686.37 1413.41 2687.35 1414.53 2688.34 1415.65 2688.83 1417.12 2688.83 1418.93 2688.83 1420.41 2688.52 1421.99 2687.9 1423.67L2688.39 1423.83C2690.87 1420.13 2693.34 1417.38 2695.8 1415.58 2698.26 1413.79 2700.75 1412.89 2703.26 1412.89 2705.85 1412.89 2707.83 1413.62 2709.18 1415.1 2710.53 1416.57 2711.2 1418.7 2711.2 1421.48L2711.2 1422.05C2711.2 1422.24 2711.19 1422.44 2711.16 1422.66 2713.49 1419.36 2715.8 1416.91 2718.11 1415.3 2720.42 1413.69 2722.82 1412.89 2725.31 1412.89 2727.79 1412.89 2729.71 1413.6 2731.06 1415.04 2732.41 1416.47 2733.09 1418.48 2733.09 1421.07 2733.09 1422.78 2732.7 1425.2 2731.91 1428.33L2729.28 1438.95C2728.55 1441.89 2728.18 1443.97 2728.18 1445.19 2728.18 1446.27 2728.36 1447.05 2728.71 1447.54 2729.06 1448.03 2729.62 1448.27 2730.37 1448.27 2731.18 1448.27 2732.05 1447.94 2732.97 1447.28 2733.88 1446.61 2735.18 1445.35 2736.86 1443.49L2739.17 1445.76C2736.84 1448.21 2734.82 1450.02 2733.09 1451.19 2731.36 1452.35 2729.39 1452.93 2727.17 1452.93 2725.41 1452.93 2724.01 1452.3 2722.96 1451.04 2721.9 1449.79 2721.38 1448.19 2721.38 1446.24 2721.38 1444.49 2721.82 1441.91 2722.71 1438.5L2724.5 1431.49C2725.14 1428.95 2725.57 1427.07 2725.77 1425.86 2725.98 1424.64 2726.08 1423.66 2726.08 1422.9 2726.08 1421.03 2725.77 1419.69 2725.14 1418.87 2724.52 1418.04 2723.51 1417.63 2722.1 1417.63 2720.97 1417.63 2719.75 1418.06 2718.46 1418.91 2717.16 1419.76 2715.8 1421.08 2714.36 1422.88 2712.93 1424.68 2711.76 1426.44 2710.86 1428.19 2709.95 1429.93 2709.23 1432.06 2708.69 1434.57L2705 1452.28 2697.99 1452.28 2702.65 1431.69C2703.22 1429.18 2703.6 1427.32 2703.81 1426.12 2704.01 1424.92 2704.11 1423.88 2704.11 1423.02 2704.11 1421.07 2703.77 1419.69 2703.08 1418.87 2702.39 1418.04 2701.31 1417.63 2699.86 1417.63 2698.83 1417.63 2697.66 1418.06 2696.35 1418.91 2695.04 1419.76 2693.64 1421.12 2692.16 1423 2690.67 1424.88 2689.51 1426.68 2688.67 1428.41 2687.83 1430.14 2687.13 1432.25 2686.56 1434.73L2682.71 1452.28 2675.7 1452.28 2681.62 1426.59C2682.21 1423.99 2682.51 1421.99 2682.51 1420.59 2682.51 1419.51 2682.33 1418.72 2681.98 1418.24 2681.63 1417.75 2681.08 1417.51 2680.32 1417.51 2679.48 1417.51 2678.6 1417.85 2677.67 1418.54 2676.73 1419.23 2675.46 1420.48 2673.84 1422.29L2671.53 1420.02C2673.9 1417.54 2675.95 1415.72 2677.67 1414.57 2679.38 1413.42 2681.27 1412.85 2683.32 1412.85ZM2644.28 1412.85C2645.98 1412.85 2647.33 1413.41 2648.31 1414.53 2649.3 1415.65 2649.79 1417.12 2649.79 1418.93 2649.79 1420.28 2649.53 1421.67 2649.02 1423.1L2649.55 1423.3C2652.2 1419.71 2654.74 1417.08 2657.19 1415.4 2659.63 1413.73 2662.11 1412.89 2664.62 1412.89 2666.6 1412.89 2668.24 1413.04 2669.57 1413.33L2667.62 1422.41 2663.45 1422.41C2663.29 1421.28 2663.06 1420.4 2662.76 1419.78 2662.46 1419.16 2662.11 1418.72 2661.71 1418.48 2661.3 1418.24 2660.79 1418.12 2660.17 1418.12 2659.19 1418.12 2658.13 1418.54 2656.98 1419.37 2655.84 1420.21 2654.55 1421.52 2653.11 1423.3 2651.68 1425.09 2650.54 1426.8 2649.69 1428.45 2648.84 1430.1 2648.13 1432.19 2647.56 1434.73L2643.71 1452.28 2636.7 1452.28 2642.58 1426.59C2642.96 1424.97 2643.2 1423.71 2643.31 1422.82 2643.42 1421.93 2643.47 1421.18 2643.47 1420.59 2643.47 1419.51 2643.29 1418.72 2642.94 1418.24 2642.59 1417.75 2642.04 1417.51 2641.28 1417.51 2640.44 1417.51 2639.56 1417.85 2638.63 1418.54 2637.69 1419.23 2636.42 1420.48 2634.8 1422.29L2632.49 1420.02C2634.97 1417.43 2637.05 1415.58 2638.73 1414.49 2640.4 1413.39 2642.25 1412.85 2644.28 1412.85ZM2588.43 1396.96 2630.74 1396.96 2627.58 1411.23 2623.69 1411.23C2623.69 1408.61 2623.62 1406.64 2623.49 1405.33 2623.35 1404.02 2623.09 1403.02 2622.72 1402.33 2622.34 1401.64 2621.87 1401.17 2621.32 1400.91 2620.76 1400.66 2619.79 1400.53 2618.38 1400.53L2612.38 1400.53 2603.59 1440.49C2603.34 1441.54 2603.18 1442.38 2603.08 1443 2602.99 1443.62 2602.91 1444.28 2602.84 1444.97 2602.77 1445.65 2602.74 1446.27 2602.74 1446.81 2602.74 1447.65 2602.87 1448.3 2603.14 1448.78 2603.41 1449.25 2603.82 1449.59 2604.36 1449.81 2604.9 1450.02 2605.83 1450.19 2607.15 1450.3L2606.71 1452.28 2589.65 1452.28 2590.09 1450.3C2591.17 1450.13 2591.97 1449.92 2592.48 1449.65 2593 1449.38 2593.45 1448.96 2593.84 1448.39 2594.23 1447.82 2594.62 1446.93 2595.02 1445.72 2595.41 1444.5 2595.87 1442.66 2596.41 1440.2L2605.09 1400.53 2599.94 1400.53C2598.27 1400.53 2596.93 1400.77 2595.93 1401.26 2594.93 1401.74 2593.93 1402.65 2592.93 1403.97 2591.93 1405.3 2590.71 1407.51 2589.28 1410.62L2585.39 1410.62Z" fill-rule="evenodd"/><text fill="#000000" fill-opacity="0" font-family="Arial,Arial_MSFontService,sans-serif" font-size="55.9683" x="2585.39" y="1445.93">𝑇𝑟𝑚</text><path d="M2495.5 935C2495.5 874.525 2575.19 825.5 2673.5 825.5 2771.81 825.5 2851.5 874.525 2851.5 935 2851.5 995.475 2771.81 1044.5 2673.5 1044.5 2575.19 1044.5 2495.5 995.475 2495.5 935Z" stroke="#172C51" stroke-width="4.58333" stroke-miterlimit="8" fill="#8FAADC" fill-rule="evenodd" fill-opacity="0.901961"/><path d="M2683.32 922.459C2685.02 922.459 2686.37 923.02 2687.35 924.141 2688.34 925.262 2688.83 926.728 2688.83 928.538 2688.83 930.024 2688.52 931.605 2687.9 933.28L2688.39 933.442C2690.87 929.74 2693.34 926.991 2695.8 925.195 2698.26 923.398 2700.75 922.499 2703.26 922.499 2705.85 922.499 2707.83 923.236 2709.18 924.708 2710.53 926.181 2711.2 928.308 2711.2 931.091L2711.2 931.659C2711.2 931.848 2711.19 932.05 2711.16 932.267 2713.49 928.97 2715.8 926.518 2718.11 924.911 2720.42 923.303 2722.82 922.499 2725.31 922.499 2727.79 922.499 2729.71 923.215 2731.06 924.647 2732.41 926.079 2733.09 928.092 2733.09 930.686 2733.09 932.388 2732.7 934.806 2731.91 937.94L2729.28 948.559C2728.55 951.504 2728.18 953.584 2728.18 954.8 2728.18 955.88 2728.36 956.664 2728.71 957.15 2729.06 957.637 2729.62 957.88 2730.37 957.88 2731.18 957.88 2732.05 957.549 2732.97 956.887 2733.88 956.225 2735.18 954.962 2736.86 953.098L2739.17 955.367C2736.84 957.826 2734.82 959.636 2733.09 960.798 2731.36 961.96 2729.39 962.54 2727.17 962.54 2725.41 962.54 2724.01 961.912 2722.96 960.656 2721.9 959.4 2721.38 957.799 2721.38 955.853 2721.38 954.097 2721.82 951.517 2722.71 948.113L2724.5 941.102C2725.14 938.562 2725.57 936.684 2725.77 935.468 2725.98 934.252 2726.08 933.266 2726.08 932.51 2726.08 930.645 2725.77 929.301 2725.14 928.477 2724.52 927.653 2723.51 927.241 2722.1 927.241 2720.97 927.241 2719.75 927.667 2718.46 928.518 2717.16 929.369 2715.8 930.693 2714.36 932.489 2712.93 934.286 2711.76 936.056 2710.86 937.799 2709.95 939.541 2709.23 941.669 2708.69 944.182L2705 961.892 2697.99 961.892 2702.65 941.304C2703.22 938.791 2703.6 936.934 2703.81 935.732 2704.01 934.529 2704.11 933.496 2704.11 932.631 2704.11 930.686 2703.77 929.301 2703.08 928.477 2702.39 927.653 2701.31 927.241 2699.86 927.241 2698.83 927.241 2697.66 927.667 2696.35 928.518 2695.04 929.369 2693.64 930.733 2692.16 932.611 2690.67 934.489 2689.51 936.292 2688.67 938.021 2687.83 939.751 2687.13 941.858 2686.56 944.344L2682.71 961.892 2675.7 961.892 2681.62 936.198C2682.21 933.604 2682.51 931.605 2682.51 930.2 2682.51 929.119 2682.33 928.335 2681.98 927.849 2681.63 927.363 2681.08 927.12 2680.32 927.12 2679.48 927.12 2678.6 927.464 2677.67 928.153 2676.73 928.842 2675.46 930.092 2673.84 931.902L2671.53 929.632C2673.9 927.147 2675.95 925.33 2677.67 924.181 2679.38 923.033 2681.27 922.459 2683.32 922.459ZM2644.28 922.459C2645.98 922.459 2647.33 923.02 2648.31 924.141 2649.3 925.262 2649.79 926.728 2649.79 928.538 2649.79 929.889 2649.53 931.28 2649.02 932.712L2649.55 932.915C2652.2 929.322 2654.74 926.687 2657.19 925.012 2659.63 923.337 2662.11 922.499 2664.62 922.499 2666.6 922.499 2668.24 922.648 2669.57 922.945L2667.62 932.023 2663.45 932.023C2663.29 930.889 2663.06 930.01 2662.76 929.389 2662.46 928.768 2662.11 928.335 2661.71 928.092 2661.3 927.849 2660.79 927.727 2660.17 927.727 2659.19 927.727 2658.13 928.146 2656.98 928.984 2655.84 929.821 2654.55 931.132 2653.11 932.915 2651.68 934.698 2650.54 936.414 2649.69 938.062 2648.84 939.71 2648.13 941.804 2647.56 944.344L2643.71 961.892 2636.7 961.892 2642.58 936.198C2642.96 934.577 2643.2 933.32 2643.31 932.429 2643.42 931.537 2643.47 930.794 2643.47 930.2 2643.47 929.119 2643.29 928.335 2642.94 927.849 2642.59 927.363 2642.04 927.12 2641.28 927.12 2640.44 927.12 2639.56 927.464 2638.63 928.153 2637.69 928.842 2636.42 930.092 2634.8 931.902L2632.49 929.632C2634.97 927.039 2637.05 925.195 2638.73 924.1 2640.4 923.006 2642.25 922.459 2644.28 922.459ZM2588.43 906.572 2630.74 906.572 2627.58 920.838 2623.69 920.838C2623.69 918.217 2623.62 916.251 2623.49 914.941 2623.35 913.631 2623.09 912.631 2622.72 911.942 2622.34 911.253 2621.87 910.78 2621.32 910.524 2620.76 910.267 2619.79 910.139 2618.38 910.139L2612.38 910.139 2603.59 950.099C2603.34 951.152 2603.18 951.99 2603.08 952.611 2602.99 953.233 2602.91 953.888 2602.84 954.577 2602.77 955.266 2602.74 955.88 2602.74 956.421 2602.74 957.258 2602.87 957.914 2603.14 958.386 2603.41 958.859 2603.82 959.204 2604.36 959.42 2604.9 959.636 2605.83 959.798 2607.15 959.906L2606.71 961.892 2589.65 961.892 2590.09 959.906C2591.17 959.744 2591.97 959.528 2592.48 959.258 2593 958.988 2593.45 958.569 2593.84 958.001 2594.23 957.434 2594.62 956.542 2595.02 955.327 2595.41 954.111 2595.87 952.274 2596.41 949.815L2605.09 910.139 2599.94 910.139C2598.27 910.139 2596.93 910.382 2595.93 910.868 2594.93 911.354 2593.93 912.26 2592.93 913.583 2591.93 914.907 2590.71 917.123 2589.28 920.23L2585.39 920.23Z" fill-rule="evenodd"/><text fill="#000000" fill-opacity="0" font-family="Arial,Arial_MSFontService,sans-serif" font-size="55.9683" x="2585.39" y="955.544">𝑇𝑟𝑚</text><path d="M2495.5 521.79C2495.5 501.195 2512.2 484.5 2532.79 484.5L2814.21 484.5C2834.8 484.5 2851.5 501.195 2851.5 521.79L2851.5 613.21C2851.5 633.805 2834.8 650.5 2814.21 650.5L2532.79 650.5C2512.2 650.5 2495.5 633.805 2495.5 613.21Z" stroke="#172C51" stroke-width="4.58333" stroke-miterlimit="8" fill="#C5E0B4" fill-rule="evenodd" fill-opacity="0.901961"/><path d="M2627.22 539.024 2669.53 539.024 2666.37 553.289 2662.48 553.289C2662.48 550.668 2662.41 548.703 2662.27 547.392 2662.14 546.082 2661.88 545.082 2661.5 544.393 2661.12 543.704 2660.66 543.232 2660.1 542.975 2659.55 542.718 2658.57 542.59 2657.17 542.59L2651.17 542.59 2642.37 582.55C2642.13 583.604 2641.96 584.441 2641.87 585.063 2641.77 585.684 2641.69 586.339 2641.62 587.028 2641.56 587.717 2641.52 588.332 2641.52 588.872 2641.52 589.71 2641.66 590.365 2641.93 590.838 2642.2 591.311 2642.6 591.655 2643.14 591.871 2643.68 592.087 2644.62 592.249 2645.94 592.358L2645.49 594.343 2628.43 594.343 2628.88 592.358C2629.96 592.195 2630.76 591.979 2631.27 591.709 2631.78 591.439 2632.24 591.02 2632.63 590.453 2633.02 589.885 2633.41 588.994 2633.8 587.778 2634.19 586.562 2634.66 584.725 2635.2 582.266L2643.87 542.59 2638.73 542.59C2637.05 542.59 2635.71 542.833 2634.71 543.319 2633.71 543.806 2632.72 544.711 2631.72 546.035 2630.72 547.359 2629.5 549.574 2628.07 552.681L2624.18 552.681Z" fill-rule="evenodd"/><text fill="#000000" fill-opacity="0" font-family="Arial,Arial_MSFontService,sans-serif" font-size="55.3198" x="2624.18" y="587.428">𝑇</text><path d="M2670.18 580.776C2671.65 580.776 2672.78 581.258 2673.59 582.221 2674.39 583.184 2674.79 584.45 2674.79 586.019 2674.79 586.416 2674.76 586.833 2674.69 587.27 2674.62 587.706 2674.5 588.123 2674.32 588.521L2674.74 588.67C2676.66 586.029 2678.56 584.053 2680.44 582.742 2682.32 581.432 2684.26 580.776 2686.26 580.776 2688.37 580.776 2689.94 581.342 2690.98 582.474 2692.03 583.606 2692.55 585.195 2692.55 587.24 2692.55 587.855 2692.46 588.709 2692.28 589.801 2692.1 590.893 2691.87 592.085 2691.59 593.376 2691.32 594.666 2691.02 595.992 2690.7 597.352 2690.38 598.712 2690.08 599.968 2689.81 601.12 2689.53 602.271 2689.3 603.254 2689.12 604.068 2688.94 604.883 2688.85 605.389 2688.85 605.588 2688.85 606.342 2688.99 606.888 2689.27 607.226 2689.55 607.563 2690 607.732 2690.61 607.732 2690.99 607.732 2691.36 607.663 2691.73 607.524 2692.09 607.385 2692.48 607.166 2692.87 606.868 2693.27 606.57 2693.71 606.188 2694.18 605.722 2694.66 605.255 2695.2 604.694 2695.79 604.039L2697.85 606.005C2696.88 606.997 2695.98 607.851 2695.17 608.566 2694.35 609.281 2693.56 609.872 2692.8 610.338 2692.04 610.805 2691.28 611.152 2690.52 611.381 2689.77 611.609 2688.96 611.723 2688.11 611.723 2687.39 611.723 2686.73 611.584 2686.13 611.306 2685.52 611.028 2685 610.646 2684.56 610.16 2684.13 609.673 2683.79 609.097 2683.55 608.432 2683.31 607.767 2683.19 607.037 2683.19 606.243 2683.19 605.449 2683.28 604.52 2683.45 603.458 2683.62 602.396 2683.87 601.229 2684.21 599.958 2684.56 598.667 2684.9 597.431 2685.2 596.25 2685.51 595.068 2685.78 593.976 2686.01 592.974 2686.24 591.971 2686.42 591.077 2686.54 590.293 2686.67 589.508 2686.74 588.858 2686.74 588.342 2686.74 587.111 2686.51 586.207 2686.04 585.631 2685.57 585.056 2684.82 584.768 2683.79 584.768 2683.19 584.768 2682.55 584.922 2681.87 585.229 2681.18 585.537 2680.49 585.964 2679.8 586.51 2679.1 587.056 2678.42 587.702 2677.76 588.446 2677.09 589.191 2676.48 589.985 2675.93 590.829 2675.37 591.673 2674.88 592.557 2674.45 593.48 2674.03 594.403 2673.71 595.322 2673.51 596.235L2670.18 611.187 2664.34 611.187 2668.81 591.767C2669.07 590.735 2669.25 589.811 2669.37 588.997 2669.49 588.183 2669.55 587.518 2669.55 587.002 2669.55 585.552 2668.97 584.827 2667.8 584.827 2667.44 584.827 2667.08 584.902 2666.71 585.051 2666.34 585.2 2665.95 585.423 2665.55 585.721 2665.14 586.019 2664.7 586.396 2664.22 586.853 2663.74 587.309 2663.21 587.846 2662.61 588.461L2660.56 586.525C2661.55 585.512 2662.46 584.644 2663.28 583.919 2664.11 583.194 2664.89 582.598 2665.64 582.132 2666.38 581.665 2667.12 581.323 2667.85 581.104 2668.59 580.886 2669.36 580.776 2670.18 580.776Z" fill-rule="evenodd"/><text fill="#000000" fill-opacity="0" font-family="Arial,Arial_MSFontService,sans-serif" font-size="30.9468" x="2660.56" y="607.855">𝑛</text><path d="M2119.38 1892.42C2120.79 1892.42 2121.96 1892.91 2122.91 1893.9 2123.85 1894.88 2124.33 1896.13 2124.33 1897.65 2124.33 1899.16 2123.85 1900.41 2122.91 1901.39 2121.96 1902.38 2120.79 1902.87 2119.38 1902.87 2117.98 1902.87 2116.8 1902.38 2115.86 1901.39 2114.91 1900.41 2114.44 1899.16 2114.44 1897.65 2114.44 1896.13 2114.91 1894.88 2115.86 1893.9 2116.8 1892.91 2117.98 1892.42 2119.38 1892.42ZM2094.82 1892.42C2096.23 1892.42 2097.4 1892.91 2098.35 1893.9 2099.29 1894.88 2099.77 1896.13 2099.77 1897.65 2099.77 1899.16 2099.29 1900.41 2098.35 1901.39 2097.4 1902.38 2096.23 1902.87 2094.82 1902.87 2093.42 1902.87 2092.24 1902.38 2091.3 1901.39 2090.35 1900.41 2089.88 1899.16 2089.88 1897.65 2089.88 1896.13 2090.35 1894.88 2091.3 1893.9 2092.24 1892.91 2093.42 1892.42 2094.82 1892.42ZM2070.26 1892.42C2071.67 1892.42 2072.84 1892.91 2073.79 1893.9 2074.74 1894.88 2075.21 1896.13 2075.21 1897.65 2075.21 1899.16 2074.74 1900.41 2073.79 1901.39 2072.84 1902.38 2071.67 1902.87 2070.26 1902.87 2068.86 1902.87 2067.68 1902.38 2066.74 1901.39 2065.79 1900.41 2065.32 1899.16 2065.32 1897.65 2065.32 1896.13 2065.79 1894.88 2066.74 1893.9 2067.68 1892.91 2068.86 1892.42 2070.26 1892.42Z" fill-rule="evenodd"/><text fill="#000000" fill-opacity="0" font-family="Arial,Arial_MSFontService,sans-serif" font-size="10.4561" x="2065.32" y="1901.57">⋯</text><path d="M2119.38 548.305C2120.79 548.305 2121.96 548.798 2122.91 549.784 2123.85 550.77 2124.33 552.02 2124.33 553.533 2124.33 555.046 2123.85 556.295 2122.91 557.281 2121.96 558.268 2120.79 558.761 2119.38 558.761 2117.98 558.761 2116.8 558.268 2115.86 557.281 2114.91 556.295 2114.44 555.046 2114.44 553.533 2114.44 552.02 2114.91 550.77 2115.86 549.784 2116.8 548.798 2117.98 548.305 2119.38 548.305ZM2094.82 548.305C2096.23 548.305 2097.4 548.798 2098.35 549.784 2099.29 550.77 2099.77 552.02 2099.77 553.533 2099.77 555.046 2099.29 556.295 2098.35 557.281 2097.4 558.268 2096.23 558.761 2094.82 558.761 2093.42 558.761 2092.24 558.268 2091.3 557.281 2090.35 556.295 2089.88 555.046 2089.88 553.533 2089.88 552.02 2090.35 550.77 2091.3 549.784 2092.24 548.798 2093.42 548.305 2094.82 548.305ZM2070.26 548.305C2071.67 548.305 2072.84 548.798 2073.79 549.784 2074.74 550.77 2075.21 552.02 2075.21 553.533 2075.21 555.046 2074.74 556.295 2073.79 557.281 2072.84 558.268 2071.67 558.761 2070.26 558.761 2068.86 558.761 2067.68 558.268 2066.74 557.281 2065.79 556.295 2065.32 555.046 2065.32 553.533 2065.32 552.02 2065.79 550.77 2066.74 549.784 2067.68 548.798 2068.86 548.305 2070.26 548.305Z" fill-rule="evenodd"/><text fill="#000000" fill-opacity="0" font-family="Arial,Arial_MSFontService,sans-serif" font-size="10.4561" x="2065.32" y="557.454">⋯</text><path d="M2119.38 932.311C2120.79 932.311 2121.96 932.804 2122.91 933.79 2123.85 934.776 2124.33 936.026 2124.33 937.539 2124.33 939.052 2123.85 940.301 2122.91 941.288 2121.96 942.274 2120.79 942.767 2119.38 942.767 2117.98 942.767 2116.8 942.274 2115.86 941.288 2114.91 940.301 2114.44 939.052 2114.44 937.539 2114.44 936.026 2114.91 934.776 2115.86 933.79 2116.8 932.804 2117.98 932.311 2119.38 932.311ZM2094.82 932.311C2096.23 932.311 2097.4 932.804 2098.35 933.79 2099.29 934.776 2099.77 936.026 2099.77 937.539 2099.77 939.052 2099.29 940.301 2098.35 941.288 2097.4 942.274 2096.23 942.767 2094.82 942.767 2093.42 942.767 2092.24 942.274 2091.3 941.288 2090.35 940.301 2089.88 939.052 2089.88 937.539 2089.88 936.026 2090.35 934.776 2091.3 933.79 2092.24 932.804 2093.42 932.311 2094.82 932.311ZM2070.26 932.311C2071.67 932.311 2072.84 932.804 2073.79 933.79 2074.74 934.776 2075.21 936.026 2075.21 937.539 2075.21 939.052 2074.74 940.301 2073.79 941.288 2072.84 942.274 2071.67 942.767 2070.26 942.767 2068.86 942.767 2067.68 942.274 2066.74 941.288 2065.79 940.301 2065.32 939.052 2065.32 937.539 2065.32 936.026 2065.79 934.776 2066.74 933.79 2067.68 932.804 2068.86 932.311 2070.26 932.311Z" fill-rule="evenodd"/><text fill="#000000" fill-opacity="0" font-family="Arial,Arial_MSFontService,sans-serif" font-size="10.4561" x="2065.32" y="941.46">⋯</text><path d="M2119.38 1422.7C2120.79 1422.7 2121.96 1423.19 2122.91 1424.18 2123.85 1425.17 2124.33 1426.41 2124.33 1427.93 2124.33 1429.44 2123.85 1430.69 2122.91 1431.68 2121.96 1432.66 2120.79 1433.16 2119.38 1433.16 2117.98 1433.16 2116.8 1432.66 2115.86 1431.68 2114.91 1430.69 2114.44 1429.44 2114.44 1427.93 2114.44 1426.41 2114.91 1425.17 2115.86 1424.18 2116.8 1423.19 2117.98 1422.7 2119.38 1422.7ZM2094.82 1422.7C2096.23 1422.7 2097.4 1423.19 2098.35 1424.18 2099.29 1425.17 2099.77 1426.41 2099.77 1427.93 2099.77 1429.44 2099.29 1430.69 2098.35 1431.68 2097.4 1432.66 2096.23 1433.16 2094.82 1433.16 2093.42 1433.16 2092.24 1432.66 2091.3 1431.68 2090.35 1430.69 2089.88 1429.44 2089.88 1427.93 2089.88 1426.41 2090.35 1425.17 2091.3 1424.18 2092.24 1423.19 2093.42 1422.7 2094.82 1422.7ZM2070.26 1422.7C2071.67 1422.7 2072.84 1423.19 2073.79 1424.18 2074.74 1425.17 2075.21 1426.41 2075.21 1427.93 2075.21 1429.44 2074.74 1430.69 2073.79 1431.68 2072.84 1432.66 2071.67 1433.16 2070.26 1433.16 2068.86 1433.16 2067.68 1432.66 2066.74 1431.68 2065.79 1430.69 2065.32 1429.44 2065.32 1427.93 2065.32 1426.41 2065.79 1425.17 2066.74 1424.18 2067.68 1423.19 2068.86 1422.7 2070.26 1422.7Z" fill-rule="evenodd"/><text fill="#000000" fill-opacity="0" font-family="Arial,Arial_MSFontService,sans-serif" font-size="10.4561" x="2065.32" y="1431.85">⋯</text><path d="M1.46072-3.1117 558.42 258.342 555.499 264.565-1.46072 3.1117ZM558.655 247.059 577.705 271.192 546.969 271.953Z" transform="matrix(1 0 0 -1 939.5 1805.69)"/><path d="M0.530946-3.39625 1712.58 264.255 1711.52 271.047-0.530946 3.39625ZM1709.66 253.359 1734.7 271.192 1705.41 280.529Z" transform="matrix(1 0 0 -1 939.5 1805.69)"/><path d="M1515.74 1808.8 958.785 1547.35 961.706 1541.13 1518.67 1802.58ZM958.551 1558.63 939.5 1534.5 970.237 1533.74Z"/><path d="M3.4375-4.5745e-06 3.43783 248.275-3.43717 248.275-3.4375 4.5745e-06ZM13.7503 243.692 0.000360892 271.192-13.7497 243.692Z" transform="matrix(1 0 0 -1 1516.5 1805.69)"/><path d="M0.784463-3.34679 1135.47 262.616 1133.91 269.31-0.784463 3.34679ZM1133.36 251.529 1157 271.192 1127.09 278.303Z" transform="matrix(1 0 0 -1 1516.5 1805.69)"/><path d="M2673.67 1809.09 961.62 1541.44 962.682 1534.64 2674.74 1802.3ZM964.546 1552.33 939.5 1534.5 968.794 1525.16Z"/><path d="M2672.72 1809.04 1538.02 1543.08 1539.59 1536.38 2674.28 1802.35ZM1540.14 1554.16 1516.5 1534.5 1546.41 1527.39Z"/><path d="M3.4375-4.5745e-06 3.43783 248.275-3.43717 248.275-3.4375 4.5745e-06ZM13.7503 243.692 0.000360892 271.192-13.7497 243.692Z" transform="matrix(1 0 0 -1 2673.5 1805.69)"/><path d="M3.4375-4.5745e-06 3.43783 248.275-3.43717 248.275-3.4375 4.5745e-06ZM13.7503 243.692 0.000360892 271.192-13.7497 243.692Z" transform="matrix(1 0 0 -1 939.5 1315.69)"/><path d="M1.46072-3.1117 558.42 258.342 555.499 264.565-1.46072 3.1117ZM558.655 247.059 577.705 271.192 546.969 271.953Z" transform="matrix(1 0 0 -1 939.5 1315.69)"/><path d="M0.530946-3.39625 1712.58 264.255 1711.52 271.047-0.530946 3.39625ZM1709.66 253.359 1734.7 271.192 1705.41 280.529Z" transform="matrix(1 0 0 -1 939.5 1315.69)"/><path d="M1515.74 1318.8 958.785 1057.35 961.706 1051.13 1518.67 1312.58ZM958.551 1068.63 939.5 1044.5 970.237 1043.74Z"/><path d="M3.4375-4.5745e-06 3.43783 248.275-3.43717 248.275-3.4375 4.5745e-06ZM13.7503 243.692 0.000360892 271.192-13.7497 243.692Z" transform="matrix(1 0 0 -1 1516.5 1315.69)"/><path d="M2672.72 1319.04 1538.02 1053.08 1539.59 1046.38 2674.28 1312.35ZM1540.14 1064.16 1516.5 1044.5 1546.41 1037.39Z"/><path d="M2673.67 1319.09 961.62 1051.44 962.682 1044.65 2674.74 1312.3ZM964.546 1062.33 939.5 1044.5 968.794 1035.16Z"/><path d="M0.784463-3.34679 1135.47 262.616 1133.91 269.31-0.784463 3.34679ZM1133.36 251.529 1157 271.192 1127.09 278.303Z" transform="matrix(1 0 0 -1 1516.5 1315.69)"/><path d="M3.4375-4.5745e-06 3.43783 248.275-3.43717 248.275-3.4375 4.5745e-06ZM13.7503 243.692 0.000360892 271.192-13.7497 243.692Z" transform="matrix(1 0 0 -1 2673.5 1315.69)"/><path d="M3.4375-7.09512e-06 3.43781 151.931-3.43719 151.931-3.4375 7.09512e-06ZM13.7503 147.348 0.000360892 174.848-13.7497 147.348Z" transform="matrix(1 0 0 -1 939.5 825.348)"/><path d="M3.4375-7.09512e-06 3.43781 151.931-3.43719 151.931-3.4375 7.09512e-06ZM13.7503 147.348 0.000360892 174.848-13.7497 147.348Z" transform="matrix(1 0 0 -1 1516.5 825.348)"/><path d="M3.4375-7.09512e-06 3.43781 151.931-3.43719 151.931-3.4375 7.09512e-06ZM13.7503 147.348 0.000360892 174.848-13.7497 147.348Z" transform="matrix(1 0 0 -1 2673.5 825.348)"/></g></svg>