<svg width="1771" height="1361" xmlns="http://www.w3.org/2000/svg" xmlns:xlink="http://www.w3.org/1999/xlink" xml:space="preserve" overflow="hidden"><g transform="translate(-1315 -755)"><path d="M1726.5 817.167C1726.5 807.962 1733.96 800.5 1743.17 800.5L1904.83 800.5C1914.04 800.5 1921.5 807.962 1921.5 817.167L1921.5 883.833C1921.5 893.038 1914.04 900.5 1904.83 900.5L1743.17 900.5C1733.96 900.5 1726.5 893.038 1726.5 883.833Z" stroke="#172C51" stroke-width="4.58333" stroke-miterlimit="8" fill="#00B0F0" fill-rule="evenodd" fill-opacity="0.501961"/><rect x="1317.5" y="1055.5" width="1766" height="864" stroke="#172C51" stroke-width="4.58333" stroke-miterlimit="8" fill="#4472C4" fill-opacity="0.701961"/><text font-family="Arial,Arial_MSFontService,sans-serif" font-weight="700" font-size="110" transform="matrix(1 0 0 1 2050.18 1528)">BERT</text><rect x="1678.5" y="1750.5" width="224" height="119" stroke="#BF9000" stroke-width="6.875" stroke-miterlimit="8" fill="#FFE699" fill-opacity="0.8"/><path d="M1752.63 1788.52 1781.85 1788.52 1781.85 1797.96 1778.79 1797.96C1778.47 1796.94 1778.15 1796.04 1777.82 1795.27 1777.48 1794.5 1777.14 1793.86 1776.79 1793.34 1776.43 1792.81 1776.04 1792.4 1775.61 1792.09 1775.19 1791.77 1774.68 1791.56 1774.1 1791.44 1773.51 1791.33 1772.82 1791.27 1772 1791.27L1762.13 1791.27 1762.13 1807.65 1768.82 1807.65C1769.73 1807.65 1770.45 1807.52 1770.97 1807.26 1771.49 1807 1771.93 1806.55 1772.27 1805.93 1772.61 1805.3 1772.94 1804.32 1773.25 1802.99L1776.19 1802.99 1776.19 1814.99 1773.25 1814.99C1772.96 1813.74 1772.64 1812.8 1772.29 1812.16 1771.93 1811.53 1771.51 1811.07 1771.02 1810.8 1770.53 1810.53 1769.8 1810.4 1768.82 1810.4L1762.13 1810.4 1762.13 1828.43 1771.85 1828.43C1772.87 1828.43 1773.7 1828.34 1774.33 1828.16 1774.97 1827.99 1775.51 1827.68 1775.97 1827.26 1776.43 1826.83 1776.84 1826.27 1777.19 1825.59 1777.55 1824.9 1777.84 1824.18 1778.08 1823.44 1778.32 1822.7 1778.65 1821.63 1779.07 1820.21L1782.16 1820.21 1781.57 1831.18 1752.63 1831.18 1752.63 1829.65C1753.92 1829.31 1754.79 1828.94 1755.22 1828.54 1755.66 1828.13 1755.95 1827.55 1756.08 1826.8 1756.22 1826.05 1756.29 1824.91 1756.29 1823.37L1756.29 1796.34C1756.29 1794.9 1756.23 1793.85 1756.13 1793.19 1756.02 1792.54 1755.85 1792.03 1755.61 1791.66 1755.37 1791.3 1755.06 1791.01 1754.66 1790.79 1754.26 1790.57 1753.59 1790.32 1752.63 1790.05Z" fill-rule="evenodd"/><text fill="#000000" fill-opacity="0" font-family="Arial,Arial_MSFontService,sans-serif" font-size="42.6562" x="1752.63" y="1825.85">E</text><path d="M1799.52 1814.71 1800.92 1814.71C1800.88 1815.55 1800.86 1816.3 1800.85 1816.97 1800.83 1817.63 1800.82 1818.28 1800.81 1818.91 1800.8 1819.53 1800.8 1820.15 1800.8 1820.76L1800.8 1838.21C1800.8 1838.68 1800.82 1839.09 1800.85 1839.43 1800.88 1839.78 1800.93 1840.07 1801 1840.31 1801.06 1840.54 1801.16 1840.75 1801.27 1840.91 1801.39 1841.08 1801.52 1841.23 1801.67 1841.35 1801.86 1841.53 1802.1 1841.67 1802.41 1841.77 1802.71 1841.87 1803.1 1841.96 1803.58 1842.03 1804.05 1842.1 1804.62 1842.15 1805.29 1842.19 1805.95 1842.23 1806.75 1842.25 1807.69 1842.27L1807.69 1844.26 1789.49 1844.26 1789.49 1842.27C1790.39 1842.24 1791.15 1842.2 1791.78 1842.16 1792.41 1842.13 1792.94 1842.07 1793.39 1842 1793.83 1841.93 1794.19 1841.86 1794.46 1841.77 1794.72 1841.69 1794.96 1841.59 1795.16 1841.46 1795.37 1841.33 1795.55 1841.18 1795.71 1841.02 1795.86 1840.86 1795.98 1840.65 1796.07 1840.41 1796.16 1840.16 1796.24 1839.87 1796.29 1839.51 1796.34 1839.16 1796.37 1838.73 1796.37 1838.21L1796.37 1821.75C1796.37 1821.15 1796.26 1820.73 1796.03 1820.49 1795.8 1820.24 1795.47 1820.12 1795.04 1820.12 1794.57 1820.12 1793.86 1820.37 1792.93 1820.86 1792 1821.35 1790.79 1822.07 1789.3 1823.04 1789.1 1822.68 1788.92 1822.33 1788.75 1821.98 1788.58 1821.63 1788.41 1821.27 1788.22 1820.9 1790.12 1819.86 1792 1818.83 1793.86 1817.79 1795.72 1816.76 1797.6 1815.73 1799.52 1814.71Z" fill-rule="evenodd"/><text fill="#000000" fill-opacity="0" font-family="Arial,Arial_MSFontService,sans-serif" font-size="29.5586" x="1788.22" y="1840.57">1</text><path d="M1396.33 1975.5 1574.67 1975.5 1597.5 1998.33 1597.5 2112.5 1597.5 2112.5 1373.5 2112.5 1373.5 2112.5 1373.5 1998.33Z" stroke="#172C51" stroke-width="4.58333" stroke-miterlimit="8" fill="#F18BD6" fill-rule="evenodd" fill-opacity="0.8"/><text font-family="Arial,Arial_MSFontService,sans-serif" font-weight="400" font-size="55" transform="matrix(1 0 0 1 1415.85 2070)">[CLS]</text><path d="M1701.33 1975.5 1879.67 1975.5 1902.5 1998.33 1902.5 2112.5 1902.5 2112.5 1678.5 2112.5 1678.5 2112.5 1678.5 1998.33Z" stroke="#172C51" stroke-width="4.58333" stroke-miterlimit="8" fill="#F18BD6" fill-rule="evenodd" fill-opacity="0.8"/><text font-family="Arial,Arial_MSFontService,sans-serif" font-weight="400" font-size="55" transform="matrix(1 0 0 1 1732.14 2070)">Tok1</text><path d="M2007.33 1975.5 2185.67 1975.5 2208.5 1998.33 2208.5 2112.5 2208.5 2112.5 1984.5 2112.5 1984.5 2112.5 1984.5 1998.33Z" stroke="#172C51" stroke-width="4.58333" stroke-miterlimit="8" fill="#F18BD6" fill-rule="evenodd" fill-opacity="0.8"/><text font-family="Arial,Arial_MSFontService,sans-serif" font-weight="400" font-size="55" transform="matrix(1 0 0 1 2037.65 2070)">Tok2</text><path d="M2826.33 1975.5 3004.67 1975.5 3027.5 1998.33 3027.5 2112.5 3027.5 2112.5 2803.5 2112.5 2803.5 2112.5 2803.5 1998.33Z" stroke="#172C51" stroke-width="4.58333" stroke-miterlimit="8" fill="#F18BD6" fill-rule="evenodd" fill-opacity="0.8"/><text font-family="Arial,Arial_MSFontService,sans-serif" font-weight="400" font-size="55" transform="matrix(1 0 0 1 2844.93 2070)">[SEP]</text><path d="M2521.33 1975.5 2699.67 1975.5 2722.5 1998.33 2722.5 2112.5 2722.5 2112.5 2498.5 2112.5 2498.5 2112.5 2498.5 1998.33Z" stroke="#172C51" stroke-width="4.58333" stroke-miterlimit="8" fill="#F18BD6" fill-rule="evenodd" fill-opacity="0.8"/><text font-family="Arial,Arial_MSFontService,sans-serif" font-weight="400" font-size="55" transform="matrix(1 0 0 1 2547.34 2070)">TokN</text><rect x="1984.5" y="1750.5" width="224" height="119" stroke="#BF9000" stroke-width="6.875" stroke-miterlimit="8" fill="#FFE699" fill-opacity="0.8"/><path d="M2057.4 1788.52 2086.61 1788.52 2086.61 1797.96 2083.55 1797.96C2083.24 1796.94 2082.92 1796.04 2082.58 1795.27 2082.25 1794.5 2081.91 1793.86 2081.55 1793.34 2081.2 1792.81 2080.81 1792.4 2080.38 1792.09 2079.95 1791.77 2079.45 1791.56 2078.86 1791.44 2078.28 1791.33 2077.58 1791.27 2076.77 1791.27L2066.9 1791.27 2066.9 1807.65 2073.58 1807.65C2074.5 1807.65 2075.22 1807.52 2075.74 1807.26 2076.26 1807 2076.69 1806.55 2077.04 1805.93 2077.38 1805.3 2077.71 1804.32 2078.02 1802.99L2080.96 1802.99 2080.96 1814.99 2078.02 1814.99C2077.73 1813.74 2077.41 1812.8 2077.05 1812.16 2076.7 1811.53 2076.28 1811.07 2075.79 1810.8 2075.3 1810.53 2074.56 1810.4 2073.58 1810.4L2066.9 1810.4 2066.9 1828.43 2076.61 1828.43C2077.63 1828.43 2078.46 1828.34 2079.1 1828.16 2079.73 1827.99 2080.28 1827.68 2080.74 1827.26 2081.2 1826.83 2081.6 1826.27 2081.96 1825.59 2082.31 1824.9 2082.61 1824.18 2082.85 1823.44 2083.09 1822.7 2083.42 1821.63 2083.83 1820.21L2086.93 1820.21 2086.33 1831.18 2057.4 1831.18 2057.4 1829.65C2058.69 1829.31 2059.55 1828.94 2059.99 1828.54 2060.43 1828.13 2060.71 1827.55 2060.85 1826.8 2060.98 1826.05 2061.05 1824.91 2061.05 1823.37L2061.05 1796.34C2061.05 1794.9 2061 1793.85 2060.9 1793.19 2060.79 1792.54 2060.62 1792.03 2060.38 1791.66 2060.14 1791.3 2059.82 1791.01 2059.43 1790.79 2059.03 1790.57 2058.35 1790.32 2057.4 1790.05Z" fill-rule="evenodd"/><text fill="#000000" fill-opacity="0" font-family="Arial,Arial_MSFontService,sans-serif" font-size="42.6562" x="2057.4" y="1825.85">E</text><path d="M2103.98 1814.55C2105.57 1814.55 2106.93 1814.72 2108.05 1815.08 2109.18 1815.44 2110.09 1815.93 2110.8 1816.54 2111.5 1817.15 2112.01 1817.89 2112.32 1818.74 2112.64 1819.6 2112.79 1820.53 2112.79 1821.52 2112.79 1822.12 2112.75 1822.67 2112.67 1823.19 2112.58 1823.7 2112.44 1824.2 2112.23 1824.7 2112.02 1825.2 2111.75 1825.7 2111.42 1826.2 2111.08 1826.71 2110.66 1827.24 2110.15 1827.81 2109.77 1828.3 2109.27 1828.87 2108.66 1829.51 2108.05 1830.15 2107.38 1830.84 2106.65 1831.57 2105.93 1832.31 2105.17 1833.07 2104.37 1833.87 2103.58 1834.66 2102.8 1835.45 2102.05 1836.23 2101.3 1837.01 2100.62 1837.77 2099.99 1838.5 2099.36 1839.24 2098.85 1839.91 2098.45 1840.52L2106.94 1840.52C2107.66 1840.52 2108.23 1840.5 2108.66 1840.44 2109.09 1840.39 2109.45 1840.27 2109.73 1840.09 2110.01 1839.9 2110.25 1839.62 2110.45 1839.25 2110.65 1838.88 2110.88 1838.36 2111.14 1837.7L2113.28 1837.7C2113.2 1838.79 2113.13 1839.88 2113.06 1840.98 2112.99 1842.08 2112.92 1843.18 2112.84 1844.26L2093.4 1844.26 2093.4 1843.07C2093.77 1842.24 2094.2 1841.43 2094.69 1840.63 2095.18 1839.82 2095.73 1839.01 2096.34 1838.18 2096.95 1837.36 2097.65 1836.5 2098.43 1835.62 2099.21 1834.74 2100.07 1833.83 2101.02 1832.88 2102.46 1831.44 2103.63 1830.22 2104.53 1829.2 2105.43 1828.18 2106.15 1827.27 2106.67 1826.48 2107.19 1825.68 2107.54 1824.95 2107.73 1824.28 2107.92 1823.6 2108.02 1822.88 2108.02 1822.12 2108.02 1821.34 2107.91 1820.62 2107.69 1819.96 2107.47 1819.3 2107.15 1818.74 2106.74 1818.29 2106.32 1817.83 2105.8 1817.47 2105.16 1817.21 2104.53 1816.95 2103.8 1816.82 2102.97 1816.82 2101.55 1816.82 2100.36 1817.2 2099.39 1817.98 2098.43 1818.75 2097.68 1819.87 2097.14 1821.34L2094.14 1821.34 2094.14 1816.86C2096.09 1816.05 2097.9 1815.46 2099.54 1815.1 2101.19 1814.73 2102.67 1814.55 2103.98 1814.55Z" fill-rule="evenodd"/><text fill="#000000" fill-opacity="0" font-family="Arial,Arial_MSFontService,sans-serif" font-size="29.7192" x="2093.4" y="1840.55">2</text><rect x="1373.5" y="1750.5" width="224" height="119" stroke="#BF9000" stroke-width="6.875" stroke-miterlimit="8" fill="#FFE699" fill-opacity="0.8"/><path d="M1401.4 1785.76 1430.62 1785.76 1430.62 1795.2 1427.56 1795.2C1427.24 1794.18 1426.92 1793.28 1426.59 1792.51 1426.25 1791.74 1425.91 1791.09 1425.56 1790.57 1425.2 1790.05 1424.81 1789.64 1424.38 1789.32 1423.96 1789.01 1423.45 1788.8 1422.87 1788.68 1422.28 1788.57 1421.59 1788.51 1420.77 1788.51L1410.9 1788.51 1410.9 1804.89 1417.59 1804.89C1418.5 1804.89 1419.22 1804.76 1419.74 1804.5 1420.26 1804.23 1420.7 1803.79 1421.04 1803.17 1421.38 1802.54 1421.71 1801.56 1422.02 1800.23L1424.96 1800.23 1424.96 1812.23 1422.02 1812.23C1421.73 1810.98 1421.41 1810.04 1421.06 1809.4 1420.7 1808.77 1420.28 1808.31 1419.79 1808.04 1419.3 1807.77 1418.57 1807.64 1417.59 1807.64L1410.9 1807.64 1410.9 1825.67 1420.62 1825.67C1421.64 1825.67 1422.47 1825.58 1423.1 1825.4 1423.74 1825.22 1424.28 1824.92 1424.74 1824.5 1425.2 1824.07 1425.61 1823.51 1425.96 1822.82 1426.32 1822.14 1426.61 1821.42 1426.85 1820.68 1427.09 1819.94 1427.42 1818.86 1427.84 1817.45L1430.93 1817.45 1430.34 1828.42 1401.4 1828.42 1401.4 1826.89C1402.69 1826.55 1403.56 1826.18 1403.99 1825.78 1404.43 1825.37 1404.72 1824.79 1404.85 1824.04 1404.99 1823.29 1405.06 1822.15 1405.06 1820.6L1405.06 1793.57C1405.06 1792.14 1405 1791.09 1404.9 1790.43 1404.8 1789.78 1404.62 1789.27 1404.38 1788.9 1404.14 1788.54 1403.83 1788.25 1403.43 1788.03 1403.03 1787.81 1402.36 1787.56 1401.4 1787.29Z" fill-rule="evenodd"/><text fill="#000000" fill-opacity="0" font-family="Arial,Arial_MSFontService,sans-serif" font-size="42.6562" x="1401.4" y="1823.08">E</text><path d="M1439.52 1808.25 1449.75 1808.25 1449.75 1810.02 1443.33 1810.02 1443.33 1850.25 1449.75 1850.25 1449.75 1852.01 1439.52 1852.01Z" fill-rule="evenodd"/><text fill="#000000" fill-opacity="0" font-family="Arial,Arial_MSFontService,sans-serif" font-size="43.7642" x="1439.52" y="1846.54">[</text><path d="M1483.07 1810.18 1493.9 1810.18 1493.9 1811.69C1493.22 1811.88 1492.69 1812.02 1492.29 1812.14 1491.89 1812.25 1491.59 1812.44 1491.39 1812.69 1491.18 1812.94 1491.05 1813.32 1491 1813.81 1490.94 1814.31 1490.91 1815.05 1490.91 1816.03L1490.91 1838.93 1497.43 1838.93C1498.03 1838.93 1498.56 1838.92 1499.04 1838.89 1499.51 1838.86 1499.94 1838.77 1500.31 1838.63 1500.69 1838.5 1501.02 1838.28 1501.31 1837.98 1501.6 1837.68 1501.87 1837.27 1502.13 1836.75 1502.38 1836.23 1502.62 1835.57 1502.84 1834.78 1503.06 1833.98 1503.29 1833.01 1503.54 1831.86L1506.29 1831.86C1506.21 1833.45 1506.13 1835.06 1506.03 1836.68 1505.93 1838.3 1505.84 1839.91 1505.76 1841.5L1483.07 1841.5 1483.07 1840.03C1483.8 1839.8 1484.37 1839.62 1484.76 1839.47 1485.16 1839.33 1485.45 1839.12 1485.64 1838.85 1485.82 1838.58 1485.92 1838.21 1485.95 1837.73 1485.97 1837.25 1485.98 1836.55 1485.98 1835.65L1485.98 1816.03C1485.98 1815.1 1485.96 1814.39 1485.92 1813.91 1485.89 1813.42 1485.77 1813.06 1485.59 1812.8 1485.41 1812.55 1485.12 1812.36 1484.73 1812.23 1484.34 1812.1 1483.79 1811.92 1483.07 1811.69ZM1522.47 1809.72C1523.11 1809.72 1523.72 1809.73 1524.3 1809.75 1524.87 1809.78 1525.47 1809.82 1526.11 1809.89 1526.74 1809.96 1527.44 1810.07 1528.19 1810.22 1528.94 1810.38 1529.8 1810.57 1530.78 1810.82L1530.78 1817.36 1528.12 1817.36C1527.86 1816.33 1527.54 1815.49 1527.17 1814.82 1526.79 1814.16 1526.35 1813.63 1525.83 1813.24 1525.32 1812.85 1524.72 1812.57 1524.04 1812.41 1523.36 1812.25 1522.59 1812.17 1521.71 1812.17 1520.89 1812.17 1520.13 1812.28 1519.44 1812.49 1518.75 1812.71 1518.16 1813.01 1517.65 1813.41 1517.15 1813.81 1516.76 1814.3 1516.48 1814.87 1516.21 1815.44 1516.07 1816.08 1516.07 1816.79 1516.1 1817.52 1516.21 1818.16 1516.4 1818.71 1516.59 1819.26 1516.93 1819.79 1517.41 1820.29 1517.89 1820.78 1518.56 1821.28 1519.41 1821.78 1520.26 1822.27 1521.36 1822.84 1522.7 1823.49 1524.23 1824.19 1525.55 1824.87 1526.65 1825.52 1527.75 1826.17 1528.65 1826.85 1529.36 1827.57 1530.06 1828.29 1530.58 1829.09 1530.91 1829.97 1531.23 1830.85 1531.4 1831.87 1531.4 1833.03 1531.4 1834.58 1531.15 1835.92 1530.64 1837.05 1530.14 1838.18 1529.4 1839.12 1528.44 1839.85 1527.47 1840.58 1526.3 1841.13 1524.92 1841.49 1523.53 1841.85 1521.97 1842.03 1520.22 1842.03 1518.88 1842.03 1517.45 1841.92 1515.95 1841.69 1514.45 1841.46 1512.83 1841.13 1511.07 1840.7L1511.07 1834.04 1513.8 1834.04C1514.03 1835.04 1514.32 1835.88 1514.68 1836.58 1515.04 1837.28 1515.5 1837.84 1516.05 1838.28 1516.6 1838.71 1517.25 1839.03 1518.02 1839.22 1518.78 1839.41 1519.69 1839.51 1520.73 1839.51 1522.64 1839.51 1524.11 1839.06 1525.12 1838.17 1526.14 1837.29 1526.65 1836.01 1526.65 1834.34 1526.62 1833.58 1526.5 1832.9 1526.3 1832.32 1526.11 1831.74 1525.75 1831.19 1525.23 1830.66 1524.71 1830.13 1523.98 1829.59 1523.06 1829.04 1522.13 1828.49 1520.91 1827.86 1519.4 1827.14 1518.1 1826.57 1516.95 1825.99 1515.97 1825.39 1514.98 1824.8 1514.15 1824.15 1513.48 1823.44 1512.8 1822.74 1512.29 1821.97 1511.95 1821.14 1511.61 1820.3 1511.43 1819.36 1511.43 1818.3 1511.43 1816.86 1511.71 1815.61 1512.27 1814.54 1512.83 1813.47 1513.6 1812.57 1514.59 1811.86 1515.58 1811.15 1516.74 1810.62 1518.09 1810.26 1519.43 1809.9 1520.9 1809.72 1522.47 1809.72ZM1468.75 1809.72C1469.55 1809.72 1470.3 1809.74 1471.01 1809.78 1471.73 1809.81 1472.43 1809.88 1473.11 1809.97 1473.8 1810.06 1474.5 1810.18 1475.2 1810.33 1475.91 1810.47 1476.65 1810.65 1477.43 1810.87L1477.43 1817.57 1474.81 1817.57C1474.54 1816.63 1474.21 1815.83 1473.83 1815.15 1473.44 1814.46 1472.99 1813.9 1472.46 1813.46 1471.93 1813.01 1471.32 1812.69 1470.62 1812.48 1469.93 1812.28 1469.13 1812.17 1468.23 1812.17 1466.96 1812.17 1465.79 1812.46 1464.71 1813.05 1463.64 1813.63 1462.72 1814.49 1461.94 1815.64 1461.16 1816.79 1460.55 1818.21 1460.11 1819.9 1459.68 1821.59 1459.46 1823.54 1459.46 1825.76 1459.46 1827.96 1459.64 1829.92 1460 1831.63 1460.36 1833.35 1460.88 1834.79 1461.57 1835.95 1462.26 1837.11 1463.11 1837.99 1464.13 1838.6 1465.15 1839.2 1466.32 1839.51 1467.65 1839.51 1468.68 1839.51 1469.56 1839.42 1470.29 1839.24 1471.03 1839.07 1471.67 1838.76 1472.22 1838.34 1472.77 1837.91 1473.25 1837.33 1473.65 1836.6 1474.06 1835.88 1474.45 1834.96 1474.81 1833.86L1477.43 1833.86 1477.43 1840.75C1476.66 1840.94 1475.89 1841.12 1475.11 1841.28 1474.33 1841.45 1473.52 1841.58 1472.68 1841.69 1471.84 1841.79 1470.96 1841.88 1470.05 1841.94 1469.14 1842 1468.16 1842.03 1467.12 1842.03 1462.87 1842.03 1459.65 1840.7 1457.45 1838.05 1455.26 1835.39 1454.16 1831.42 1454.16 1826.13 1454.16 1823.66 1454.48 1821.42 1455.13 1819.4 1455.78 1817.38 1456.73 1815.66 1457.98 1814.23 1459.23 1812.8 1460.76 1811.69 1462.57 1810.9 1464.38 1810.11 1466.44 1809.72 1468.75 1809.72Z" fill-rule="evenodd"/><text fill="#000000" fill-opacity="0" font-family="Arial,Arial_MSFontService,sans-serif" font-size="32.3125" x="1454.16" y="1837.99">CLS</text><path d="M1535.53 1808.25 1545.77 1808.25 1545.77 1852.01 1535.53 1852.01 1535.53 1850.25 1541.96 1850.25 1541.96 1810.02 1535.53 1810.02Z" fill-rule="evenodd"/><text fill="#000000" fill-opacity="0" font-family="Arial,Arial_MSFontService,sans-serif" font-size="43.7642" x="1535.53" y="1846.54">]</text><rect x="2498.5" y="1750.5" width="224" height="119" stroke="#BF9000" stroke-width="6.875" stroke-miterlimit="8" fill="#FFE699" fill-opacity="0.8"/><path d="M2567.37 1788.52 2596.59 1788.52 2596.59 1797.96 2593.52 1797.96C2593.21 1796.94 2592.89 1796.04 2592.56 1795.27 2592.22 1794.5 2591.88 1793.86 2591.52 1793.33 2591.17 1792.81 2590.78 1792.4 2590.35 1792.08 2589.93 1791.77 2589.42 1791.56 2588.84 1791.44 2588.25 1791.33 2587.56 1791.27 2586.74 1791.27L2576.87 1791.27 2576.87 1807.65 2583.56 1807.65C2584.47 1807.65 2585.19 1807.52 2585.71 1807.26 2586.23 1807 2586.67 1806.55 2587.01 1805.93 2587.35 1805.3 2587.68 1804.32 2587.99 1802.99L2590.93 1802.99 2590.93 1814.99 2587.99 1814.99C2587.7 1813.74 2587.38 1812.8 2587.02 1812.16 2586.67 1811.53 2586.25 1811.07 2585.76 1810.8 2585.27 1810.53 2584.54 1810.4 2583.56 1810.4L2576.87 1810.4 2576.87 1828.43 2586.59 1828.43C2587.61 1828.43 2588.44 1828.34 2589.07 1828.16 2589.71 1827.99 2590.25 1827.68 2590.71 1827.26 2591.17 1826.83 2591.58 1826.27 2591.93 1825.58 2592.29 1824.9 2592.58 1824.18 2592.82 1823.44 2593.06 1822.7 2593.39 1821.63 2593.81 1820.21L2596.9 1820.21 2596.31 1831.18 2567.37 1831.18 2567.37 1829.65C2568.66 1829.31 2569.52 1828.94 2569.96 1828.54 2570.4 1828.13 2570.69 1827.55 2570.82 1826.8 2570.96 1826.05 2571.02 1824.91 2571.02 1823.37L2571.02 1796.33C2571.02 1794.9 2570.97 1793.85 2570.87 1793.19 2570.76 1792.54 2570.59 1792.03 2570.35 1791.66 2570.11 1791.3 2569.8 1791.01 2569.4 1790.79 2569 1790.57 2568.33 1790.32 2567.37 1790.05Z" fill-rule="evenodd"/><text fill="#000000" fill-opacity="0" font-family="Arial,Arial_MSFontService,sans-serif" font-size="42.6562" x="2567.37" y="1825.85">E</text><path d="M2603.38 1812.94 2611.55 1812.94 2623.66 1831.57C2623.91 1831.94 2624.13 1832.26 2624.32 1832.54 2624.51 1832.81 2624.7 1833.11 2624.88 1833.42 2625.06 1833.73 2625.26 1834.1 2625.49 1834.53 2625.71 1834.96 2625.98 1835.5 2626.3 1836.16L2626.65 1836.16C2626.62 1835.87 2626.59 1835.44 2626.57 1834.87 2626.54 1834.29 2626.52 1833.63 2626.5 1832.87 2626.47 1832.11 2626.45 1831.3 2626.43 1830.44 2626.4 1829.57 2626.38 1828.71 2626.36 1827.85 2626.34 1827 2626.32 1826.18 2626.31 1825.39 2626.31 1824.6 2626.3 1823.91 2626.3 1823.31L2626.3 1818.79C2626.27 1817.99 2626.24 1817.36 2626.22 1816.89 2626.2 1816.41 2626.1 1816.02 2625.93 1815.73 2625.77 1815.43 2625.5 1815.19 2625.13 1815 2624.76 1814.82 2624.23 1814.64 2623.52 1814.45L2623.52 1812.94 2632.73 1812.94 2632.73 1814.45C2632.13 1814.59 2631.64 1814.71 2631.26 1814.81 2630.88 1814.91 2630.58 1815.09 2630.36 1815.36 2630.15 1815.63 2630 1816.02 2629.92 1816.54 2629.83 1817.06 2629.79 1817.81 2629.79 1818.79L2629.79 1844.4 2626.3 1844.4 2612.65 1823.36C2612.26 1822.78 2611.93 1822.26 2611.65 1821.82 2611.37 1821.38 2611.12 1820.97 2610.9 1820.61 2610.69 1820.25 2610.5 1819.93 2610.33 1819.63 2610.16 1819.33 2610 1819.03 2609.85 1818.74L2609.46 1818.74C2609.5 1819.43 2609.55 1820.31 2609.59 1821.38 2609.64 1822.45 2609.68 1823.64 2609.71 1824.95 2609.74 1826.26 2609.76 1827.65 2609.78 1829.13 2609.79 1830.6 2609.8 1832.1 2609.8 1833.62L2609.8 1838.41C2609.8 1839.31 2609.82 1840.01 2609.86 1840.5 2609.9 1840.99 2610.01 1841.37 2610.2 1841.64 2610.39 1841.9 2610.68 1842.11 2611.07 1842.26 2611.46 1842.4 2612.02 1842.58 2612.74 1842.79L2612.74 1844.26 2603.38 1844.26 2603.38 1842.79C2604.11 1842.57 2604.68 1842.38 2605.08 1842.23 2605.49 1842.09 2605.78 1841.88 2605.97 1841.61 2606.15 1841.35 2606.26 1840.97 2606.29 1840.49 2606.32 1840.01 2606.34 1839.31 2606.34 1838.41L2606.34 1818.79C2606.34 1817.86 2606.32 1817.15 2606.28 1816.67 2606.24 1816.19 2606.13 1815.82 2605.93 1815.57 2605.74 1815.31 2605.45 1815.12 2605.05 1814.99 2604.65 1814.86 2604.09 1814.68 2603.38 1814.45Z" fill-rule="evenodd"/><text fill="#000000" fill-opacity="0" font-family="Arial,Arial_MSFontService,sans-serif" font-size="31.4634" x="2603.38" y="1840.47">N</text><rect x="2803.5" y="1750.5" width="224" height="119" stroke="#BF9000" stroke-width="6.875" stroke-miterlimit="8" fill="#FFE699" fill-opacity="0.8"/><path d="M2831.06 1785.76 2860.28 1785.76 2860.28 1795.2 2857.21 1795.2C2856.9 1794.18 2856.58 1793.28 2856.24 1792.51 2855.91 1791.74 2855.57 1791.09 2855.21 1790.57 2854.86 1790.05 2854.47 1789.64 2854.04 1789.32 2853.61 1789.01 2853.11 1788.8 2852.53 1788.68 2851.94 1788.57 2851.24 1788.51 2850.43 1788.51L2840.56 1788.51 2840.56 1804.89 2847.24 1804.89C2848.16 1804.89 2848.88 1804.75 2849.4 1804.49 2849.92 1804.23 2850.35 1803.79 2850.7 1803.17 2851.04 1802.54 2851.37 1801.56 2851.68 1800.23L2854.62 1800.23 2854.62 1812.23 2851.68 1812.23C2851.39 1810.98 2851.07 1810.04 2850.71 1809.4 2850.36 1808.77 2849.94 1808.31 2849.45 1808.04 2848.96 1807.77 2848.22 1807.64 2847.24 1807.64L2840.56 1807.64 2840.56 1825.67 2850.28 1825.67C2851.3 1825.67 2852.12 1825.58 2852.76 1825.4 2853.4 1825.22 2853.94 1824.92 2854.4 1824.49 2854.86 1824.07 2855.26 1823.51 2855.62 1822.82 2855.97 1822.14 2856.27 1821.42 2856.51 1820.68 2856.75 1819.94 2857.08 1818.86 2857.49 1817.45L2860.59 1817.45 2859.99 1828.42 2831.06 1828.42 2831.06 1826.89C2832.35 1826.55 2833.21 1826.18 2833.65 1825.78 2834.09 1825.37 2834.37 1824.79 2834.51 1824.04 2834.65 1823.29 2834.71 1822.15 2834.71 1820.6L2834.71 1793.57C2834.71 1792.14 2834.66 1791.09 2834.56 1790.43 2834.45 1789.78 2834.28 1789.27 2834.04 1788.9 2833.8 1788.54 2833.48 1788.24 2833.09 1788.03 2832.69 1787.81 2832.01 1787.56 2831.06 1787.29Z" fill-rule="evenodd"/><text fill="#000000" fill-opacity="0" font-family="Arial,Arial_MSFontService,sans-serif" font-size="42.6562" x="2831.06" y="1823.08">E</text><path d="M2869.17 1808.25 2879.41 1808.25 2879.41 1810.02 2872.98 1810.02 2872.98 1850.25 2879.41 1850.25 2879.41 1852.01 2869.17 1852.01Z" fill-rule="evenodd"/><text fill="#000000" fill-opacity="0" font-family="Arial,Arial_MSFontService,sans-serif" font-size="43.7642" x="2869.17" y="1846.54">[</text><path d="M2951.31 1812.72C2950.58 1812.72 2949.9 1812.73 2949.28 1812.75 2948.66 1812.76 2948.09 1812.78 2947.57 1812.82L2947.57 1825.9 2950.42 1825.9C2951.84 1825.9 2953.07 1825.77 2954.11 1825.53 2955.15 1825.28 2956.01 1824.89 2956.68 1824.36 2957.36 1823.82 2957.86 1823.13 2958.19 1822.28 2958.52 1821.43 2958.68 1820.4 2958.68 1819.2 2958.68 1816.93 2958.04 1815.29 2956.77 1814.26 2955.51 1813.24 2953.68 1812.72 2951.31 1812.72ZM2939.72 1810.18 2952.28 1810.18C2956.21 1810.18 2959.14 1810.87 2961.07 1812.26 2962.99 1813.66 2963.96 1815.78 2963.96 1818.64 2963.96 1820.31 2963.63 1821.77 2962.98 1823 2962.33 1824.24 2961.45 1825.27 2960.34 1826.09 2959.23 1826.91 2957.94 1827.52 2956.47 1827.92 2954.99 1828.31 2953.43 1828.5 2951.79 1828.47L2951.18 1828.47C2950.49 1828.47 2949.84 1828.46 2949.22 1828.46 2948.61 1828.45 2948.06 1828.42 2947.57 1828.37L2947.57 1835.6C2947.59 1836.38 2947.63 1837.02 2947.69 1837.51 2947.75 1838 2947.89 1838.4 2948.12 1838.72 2948.35 1839.05 2948.69 1839.3 2949.14 1839.49 2949.6 1839.68 2950.21 1839.86 2950.99 1840.03L2950.99 1841.5 2939.72 1841.5 2939.72 1840.03C2940.46 1839.8 2941.02 1839.62 2941.42 1839.47 2941.82 1839.33 2942.11 1839.12 2942.29 1838.85 2942.48 1838.58 2942.58 1838.21 2942.6 1837.73 2942.63 1837.24 2942.64 1836.55 2942.64 1835.65L2942.64 1816.03C2942.64 1815.09 2942.62 1814.39 2942.58 1813.91 2942.54 1813.42 2942.43 1813.06 2942.25 1812.8 2942.06 1812.55 2941.78 1812.36 2941.39 1812.23 2941 1812.1 2940.44 1811.92 2939.72 1811.69ZM2909.72 1810.18 2933.34 1810.18 2933.34 1817.61 2930.7 1817.61C2930.33 1816.6 2930 1815.78 2929.71 1815.14 2929.42 1814.51 2929.09 1814.01 2928.73 1813.65 2928.36 1813.29 2927.92 1813.05 2927.41 1812.92 2926.89 1812.79 2926.22 1812.72 2925.4 1812.72L2917.57 1812.72 2917.57 1823.95 2922.9 1823.95C2923.42 1823.95 2923.86 1823.89 2924.22 1823.78 2924.58 1823.68 2924.88 1823.5 2925.12 1823.25 2925.37 1822.99 2925.58 1822.65 2925.75 1822.21 2925.93 1821.78 2926.09 1821.24 2926.25 1820.59L2928.84 1820.59 2928.84 1829.84 2926.25 1829.84C2926.09 1829.17 2925.93 1828.62 2925.75 1828.18 2925.58 1827.74 2925.36 1827.4 2925.11 1827.15 2924.86 1826.89 2924.55 1826.72 2924.19 1826.63 2923.83 1826.54 2923.4 1826.49 2922.9 1826.49L2917.57 1826.49 2917.57 1839.02 2925.26 1839.02C2926.16 1839.02 2926.91 1838.95 2927.49 1838.79 2928.07 1838.64 2928.56 1838.34 2928.96 1837.9 2929.35 1837.45 2929.7 1836.84 2929.99 1836.06 2930.28 1835.28 2930.59 1834.26 2930.93 1832.99L2933.61 1832.99C2933.52 1834.41 2933.43 1835.83 2933.34 1837.26 2933.25 1838.68 2933.16 1840.09 2933.09 1841.5L2909.72 1841.5 2909.72 1840.03C2910.46 1839.8 2911.02 1839.62 2911.42 1839.47 2911.82 1839.33 2912.11 1839.12 2912.29 1838.85 2912.48 1838.58 2912.58 1838.21 2912.6 1837.73 2912.63 1837.24 2912.64 1836.55 2912.64 1835.65L2912.64 1816.07C2912.62 1815.28 2912.6 1814.64 2912.57 1814.16 2912.54 1813.68 2912.44 1813.29 2912.26 1813 2912.08 1812.71 2911.8 1812.47 2911.41 1812.29 2911.02 1812.1 2910.46 1811.9 2909.72 1811.69ZM2895.13 1809.72C2895.77 1809.72 2896.38 1809.73 2896.95 1809.75 2897.53 1809.77 2898.13 1809.82 2898.77 1809.89 2899.4 1809.96 2900.09 1810.07 2900.84 1810.22 2901.59 1810.37 2902.46 1810.57 2903.44 1810.82L2903.44 1817.36 2900.77 1817.36C2900.51 1816.33 2900.2 1815.49 2899.82 1814.82 2899.45 1814.16 2899 1813.63 2898.49 1813.24 2897.98 1812.85 2897.38 1812.57 2896.7 1812.41 2896.02 1812.25 2895.24 1812.17 2894.37 1812.17 2893.55 1812.17 2892.79 1812.28 2892.1 1812.49 2891.41 1812.71 2890.81 1813.01 2890.31 1813.41 2889.81 1813.81 2889.42 1814.3 2889.14 1814.87 2888.86 1815.44 2888.73 1816.08 2888.73 1816.79 2888.76 1817.52 2888.87 1818.16 2889.06 1818.71 2889.25 1819.26 2889.59 1819.79 2890.07 1820.29 2890.55 1820.78 2891.22 1821.28 2892.07 1821.78 2892.91 1822.27 2894.01 1822.84 2895.36 1823.49 2896.89 1824.19 2898.2 1824.87 2899.31 1825.52 2900.41 1826.17 2901.31 1826.85 2902.01 1827.57 2902.72 1828.29 2903.23 1829.09 2903.56 1829.97 2903.89 1830.85 2904.06 1831.87 2904.06 1833.03 2904.06 1834.58 2903.8 1835.92 2903.3 1837.05 2902.79 1838.18 2902.06 1839.11 2901.1 1839.85 2900.13 1840.58 2898.96 1841.13 2897.57 1841.49 2896.19 1841.85 2894.62 1842.03 2892.88 1842.03 2891.53 1842.03 2890.11 1841.91 2888.61 1841.69 2887.11 1841.46 2885.48 1841.13 2883.72 1840.7L2883.72 1834.04 2886.45 1834.04C2886.68 1835.04 2886.98 1835.88 2887.34 1836.58 2887.7 1837.28 2888.15 1837.84 2888.7 1838.28 2889.25 1838.71 2889.91 1839.03 2890.68 1839.22 2891.44 1839.41 2892.34 1839.51 2893.39 1839.51 2895.3 1839.51 2896.76 1839.06 2897.78 1838.17 2898.8 1837.29 2899.31 1836.01 2899.31 1834.34 2899.28 1833.58 2899.16 1832.9 2898.96 1832.32 2898.76 1831.74 2898.4 1831.19 2897.88 1830.66 2897.36 1830.13 2896.64 1829.59 2895.71 1829.04 2894.79 1828.49 2893.57 1827.85 2892.05 1827.14 2890.75 1826.57 2889.61 1825.99 2888.62 1825.39 2887.64 1824.79 2886.81 1824.14 2886.13 1823.44 2885.46 1822.74 2884.95 1821.97 2884.61 1821.13 2884.26 1820.3 2884.09 1819.36 2884.09 1818.3 2884.09 1816.86 2884.37 1815.61 2884.93 1814.54 2885.49 1813.47 2886.26 1812.57 2887.25 1811.86 2888.23 1811.15 2889.4 1810.62 2890.75 1810.26 2892.09 1809.9 2893.55 1809.72 2895.13 1809.72Z" fill-rule="evenodd"/><text fill="#000000" fill-opacity="0" font-family="Arial,Arial_MSFontService,sans-serif" font-size="32.3125" x="2883.72" y="1837.99">SEP</text><path d="M2967.48 1808.25 2977.72 1808.25 2977.72 1852.01 2967.48 1852.01 2967.48 1850.25 2973.91 1850.25 2973.91 1810.02 2967.48 1810.02Z" fill-rule="evenodd"/><text fill="#000000" fill-opacity="0" font-family="Arial,Arial_MSFontService,sans-serif" font-size="43.7642" x="2967.48" y="1846.54">]</text><path d="M1678.5 1137.23C1678.5 1122.47 1690.47 1110.5 1705.23 1110.5L1875.77 1110.5C1890.53 1110.5 1902.5 1122.47 1902.5 1137.23L1902.5 1202.77C1902.5 1217.53 1890.53 1229.5 1875.77 1229.5L1705.23 1229.5C1690.47 1229.5 1678.5 1217.53 1678.5 1202.77Z" stroke="#172C51" stroke-width="4.58333" stroke-miterlimit="8" fill="#C5E0B4" fill-rule="evenodd" fill-opacity="0.901961"/><path d="M1755.97 1148.59 1788.59 1148.59 1786.16 1159.59 1783.16 1159.59C1783.16 1157.56 1783.1 1156.05 1783 1155.04 1782.9 1154.03 1782.7 1153.26 1782.41 1152.73 1782.11 1152.19 1781.75 1151.83 1781.33 1151.63 1780.9 1151.43 1780.15 1151.34 1779.06 1151.34L1774.44 1151.34 1767.66 1182.15C1767.47 1182.96 1767.34 1183.61 1767.27 1184.09 1767.19 1184.56 1767.13 1185.07 1767.08 1185.6 1767.03 1186.13 1767 1186.61 1767 1187.02 1767 1187.67 1767.1 1188.17 1767.31 1188.54 1767.52 1188.9 1767.83 1189.17 1768.25 1189.34 1768.67 1189.5 1769.39 1189.63 1770.41 1189.71L1770.06 1191.24 1756.91 1191.24 1757.25 1189.71C1758.08 1189.59 1758.7 1189.42 1759.09 1189.21 1759.49 1189 1759.84 1188.68 1760.14 1188.24 1760.44 1187.8 1760.74 1187.12 1761.05 1186.18 1761.35 1185.24 1761.71 1183.82 1762.12 1181.93L1768.81 1151.34 1764.84 1151.34C1763.55 1151.34 1762.52 1151.52 1761.75 1151.9 1760.98 1152.27 1760.21 1152.97 1759.44 1153.99 1758.67 1155.01 1757.73 1156.72 1756.62 1159.12L1753.62 1159.12Z" fill-rule="evenodd"/><text fill="#000000" fill-opacity="0" font-family="Arial,Arial_MSFontService,sans-serif" font-size="42.6562" x="1753.62" y="1185.91">𝑇</text><path d="M1796.93 1174.77 1798.33 1174.77C1798.3 1175.61 1798.27 1176.36 1798.26 1177.03 1798.24 1177.69 1798.23 1178.34 1798.22 1178.97 1798.21 1179.6 1798.21 1180.21 1798.21 1180.83L1798.21 1198.27C1798.21 1198.74 1798.23 1199.15 1798.26 1199.5 1798.29 1199.84 1798.34 1200.13 1798.41 1200.37 1798.47 1200.61 1798.57 1200.81 1798.68 1200.98 1798.8 1201.14 1798.93 1201.29 1799.08 1201.41 1799.27 1201.6 1799.51 1201.74 1799.82 1201.84 1800.12 1201.94 1800.51 1202.02 1800.99 1202.09 1801.46 1202.16 1802.03 1202.21 1802.7 1202.25 1803.36 1202.29 1804.16 1202.32 1805.1 1202.33L1805.1 1204.33 1786.9 1204.33 1786.9 1202.33C1787.8 1202.3 1788.56 1202.27 1789.19 1202.23 1789.82 1202.19 1790.35 1202.14 1790.8 1202.07 1791.24 1202 1791.6 1201.92 1791.87 1201.84 1792.13 1201.75 1792.37 1201.65 1792.57 1201.53 1792.78 1201.39 1792.96 1201.24 1793.12 1201.08 1793.27 1200.92 1793.39 1200.72 1793.48 1200.47 1793.58 1200.23 1793.65 1199.93 1793.7 1199.58 1793.76 1199.22 1793.78 1198.79 1793.78 1198.27L1793.78 1181.81C1793.78 1181.22 1793.67 1180.8 1793.44 1180.55 1793.21 1180.31 1792.88 1180.18 1792.45 1180.18 1791.98 1180.18 1791.27 1180.43 1790.34 1180.92 1789.41 1181.41 1788.2 1182.14 1786.71 1183.1 1786.51 1182.75 1786.33 1182.4 1786.16 1182.04 1785.99 1181.69 1785.82 1181.33 1785.63 1180.96 1787.53 1179.92 1789.41 1178.89 1791.27 1177.85 1793.13 1176.82 1795.01 1175.79 1796.93 1174.77Z" fill-rule="evenodd"/><text fill="#000000" fill-opacity="0" font-family="Arial,Arial_MSFontService,sans-serif" font-size="29.5586" x="1785.63" y="1200.63">1</text><path d="M1373.5 1137.23C1373.5 1122.47 1385.47 1110.5 1400.23 1110.5L1570.77 1110.5C1585.53 1110.5 1597.5 1122.47 1597.5 1137.23L1597.5 1202.77C1597.5 1217.53 1585.53 1229.5 1570.77 1229.5L1400.23 1229.5C1385.47 1229.5 1373.5 1217.53 1373.5 1202.77Z" stroke="#172C51" stroke-width="4.58333" stroke-miterlimit="8" fill="#C5E0B4" fill-rule="evenodd" fill-opacity="0.901961"/><path d="M1406 1145.82 1438.62 1145.82 1436.19 1156.82 1433.19 1156.82C1433.19 1154.8 1433.13 1153.29 1433.03 1152.28 1432.93 1151.27 1432.73 1150.5 1432.44 1149.96 1432.15 1149.43 1431.79 1149.07 1431.36 1148.87 1430.93 1148.67 1430.18 1148.57 1429.09 1148.57L1424.47 1148.57 1417.69 1179.39C1417.5 1180.2 1417.37 1180.84 1417.3 1181.32 1417.22 1181.8 1417.16 1182.31 1417.11 1182.84 1417.06 1183.37 1417.03 1183.84 1417.03 1184.26 1417.03 1184.91 1417.13 1185.41 1417.34 1185.78 1417.55 1186.14 1417.86 1186.41 1418.28 1186.57 1418.7 1186.74 1419.42 1186.87 1420.44 1186.95L1420.09 1188.48 1406.94 1188.48 1407.28 1186.95C1408.11 1186.82 1408.73 1186.66 1409.12 1186.45 1409.52 1186.24 1409.87 1185.92 1410.17 1185.48 1410.47 1185.04 1410.78 1184.35 1411.08 1183.42 1411.38 1182.48 1411.74 1181.06 1412.16 1179.17L1418.84 1148.57 1414.87 1148.57C1413.58 1148.57 1412.55 1148.76 1411.78 1149.14 1411.01 1149.51 1410.24 1150.21 1409.47 1151.23 1408.7 1152.25 1407.76 1153.96 1406.66 1156.35L1403.66 1156.35Z" fill-rule="evenodd"/><text fill="#000000" fill-opacity="0" font-family="Arial,Arial_MSFontService,sans-serif" font-size="42.6562" x="1403.66" y="1183.15">𝑇</text><path d="M1438.19 1168.31 1448.42 1168.31 1448.42 1170.08 1442 1170.08 1442 1210.31 1448.42 1210.31 1448.42 1212.08 1438.19 1212.08Z" fill-rule="evenodd"/><text fill="#000000" fill-opacity="0" font-family="Arial,Arial_MSFontService,sans-serif" font-size="43.7642" x="1438.19" y="1206.61">[</text><path d="M1485.75 1171.8 1495.44 1171.8 1495.19 1173.18C1494.65 1173.31 1494.23 1173.43 1493.91 1173.53 1493.6 1173.63 1493.33 1173.84 1493.11 1174.16 1492.89 1174.49 1492.69 1174.96 1492.51 1175.6 1492.34 1176.23 1492.11 1177.16 1491.83 1178.39L1487.18 1199.13 1493.17 1199.13C1494.01 1199.13 1494.73 1199.06 1495.35 1198.91 1495.96 1198.77 1496.52 1198.46 1497.04 1198 1497.56 1197.53 1498.07 1196.87 1498.55 1196.01 1499.03 1195.15 1499.56 1194.02 1500.14 1192.59L1502.67 1192.59 1500.3 1201.57 1480.08 1201.57 1480.34 1200.17C1480.81 1200.09 1481.2 1199.99 1481.51 1199.88 1481.81 1199.76 1482.09 1199.54 1482.32 1199.21 1482.56 1198.88 1482.77 1198.39 1482.96 1197.73 1483.16 1197.07 1483.38 1196.16 1483.64 1194.98L1487.41 1178.25C1487.56 1177.58 1487.67 1176.98 1487.75 1176.46 1487.83 1175.94 1487.86 1175.49 1487.86 1175.13 1487.86 1174.45 1487.69 1173.98 1487.34 1173.69 1486.98 1173.41 1486.34 1173.26 1485.41 1173.25ZM1520.58 1171.36C1522.03 1171.36 1523.42 1171.48 1524.76 1171.7 1526.1 1171.92 1527.51 1172.27 1528.97 1172.76L1527.67 1178.59 1525.17 1178.59C1525.12 1177.74 1524.99 1177 1524.76 1176.38 1524.54 1175.76 1524.23 1175.25 1523.83 1174.86 1523.44 1174.47 1522.93 1174.18 1522.32 1173.99 1521.71 1173.8 1520.98 1173.7 1520.14 1173.7 1519.24 1173.7 1518.42 1173.83 1517.68 1174.07 1516.95 1174.32 1516.32 1174.67 1515.8 1175.12 1515.28 1175.57 1514.88 1176.11 1514.6 1176.75 1514.31 1177.38 1514.17 1178.07 1514.17 1178.82 1514.17 1179.39 1514.24 1179.91 1514.38 1180.38 1514.52 1180.86 1514.75 1181.32 1515.09 1181.76 1515.43 1182.2 1515.89 1182.66 1516.48 1183.11 1517.07 1183.57 1517.81 1184.08 1518.72 1184.63 1519.82 1185.32 1520.76 1185.97 1521.55 1186.58 1522.34 1187.19 1522.98 1187.83 1523.48 1188.48 1523.98 1189.14 1524.34 1189.84 1524.57 1190.58 1524.8 1191.33 1524.91 1192.16 1524.91 1193.07 1524.91 1194.41 1524.65 1195.62 1524.12 1196.72 1523.59 1197.82 1522.84 1198.77 1521.87 1199.57 1520.9 1200.36 1519.74 1200.98 1518.38 1201.42 1517.03 1201.85 1515.52 1202.07 1513.85 1202.07 1512.44 1202.07 1510.93 1201.95 1509.31 1201.71 1507.69 1201.48 1506.09 1201.13 1504.51 1200.67L1505.86 1194.47 1508.3 1194.47C1508.34 1196.31 1508.83 1197.64 1509.77 1198.47 1510.7 1199.29 1512.14 1199.71 1514.08 1199.71 1515.08 1199.71 1515.97 1199.58 1516.77 1199.32 1517.56 1199.06 1518.23 1198.68 1518.79 1198.19 1519.34 1197.7 1519.76 1197.11 1520.05 1196.4 1520.34 1195.7 1520.48 1194.91 1520.48 1194.04 1520.48 1193.43 1520.41 1192.87 1520.25 1192.37 1520.1 1191.88 1519.83 1191.38 1519.45 1190.89 1519.07 1190.4 1518.55 1189.91 1517.9 1189.4 1517.25 1188.9 1516.44 1188.35 1515.48 1187.75 1514.52 1187.15 1513.68 1186.56 1512.97 1185.97 1512.26 1185.38 1511.66 1184.77 1511.19 1184.14 1510.71 1183.5 1510.36 1182.84 1510.12 1182.15 1509.88 1181.46 1509.77 1180.73 1509.77 1179.95 1509.77 1178.66 1510.02 1177.5 1510.52 1176.45 1511.03 1175.4 1511.75 1174.5 1512.69 1173.74 1513.63 1172.98 1514.77 1172.4 1516.11 1171.98 1517.45 1171.57 1518.94 1171.36 1520.58 1171.36ZM1469.19 1171.36C1469.88 1171.36 1470.55 1171.38 1471.19 1171.42 1471.83 1171.46 1472.49 1171.53 1473.16 1171.63 1473.84 1171.73 1474.52 1171.86 1475.22 1172.03 1475.91 1172.2 1476.66 1172.41 1477.45 1172.67L1476.08 1178.82 1473.67 1178.82C1473.59 1177.94 1473.45 1177.17 1473.25 1176.53 1473.05 1175.89 1472.77 1175.36 1472.4 1174.94 1472.04 1174.53 1471.57 1174.23 1470.99 1174.04 1470.42 1173.85 1469.72 1173.75 1468.89 1173.75 1467.78 1173.75 1466.71 1174.03 1465.7 1174.58 1464.69 1175.13 1463.77 1175.88 1462.93 1176.83 1462.09 1177.77 1461.33 1178.89 1460.67 1180.17 1460 1181.44 1459.43 1182.8 1458.96 1184.23 1458.48 1185.66 1458.12 1187.13 1457.88 1188.64 1457.63 1190.16 1457.51 1191.64 1457.51 1193.07 1457.51 1195.38 1457.94 1197.06 1458.81 1198.1 1459.67 1199.14 1461 1199.66 1462.79 1199.66 1463.69 1199.66 1464.51 1199.56 1465.26 1199.36 1466 1199.16 1466.69 1198.85 1467.32 1198.42 1467.96 1197.99 1468.54 1197.44 1469.07 1196.76 1469.59 1196.08 1470.09 1195.26 1470.55 1194.31L1473.07 1194.31 1471.6 1200.72C1470.78 1200.96 1469.98 1201.17 1469.21 1201.34 1468.45 1201.5 1467.7 1201.64 1466.97 1201.75 1466.23 1201.86 1465.5 1201.94 1464.79 1201.99 1464.07 1202.04 1463.34 1202.07 1462.61 1202.07 1461.01 1202.07 1459.6 1201.84 1458.37 1201.38 1457.14 1200.92 1456.11 1200.27 1455.28 1199.42 1454.46 1198.57 1453.83 1197.53 1453.4 1196.3 1452.97 1195.07 1452.76 1193.69 1452.76 1192.16 1452.76 1190.15 1452.96 1188.24 1453.37 1186.43 1453.77 1184.62 1454.34 1182.94 1455.07 1181.4 1455.79 1179.87 1456.67 1178.48 1457.68 1177.24 1458.7 1176 1459.82 1174.94 1461.03 1174.07 1462.25 1173.2 1463.55 1172.53 1464.92 1172.06 1466.3 1171.6 1467.72 1171.36 1469.19 1171.36Z" fill-rule="evenodd"/><text fill="#000000" fill-opacity="0" font-family="Arial,Arial_MSFontService,sans-serif" font-size="30.7061" x="1452.76" y="1198.23">𝐶𝐿𝑆</text><path d="M1531.68 1168.31 1541.92 1168.31 1541.92 1212.08 1531.68 1212.08 1531.68 1210.31 1538.11 1210.31 1538.11 1170.08 1531.68 1170.08Z" fill-rule="evenodd"/><text fill="#000000" fill-opacity="0" font-family="Arial,Arial_MSFontService,sans-serif" font-size="43.7642" x="1531.68" y="1206.61">]</text><path d="M1984.5 1137.23C1984.5 1122.47 1996.47 1110.5 2011.23 1110.5L2181.77 1110.5C2196.53 1110.5 2208.5 1122.47 2208.5 1137.23L2208.5 1202.77C2208.5 1217.53 2196.53 1229.5 2181.77 1229.5L2011.23 1229.5C1996.47 1229.5 1984.5 1217.53 1984.5 1202.77Z" stroke="#172C51" stroke-width="4.58333" stroke-miterlimit="8" fill="#C5E0B4" fill-rule="evenodd" fill-opacity="0.901961"/><path d="M2060.73 1148.59 2093.36 1148.59 2090.92 1159.59 2087.92 1159.59C2087.92 1157.56 2087.87 1156.05 2087.77 1155.04 2087.66 1154.03 2087.46 1153.26 2087.17 1152.73 2086.88 1152.19 2086.52 1151.83 2086.09 1151.63 2085.67 1151.43 2084.91 1151.34 2083.83 1151.34L2079.2 1151.34 2072.42 1182.15C2072.23 1182.96 2072.1 1183.61 2072.03 1184.09 2071.96 1184.56 2071.9 1185.07 2071.84 1185.6 2071.79 1186.13 2071.77 1186.61 2071.77 1187.02 2071.77 1187.67 2071.87 1188.17 2072.08 1188.54 2072.29 1188.9 2072.6 1189.17 2073.02 1189.34 2073.43 1189.5 2074.15 1189.63 2075.17 1189.71L2074.83 1191.24 2061.67 1191.24 2062.02 1189.71C2062.85 1189.59 2063.46 1189.42 2063.86 1189.21 2064.26 1189 2064.6 1188.68 2064.91 1188.24 2065.21 1187.8 2065.51 1187.12 2065.81 1186.18 2066.11 1185.24 2066.47 1183.82 2066.89 1181.93L2073.58 1151.34 2069.61 1151.34C2068.32 1151.34 2067.29 1151.52 2066.52 1151.9 2065.74 1152.27 2064.97 1152.97 2064.2 1153.99 2063.43 1155.01 2062.49 1156.72 2061.39 1159.12L2058.39 1159.12Z" fill-rule="evenodd"/><text fill="#000000" fill-opacity="0" font-family="Arial,Arial_MSFontService,sans-serif" font-size="42.6562" x="2058.39" y="1185.91">𝑇</text><path d="M2101.39 1174.61C2102.98 1174.61 2104.34 1174.79 2105.46 1175.15 2106.59 1175.51 2107.5 1175.99 2108.21 1176.6 2108.91 1177.22 2109.42 1177.95 2109.73 1178.81 2110.05 1179.66 2110.2 1180.59 2110.2 1181.58 2110.2 1182.18 2110.16 1182.74 2110.08 1183.25 2109.99 1183.76 2109.85 1184.27 2109.64 1184.76 2109.44 1185.26 2109.16 1185.76 2108.83 1186.27 2108.49 1186.77 2108.07 1187.31 2107.56 1187.87 2107.18 1188.36 2106.69 1188.93 2106.07 1189.57 2105.46 1190.21 2104.79 1190.9 2104.06 1191.64 2103.34 1192.37 2102.58 1193.14 2101.78 1193.93 2100.99 1194.73 2100.21 1195.51 2099.46 1196.29 2098.71 1197.07 2098.03 1197.83 2097.4 1198.57 2096.77 1199.3 2096.26 1199.97 2095.86 1200.59L2104.35 1200.59C2105.07 1200.59 2105.64 1200.56 2106.07 1200.51 2106.5 1200.45 2106.86 1200.33 2107.14 1200.15 2107.42 1199.97 2107.66 1199.69 2107.86 1199.31 2108.06 1198.94 2108.29 1198.42 2108.55 1197.76L2110.69 1197.76C2110.61 1198.85 2110.54 1199.94 2110.47 1201.05 2110.4 1202.15 2110.33 1203.24 2110.25 1204.33L2090.81 1204.33 2090.81 1203.13C2091.18 1202.31 2091.61 1201.49 2092.1 1200.69 2092.59 1199.89 2093.14 1199.07 2093.75 1198.25 2094.36 1197.42 2095.06 1196.57 2095.84 1195.69 2096.62 1194.81 2097.48 1193.89 2098.43 1192.94 2099.87 1191.51 2101.04 1190.28 2101.94 1189.26 2102.84 1188.24 2103.56 1187.34 2104.08 1186.54 2104.6 1185.75 2104.95 1185.01 2105.14 1184.34 2105.33 1183.66 2105.43 1182.95 2105.43 1182.18 2105.43 1181.4 2105.32 1180.68 2105.1 1180.02 2104.88 1179.37 2104.56 1178.81 2104.15 1178.35 2103.73 1177.89 2103.21 1177.53 2102.57 1177.27 2101.94 1177.01 2101.21 1176.88 2100.38 1176.88 2098.96 1176.88 2097.77 1177.27 2096.8 1178.04 2095.84 1178.81 2095.09 1179.93 2094.55 1181.4L2091.55 1181.4 2091.55 1176.93C2093.5 1176.11 2095.31 1175.53 2096.95 1175.16 2098.6 1174.79 2100.08 1174.61 2101.39 1174.61Z" fill-rule="evenodd"/><text fill="#000000" fill-opacity="0" font-family="Arial,Arial_MSFontService,sans-serif" font-size="29.7192" x="2090.81" y="1200.61">2</text><path d="M2498.5 1137.23C2498.5 1122.47 2510.47 1110.5 2525.23 1110.5L2695.77 1110.5C2710.53 1110.5 2722.5 1122.47 2722.5 1137.23L2722.5 1202.77C2722.5 1217.53 2710.53 1229.5 2695.77 1229.5L2525.23 1229.5C2510.47 1229.5 2498.5 1217.53 2498.5 1202.77Z" stroke="#172C51" stroke-width="4.58333" stroke-miterlimit="8" fill="#C5E0B4" fill-rule="evenodd" fill-opacity="0.901961"/><path d="M2570.16 1148.59 2602.78 1148.59 2600.35 1159.59 2597.35 1159.59C2597.35 1157.56 2597.29 1156.05 2597.19 1155.04 2597.09 1154.03 2596.89 1153.26 2596.6 1152.73 2596.3 1152.19 2595.94 1151.83 2595.52 1151.63 2595.09 1151.43 2594.34 1151.34 2593.25 1151.34L2588.63 1151.34 2581.85 1182.15C2581.66 1182.96 2581.53 1183.61 2581.46 1184.09 2581.38 1184.56 2581.32 1185.07 2581.27 1185.6 2581.22 1186.13 2581.19 1186.61 2581.19 1187.02 2581.19 1187.67 2581.29 1188.17 2581.5 1188.54 2581.71 1188.9 2582.02 1189.17 2582.44 1189.34 2582.86 1189.5 2583.57 1189.63 2584.6 1189.71L2584.25 1191.24 2571.1 1191.24 2571.44 1189.71C2572.27 1189.59 2572.89 1189.42 2573.28 1189.21 2573.68 1189 2574.03 1188.68 2574.33 1188.24 2574.63 1187.8 2574.93 1187.12 2575.24 1186.18 2575.54 1185.24 2575.9 1183.82 2576.31 1181.93L2583 1151.34 2579.03 1151.34C2577.74 1151.34 2576.71 1151.52 2575.94 1151.9 2575.17 1152.27 2574.4 1152.97 2573.63 1153.99 2572.86 1155.01 2571.92 1156.72 2570.81 1159.12L2567.81 1159.12Z" fill-rule="evenodd"/><text fill="#000000" fill-opacity="0" font-family="Arial,Arial_MSFontService,sans-serif" font-size="42.6562" x="2567.81" y="1185.91">𝑇</text><path d="M2604.25 1174.56 2612.17 1174.56C2612.89 1176.47 2613.63 1178.4 2614.38 1180.33 2615.14 1182.27 2615.89 1184.2 2616.62 1186.13 2617.36 1188.06 2618.06 1189.96 2618.74 1191.83 2619.43 1193.71 2620.05 1195.54 2620.61 1197.33L2620.91 1197.33C2621.08 1196.35 2621.3 1195.19 2621.56 1193.85 2621.82 1192.51 2622.12 1191.12 2622.47 1189.69 2622.73 1188.6 2623 1187.48 2623.27 1186.33 2623.53 1185.19 2623.78 1184.09 2624.01 1183.03 2624.24 1181.97 2624.43 1181 2624.57 1180.1 2624.72 1179.21 2624.79 1178.47 2624.79 1177.89 2624.79 1177.22 2624.62 1176.74 2624.27 1176.46 2623.93 1176.17 2623.29 1176.02 2622.36 1176.01L2622.68 1174.56 2631.19 1174.56 2630.9 1175.94C2630.38 1176.09 2629.96 1176.23 2629.66 1176.34 2629.35 1176.46 2629.09 1176.68 2628.88 1177.01 2628.66 1177.33 2628.46 1177.81 2628.27 1178.44 2628.08 1179.07 2627.85 1179.97 2627.59 1181.15L2622.4 1204.33 2618.94 1204.33C2618.13 1202.25 2617.3 1200.15 2616.45 1198.04 2615.6 1195.93 2614.77 1193.82 2613.95 1191.7 2613.13 1189.59 2612.35 1187.5 2611.6 1185.42 2610.85 1183.34 2610.17 1181.29 2609.55 1179.27L2609.25 1179.27C2609.18 1179.74 2609.09 1180.29 2608.98 1180.92 2608.87 1181.55 2608.75 1182.22 2608.62 1182.95 2608.49 1183.68 2608.36 1184.42 2608.21 1185.19 2608.07 1185.95 2607.92 1186.72 2607.76 1187.48 2607.63 1188.06 2607.46 1188.74 2607.27 1189.51 2607.08 1190.29 2606.88 1191.11 2606.68 1191.99 2606.49 1192.87 2606.28 1193.76 2606.08 1194.67 2605.87 1195.57 2605.68 1196.43 2605.51 1197.25 2605.35 1198.07 2605.21 1198.81 2605.11 1199.48 2605.01 1200.16 2604.96 1200.69 2604.96 1201.07 2604.96 1201.71 2605.15 1202.17 2605.51 1202.43 2605.88 1202.7 2606.51 1202.87 2607.4 1202.93L2607.14 1204.33 2598.58 1204.33 2598.88 1202.93C2599.34 1202.85 2599.72 1202.76 2600.03 1202.65 2600.33 1202.54 2600.6 1202.33 2600.83 1202 2601.06 1201.67 2601.28 1201.18 2601.49 1200.52 2601.69 1199.86 2601.93 1198.93 2602.19 1197.74L2605.95 1181.01C2606.09 1180.4 2606.19 1179.83 2606.26 1179.3 2606.33 1178.77 2606.36 1178.3 2606.36 1177.89 2606.36 1177.22 2606.19 1176.74 2605.84 1176.46 2605.48 1176.17 2604.84 1176.02 2603.91 1176.01Z" fill-rule="evenodd"/><text fill="#000000" fill-opacity="0" font-family="Arial,Arial_MSFontService,sans-serif" font-size="29.7651" x="2598.58" y="1200.61">𝑁</text><path d="M2803.5 1140.23C2803.5 1125.47 2815.47 1113.5 2830.23 1113.5L3000.77 1113.5C3015.53 1113.5 3027.5 1125.47 3027.5 1140.23L3027.5 1205.77C3027.5 1220.53 3015.53 1232.5 3000.77 1232.5L2830.23 1232.5C2815.47 1232.5 2803.5 1220.53 2803.5 1205.77Z" stroke="#172C51" stroke-width="4.58333" stroke-miterlimit="8" fill="#C5E0B4" fill-rule="evenodd" fill-opacity="0.901961"/><path d="M2833.85 1148.82 2866.47 1148.82 2864.03 1159.82 2861.03 1159.82C2861.03 1157.8 2860.98 1156.28 2860.88 1155.27 2860.77 1154.26 2860.58 1153.49 2860.28 1152.96 2859.99 1152.43 2859.63 1152.06 2859.21 1151.87 2858.78 1151.67 2858.02 1151.57 2856.94 1151.57L2852.31 1151.57 2845.53 1182.38C2845.35 1183.19 2845.22 1183.84 2845.14 1184.32 2845.07 1184.8 2845.01 1185.3 2844.96 1185.83 2844.9 1186.37 2844.88 1186.84 2844.88 1187.26 2844.88 1187.9 2844.98 1188.41 2845.19 1188.77 2845.4 1189.14 2845.71 1189.4 2846.13 1189.57 2846.54 1189.74 2847.26 1189.86 2848.28 1189.94L2847.94 1191.47 2834.78 1191.47 2835.13 1189.94C2835.96 1189.82 2836.58 1189.65 2836.97 1189.44 2837.37 1189.24 2837.72 1188.91 2838.02 1188.47 2838.32 1188.04 2838.62 1187.35 2838.92 1186.41 2839.23 1185.47 2839.59 1184.06 2840 1182.16L2846.69 1151.57 2842.72 1151.57C2841.43 1151.57 2840.4 1151.76 2839.63 1152.13 2838.86 1152.51 2838.09 1153.2 2837.31 1154.22 2836.54 1155.25 2835.61 1156.95 2834.5 1159.35L2831.5 1159.35Z" fill-rule="evenodd"/><text fill="#000000" fill-opacity="0" font-family="Arial,Arial_MSFontService,sans-serif" font-size="42.6562" x="2831.5" y="1186.14">𝑇</text><path d="M2866.03 1171.31 2876.27 1171.31 2876.27 1173.07 2869.84 1173.07 2869.84 1213.3 2876.27 1213.3 2876.27 1215.07 2866.03 1215.07Z" fill-rule="evenodd"/><text fill="#000000" fill-opacity="0" font-family="Arial,Arial_MSFontService,sans-serif" font-size="43.7642" x="2866.03" y="1209.6">[</text><path d="M2950.72 1177.23C2950.17 1177.23 2949.64 1177.24 2949.14 1177.25 2948.63 1177.27 2948.14 1177.29 2947.65 1177.32L2944.73 1189.74 2947.48 1189.74C2949.27 1189.77 2950.76 1189.59 2951.94 1189.21 2953.11 1188.82 2954.06 1188.28 2954.77 1187.58 2955.48 1186.87 2955.98 1186.05 2956.27 1185.1 2956.57 1184.15 2956.71 1183.12 2956.71 1182 2956.71 1180.33 2956.23 1179.12 2955.26 1178.36 2954.3 1177.61 2952.79 1177.23 2950.72 1177.23ZM2940.6 1174.8 2950.97 1174.8C2952.63 1174.8 2954.09 1174.92 2955.37 1175.17 2956.65 1175.43 2957.72 1175.83 2958.6 1176.39 2959.48 1176.95 2960.15 1177.68 2960.61 1178.57 2961.07 1179.47 2961.32 1180.56 2961.35 1181.86 2961.35 1183.56 2961.03 1185.06 2960.39 1186.35 2959.76 1187.64 2958.87 1188.72 2957.72 1189.57 2956.57 1190.43 2955.2 1191.08 2953.59 1191.51 2951.98 1191.95 2950.21 1192.16 2948.27 1192.14 2947.42 1192.14 2946.67 1192.14 2945.99 1192.12 2945.32 1192.11 2944.75 1192.08 2944.29 1192.05 2944.13 1192.85 2943.94 1193.71 2943.72 1194.65 2943.51 1195.58 2943.31 1196.48 2943.12 1197.34 2942.94 1198.21 2942.79 1199 2942.67 1199.71 2942.54 1200.42 2942.48 1200.95 2942.48 1201.3 2942.48 1201.61 2942.52 1201.87 2942.61 1202.09 2942.69 1202.32 2942.83 1202.5 2943.02 1202.66 2943.21 1202.81 2943.48 1202.92 2943.84 1203 2944.19 1203.08 2944.64 1203.13 2945.19 1203.16L2944.87 1204.56 2934.93 1204.56 2935.18 1203.16C2935.66 1203.08 2936.05 1202.99 2936.35 1202.87 2936.66 1202.76 2936.93 1202.54 2937.17 1202.21 2937.41 1201.88 2937.62 1201.39 2937.81 1200.73 2938 1200.07 2938.23 1199.15 2938.49 1197.97L2942.25 1181.24C2942.41 1180.57 2942.52 1179.97 2942.6 1179.45 2942.67 1178.93 2942.71 1178.51 2942.71 1178.17 2942.71 1177.48 2942.54 1176.99 2942.2 1176.7 2941.85 1176.41 2941.2 1176.26 2940.26 1176.24ZM2910.6 1174.8 2932.68 1174.8 2931.07 1181.96 2928.62 1181.96C2928.54 1181.07 2928.46 1180.32 2928.39 1179.72 2928.31 1179.11 2928.17 1178.63 2927.96 1178.26 2927.75 1177.89 2927.47 1177.63 2927.1 1177.47 2926.73 1177.31 2926.24 1177.23 2925.61 1177.23L2917.65 1177.23 2915.24 1187.88 2919.76 1187.88C2920.34 1187.88 2920.82 1187.83 2921.21 1187.74 2921.6 1187.65 2921.95 1187.49 2922.26 1187.26 2922.56 1187.03 2922.84 1186.72 2923.1 1186.33 2923.35 1185.94 2923.63 1185.44 2923.93 1184.82L2926.23 1184.82 2924.19 1193.61 2921.98 1193.61C2921.97 1192.82 2921.93 1192.19 2921.88 1191.74 2921.83 1191.29 2921.71 1190.96 2921.54 1190.74 2921.36 1190.53 2921.12 1190.4 2920.81 1190.37 2920.51 1190.33 2920.1 1190.31 2919.6 1190.31L2914.73 1190.31 2912.02 1202.2 2919.07 1202.2C2919.94 1202.2 2920.65 1202.13 2921.19 1201.99 2921.73 1201.85 2922.23 1201.58 2922.68 1201.19 2923.13 1200.79 2923.58 1200.22 2924.03 1199.49 2924.47 1198.75 2925.03 1197.79 2925.7 1196.6L2928.2 1196.6 2926.14 1204.56 2904.93 1204.56 2905.18 1203.16C2905.66 1203.08 2906.05 1202.99 2906.35 1202.87 2906.66 1202.76 2906.93 1202.54 2907.17 1202.21 2907.41 1201.88 2907.62 1201.39 2907.81 1200.73 2908 1200.07 2908.23 1199.15 2908.49 1197.97L2912.25 1181.24C2912.41 1180.57 2912.52 1179.97 2912.6 1179.45 2912.67 1178.93 2912.71 1178.49 2912.71 1178.12 2912.71 1177.45 2912.54 1176.97 2912.18 1176.69 2911.83 1176.41 2911.19 1176.26 2910.26 1176.24ZM2894.42 1174.36C2895.88 1174.36 2897.27 1174.47 2898.61 1174.69 2899.95 1174.91 2901.35 1175.27 2902.82 1175.76L2901.51 1181.59 2899.01 1181.59C2898.97 1180.73 2898.83 1179.99 2898.61 1179.37 2898.39 1178.75 2898.08 1178.25 2897.68 1177.86 2897.28 1177.47 2896.78 1177.18 2896.17 1176.99 2895.55 1176.8 2894.83 1176.7 2893.99 1176.7 2893.08 1176.7 2892.27 1176.82 2891.53 1177.07 2890.8 1177.31 2890.17 1177.66 2889.65 1178.11 2889.13 1178.56 2888.73 1179.11 2888.44 1179.74 2888.16 1180.38 2888.02 1181.07 2888.02 1181.82 2888.02 1182.38 2888.09 1182.9 2888.23 1183.38 2888.36 1183.85 2888.6 1184.31 2888.94 1184.76 2889.27 1185.2 2889.74 1185.65 2890.33 1186.11 2890.92 1186.57 2891.66 1187.07 2892.56 1187.62 2893.67 1188.31 2894.61 1188.96 2895.4 1189.57 2896.19 1190.19 2896.83 1190.82 2897.33 1191.48 2897.82 1192.14 2898.19 1192.84 2898.42 1193.58 2898.65 1194.32 2898.76 1195.15 2898.76 1196.07 2898.76 1197.4 2898.5 1198.62 2897.97 1199.72 2897.44 1200.82 2896.69 1201.77 2895.72 1202.56 2894.75 1203.36 2893.58 1203.98 2892.23 1204.41 2890.88 1204.85 2889.37 1205.07 2887.7 1205.07 2886.29 1205.07 2884.78 1204.95 2883.15 1204.71 2881.53 1204.47 2879.93 1204.12 2878.36 1203.67L2879.71 1197.47 2882.14 1197.47C2882.19 1199.31 2882.68 1200.64 2883.61 1201.46 2884.55 1202.29 2885.98 1202.7 2887.93 1202.7 2888.92 1202.7 2889.82 1202.57 2890.61 1202.31 2891.41 1202.05 2892.08 1201.68 2892.63 1201.19 2893.18 1200.7 2893.6 1200.1 2893.89 1199.4 2894.19 1198.69 2894.33 1197.91 2894.33 1197.03 2894.33 1196.42 2894.25 1195.87 2894.1 1195.37 2893.95 1194.87 2893.68 1194.38 2893.3 1193.89 2892.92 1193.4 2892.4 1192.9 2891.75 1192.4 2891.1 1191.89 2890.29 1191.34 2889.33 1190.74 2888.36 1190.15 2887.53 1189.56 2886.81 1188.97 2886.1 1188.38 2885.51 1187.77 2885.04 1187.13 2884.56 1186.5 2884.21 1185.83 2883.97 1185.15 2883.73 1184.46 2883.61 1183.72 2883.61 1182.94 2883.61 1181.66 2883.87 1180.49 2884.37 1179.44 2884.88 1178.39 2885.6 1177.49 2886.54 1176.73 2887.48 1175.98 2888.62 1175.39 2889.96 1174.98 2891.3 1174.57 2892.79 1174.36 2894.42 1174.36Z" fill-rule="evenodd"/><text fill="#000000" fill-opacity="0" font-family="Arial,Arial_MSFontService,sans-serif" font-size="30.7061" x="2878.36" y="1201.23">𝑆𝐸𝑃</text><path d="M2965.44 1171.31 2975.68 1171.31 2975.68 1215.07 2965.44 1215.07 2965.44 1213.3 2971.87 1213.3 2971.87 1173.07 2965.44 1173.07Z" fill-rule="evenodd"/><text fill="#000000" fill-opacity="0" font-family="Arial,Arial_MSFontService,sans-serif" font-size="43.7642" x="2965.44" y="1209.6">]</text><path d="M2377.37 2039.75C2378.78 2039.75 2379.95 2040.24 2380.9 2041.23 2381.84 2042.21 2382.32 2043.46 2382.32 2044.97 2382.32 2046.49 2381.84 2047.74 2380.9 2048.72 2379.95 2049.71 2378.78 2050.2 2377.37 2050.2 2375.97 2050.2 2374.79 2049.71 2373.85 2048.72 2372.9 2047.74 2372.43 2046.49 2372.43 2044.97 2372.43 2043.46 2372.9 2042.21 2373.85 2041.23 2374.79 2040.24 2375.97 2039.75 2377.37 2039.75ZM2352.81 2039.75C2354.22 2039.75 2355.39 2040.24 2356.34 2041.23 2357.29 2042.21 2357.76 2043.46 2357.76 2044.97 2357.76 2046.49 2357.29 2047.74 2356.34 2048.72 2355.39 2049.71 2354.22 2050.2 2352.81 2050.2 2351.41 2050.2 2350.23 2049.71 2349.29 2048.72 2348.34 2047.74 2347.87 2046.49 2347.87 2044.97 2347.87 2043.46 2348.34 2042.21 2349.29 2041.23 2350.23 2040.24 2351.41 2039.75 2352.81 2039.75ZM2328.25 2039.75C2329.66 2039.75 2330.83 2040.24 2331.78 2041.23 2332.73 2042.21 2333.2 2043.46 2333.2 2044.97 2333.2 2046.49 2332.73 2047.74 2331.78 2048.72 2330.83 2049.71 2329.66 2050.2 2328.25 2050.2 2326.85 2050.2 2325.67 2049.71 2324.73 2048.72 2323.78 2047.74 2323.31 2046.49 2323.31 2044.97 2323.31 2043.46 2323.78 2042.21 2324.73 2041.23 2325.67 2040.24 2326.85 2039.75 2328.25 2039.75Z" fill-rule="evenodd"/><text fill="#000000" fill-opacity="0" font-family="Arial,Arial_MSFontService,sans-serif" font-size="10.4561" x="2323.31" y="2048.9">⋯</text><path d="M2377.37 1807.6C2378.78 1807.6 2379.95 1808.09 2380.9 1809.08 2381.84 1810.07 2382.32 1811.32 2382.32 1812.83 2382.32 1814.34 2381.84 1815.59 2380.9 1816.58 2379.95 1817.56 2378.78 1818.06 2377.37 1818.06 2375.97 1818.06 2374.79 1817.56 2373.85 1816.58 2372.9 1815.59 2372.43 1814.34 2372.43 1812.83 2372.43 1811.32 2372.9 1810.07 2373.85 1809.08 2374.79 1808.09 2375.97 1807.6 2377.37 1807.6ZM2352.81 1807.6C2354.22 1807.6 2355.39 1808.09 2356.34 1809.08 2357.29 1810.07 2357.76 1811.32 2357.76 1812.83 2357.76 1814.34 2357.29 1815.59 2356.34 1816.58 2355.39 1817.56 2354.22 1818.06 2352.81 1818.06 2351.41 1818.06 2350.23 1817.56 2349.29 1816.58 2348.34 1815.59 2347.87 1814.34 2347.87 1812.83 2347.87 1811.32 2348.34 1810.07 2349.29 1809.08 2350.23 1808.09 2351.41 1807.6 2352.81 1807.6ZM2328.25 1807.6C2329.66 1807.6 2330.83 1808.09 2331.78 1809.08 2332.73 1810.07 2333.2 1811.32 2333.2 1812.83 2333.2 1814.34 2332.73 1815.59 2331.78 1816.58 2330.83 1817.56 2329.66 1818.06 2328.25 1818.06 2326.85 1818.06 2325.67 1817.56 2324.73 1816.58 2323.78 1815.59 2323.31 1814.34 2323.31 1812.83 2323.31 1811.32 2323.78 1810.07 2324.73 1809.08 2325.67 1808.09 2326.85 1807.6 2328.25 1807.6Z" fill-rule="evenodd"/><text fill="#000000" fill-opacity="0" font-family="Arial,Arial_MSFontService,sans-serif" font-size="10.4561" x="2323.31" y="1816.75">⋯</text><path d="M2377.37 1167.66C2378.78 1167.66 2379.95 1168.16 2380.9 1169.14 2381.84 1170.13 2382.32 1171.38 2382.32 1172.89 2382.32 1174.41 2381.84 1175.66 2380.9 1176.64 2379.95 1177.63 2378.78 1178.12 2377.37 1178.12 2375.97 1178.12 2374.79 1177.63 2373.85 1176.64 2372.9 1175.66 2372.43 1174.41 2372.43 1172.89 2372.43 1171.38 2372.9 1170.13 2373.85 1169.14 2374.79 1168.16 2375.97 1167.66 2377.37 1167.66ZM2352.81 1167.66C2354.22 1167.66 2355.39 1168.16 2356.34 1169.14 2357.28 1170.13 2357.76 1171.38 2357.76 1172.89 2357.76 1174.41 2357.28 1175.66 2356.34 1176.64 2355.39 1177.63 2354.22 1178.12 2352.81 1178.12 2351.41 1178.12 2350.23 1177.63 2349.29 1176.64 2348.34 1175.66 2347.87 1174.41 2347.87 1172.89 2347.87 1171.38 2348.34 1170.13 2349.29 1169.14 2350.23 1168.16 2351.41 1167.66 2352.81 1167.66ZM2328.25 1167.66C2329.66 1167.66 2330.83 1168.16 2331.78 1169.14 2332.73 1170.13 2333.2 1171.38 2333.2 1172.89 2333.2 1174.41 2332.73 1175.66 2331.78 1176.64 2330.83 1177.63 2329.66 1178.12 2328.25 1178.12 2326.85 1178.12 2325.67 1177.63 2324.73 1176.64 2323.78 1175.66 2323.31 1174.41 2323.31 1172.89 2323.31 1171.38 2323.78 1170.13 2324.73 1169.14 2325.67 1168.16 2326.85 1167.66 2328.25 1167.66Z" fill-rule="evenodd"/><text fill="#000000" fill-opacity="0" font-family="Arial,Arial_MSFontService,sans-serif" font-size="10.4561" x="2323.31" y="1176.81">⋯</text><path d="M1451 1931.46 1484.5 1886 1518 1931.46 1501.25 1931.46 1501.25 1966 1467.75 1966 1467.75 1931.46Z" stroke="#172C51" stroke-width="5.72917" stroke-miterlimit="8" fill="#D0CECE" fill-rule="evenodd" fill-opacity="0.901961"/><path d="M1756 1932.14 1790 1886 1824 1932.14 1807 1932.14 1807 1966 1773 1966 1773 1932.14Z" stroke="#172C51" stroke-width="5.72917" stroke-miterlimit="8" fill="#D0CECE" fill-rule="evenodd" fill-opacity="0.901961"/><path d="M2061 1932.14 2095 1886 2129 1932.14 2112 1932.14 2112 1966 2078 1966 2078 1932.14Z" stroke="#172C51" stroke-width="5.72917" stroke-miterlimit="8" fill="#D0CECE" fill-rule="evenodd" fill-opacity="0.901961"/><path d="M2576 1932.14 2610 1886 2644 1932.14 2627 1932.14 2627 1966 2593 1966 2593 1932.14Z" stroke="#172C51" stroke-width="5.72917" stroke-miterlimit="8" fill="#D0CECE" fill-rule="evenodd" fill-opacity="0.901961"/><path d="M2881 1932.14 2915 1886 2949 1932.14 2932 1932.14 2932 1966 2898 1966 2898 1932.14Z" stroke="#172C51" stroke-width="5.72917" stroke-miterlimit="8" fill="#D0CECE" fill-rule="evenodd" fill-opacity="0.901961"/><path d="M1451 1019.46 1484.5 974 1518 1019.46 1501.25 1019.46 1501.25 1093 1467.75 1093 1467.75 1019.46Z" stroke="#172C51" stroke-width="5.72917" stroke-miterlimit="8" fill="#FF0000" fill-rule="evenodd" fill-opacity="0.8"/><rect x="1427.5" y="757.5" width="115" height="200" stroke="#172C51" stroke-width="4.58333" stroke-miterlimit="8" fill="#4472C4" fill-opacity="0.701961"/><path d="M1643.54 824 1689 857.5 1643.54 891 1643.54 874.25 1570 874.25 1570 840.75 1643.54 840.75Z" stroke="#172C51" stroke-width="5.72917" stroke-miterlimit="8" fill="#FF0000" fill-rule="evenodd" fill-opacity="0.8"/><path d="M1747.5 850C1747.5 832.603 1761.6 818.5 1779 818.5 1796.4 818.5 1810.5 832.603 1810.5 850 1810.5 867.397 1796.4 881.5 1779 881.5 1761.6 881.5 1747.5 867.397 1747.5 850Z" stroke="#172C51" stroke-width="4.58333" stroke-miterlimit="8" fill="#4472C4" fill-rule="evenodd"/><path d="M1839.5 850C1839.5 832.603 1853.6 818.5 1871 818.5 1888.4 818.5 1902.5 832.603 1902.5 850 1902.5 867.397 1888.4 881.5 1871 881.5 1853.6 881.5 1839.5 867.397 1839.5 850Z" stroke="#172C51" stroke-width="4.58333" stroke-miterlimit="8" fill="#FF0000" fill-rule="evenodd"/></g></svg>