<svg width="3100" height="1255" xmlns="http://www.w3.org/2000/svg" xmlns:xlink="http://www.w3.org/1999/xlink" xml:space="preserve" overflow="hidden"><g transform="translate(-391 -798)"><path d="M1108.5 1978.5C1108.5 1938.74 1140.74 1906.5 1180.5 1906.5 1220.26 1906.5 1252.5 1938.74 1252.5 1978.5 1252.5 2018.26 1220.26 2050.5 1180.5 2050.5 1140.74 2050.5 1108.5 2018.26 1108.5 1978.5Z" stroke="#172C51" stroke-width="4.58333" stroke-miterlimit="8" fill="#8FAADC" fill-rule="evenodd" fill-opacity="0.8"/><path d="M1137.36 1949.89 1153.74 1949.89 1153.29 1951.88C1152.13 1952.07 1151.2 1952.46 1150.52 1953.07 1149.83 1953.68 1149.48 1954.56 1149.48 1955.73 1149.48 1957.46 1149.93 1959.63 1150.82 1962.25L1154.18 1972.06 1161.68 1962.58C1162.84 1961.12 1163.75 1959.92 1164.4 1958.99 1165.04 1958.06 1165.51 1957.23 1165.79 1956.52 1166.08 1955.8 1166.22 1955.17 1166.22 1954.63 1166.22 1953.9 1166 1953.28 1165.57 1952.77 1165.14 1952.25 1164.4 1951.96 1163.34 1951.88L1163.79 1949.89 1178.9 1949.89 1178.46 1951.88C1177.65 1952.12 1176.88 1952.51 1176.17 1953.05 1175.45 1953.59 1174.6 1954.4 1173.62 1955.48 1172.63 1956.56 1170.8 1958.7 1168.12 1961.89L1156.05 1976.31 1161.96 1992.77C1162.86 1995.25 1163.59 1997.15 1164.15 1998.46 1164.72 1999.77 1165.22 2000.74 1165.65 2001.36 1166 2001.82 1166.37 2002.18 1166.75 2002.43 1167.12 2002.69 1167.76 2002.95 1168.65 2003.22L1168.25 2005.21 1151.87 2005.21 1152.28 2003.22C1153.52 2003.04 1154.47 2002.61 1155.14 2001.95 1155.8 2001.29 1156.13 2000.43 1156.13 1999.37 1156.13 1997.78 1155.8 1996.01 1155.16 1994.07L1150.94 1981.7 1141.7 1993.25C1140.32 1994.98 1139.32 1996.4 1138.7 1997.49 1138.08 1998.58 1137.77 1999.52 1137.77 2000.31 1137.77 2001.36 1138.02 2002.08 1138.52 2002.47 1139.02 2002.87 1139.73 2003.12 1140.65 2003.22L1140.2 2005.21 1125.12 2005.21 1125.53 2003.22C1126.37 2002.95 1127.13 2002.56 1127.82 2002.05 1128.51 2001.54 1129.4 2000.66 1130.49 1999.43 1131.59 1998.21 1133.5 1995.97 1136.23 1992.73L1149.08 1977.45 1143.08 1960.79C1142.08 1958.01 1141.3 1956.08 1140.73 1955.02 1140.16 1953.95 1139.6 1953.2 1139.05 1952.77 1138.49 1952.34 1137.78 1952.04 1136.92 1951.88Z" fill-rule="evenodd"/><text fill="#000000" fill-opacity="0" font-family="Arial,Arial_MSFontService,sans-serif" font-size="55.3198" x="1125.12" y="1998.3">𝑋</text><path d="M1193.84 1983.69 1195.66 1983.69C1195.62 1984.78 1195.59 1985.76 1195.57 1986.62 1195.55 1987.49 1195.53 1988.33 1195.52 1989.14 1195.51 1989.96 1195.51 1990.76 1195.51 1991.55L1195.51 2014.19C1195.51 2014.81 1195.53 2015.34 1195.57 2015.78 1195.61 2016.23 1195.67 2016.61 1195.76 2016.92 1195.85 2017.22 1195.97 2017.49 1196.12 2017.71 1196.27 2017.92 1196.44 2018.11 1196.64 2018.27 1196.88 2018.51 1197.2 2018.69 1197.59 2018.82 1197.99 2018.95 1198.5 2019.06 1199.11 2019.15 1199.73 2019.24 1200.47 2019.31 1201.33 2019.36 1202.19 2019.41 1203.23 2019.44 1204.44 2019.46L1204.44 2022.05 1180.82 2022.05 1180.82 2019.46C1181.99 2019.42 1182.99 2019.38 1183.8 2019.33 1184.62 2019.28 1185.31 2019.21 1185.89 2019.12 1186.46 2019.03 1186.92 2018.93 1187.27 2018.82 1187.62 2018.71 1187.92 2018.58 1188.18 2018.42 1188.46 2018.24 1188.7 2018.05 1188.89 2017.84 1189.09 2017.63 1189.25 2017.37 1189.37 2017.05 1189.49 2016.73 1189.58 2016.34 1189.65 2015.89 1189.72 2015.43 1189.76 2014.87 1189.76 2014.19L1189.76 1992.83C1189.76 1992.06 1189.61 1991.51 1189.31 1991.2 1189.01 1990.88 1188.59 1990.72 1188.03 1990.72 1187.42 1990.72 1186.5 1991.04 1185.29 1991.67 1184.08 1992.31 1182.51 1993.25 1180.58 1994.5 1180.33 1994.05 1180.09 1993.59 1179.87 1993.13 1179.65 1992.68 1179.42 1992.21 1179.18 1991.73 1181.65 1990.38 1184.08 1989.04 1186.5 1987.7 1188.91 1986.36 1191.36 1985.02 1193.84 1983.69Z" fill-rule="evenodd"/><text fill="#000000" fill-opacity="0" font-family="Arial,Arial_MSFontService,sans-serif" font-size="38.3633" x="1179.18" y="2017.26">1</text><path d="M1627.5 1978.5C1627.5 1938.74 1659.74 1906.5 1699.5 1906.5 1739.26 1906.5 1771.5 1938.74 1771.5 1978.5 1771.5 2018.26 1739.26 2050.5 1699.5 2050.5 1659.74 2050.5 1627.5 2018.26 1627.5 1978.5Z" stroke="#172C51" stroke-width="4.58333" stroke-miterlimit="8" fill="#8FAADC" fill-rule="evenodd" fill-opacity="0.8"/><path d="M1655.48 1949.89 1671.85 1949.89 1671.4 1951.88C1670.24 1952.07 1669.32 1952.46 1668.63 1953.07 1667.94 1953.68 1667.59 1954.56 1667.59 1955.73 1667.59 1957.46 1668.04 1959.63 1668.93 1962.25L1672.29 1972.06 1679.79 1962.58C1680.95 1961.12 1681.86 1959.92 1682.51 1958.99 1683.16 1958.06 1683.62 1957.23 1683.91 1956.52 1684.19 1955.8 1684.33 1955.17 1684.33 1954.63 1684.33 1953.9 1684.11 1953.28 1683.68 1952.77 1683.25 1952.25 1682.51 1951.96 1681.45 1951.88L1681.9 1949.89 1697.02 1949.89 1696.57 1951.88C1695.76 1952.12 1695 1952.51 1694.28 1953.05 1693.56 1953.59 1692.71 1954.4 1691.73 1955.48 1690.74 1956.56 1688.91 1958.7 1686.24 1961.89L1674.16 1976.31 1680.08 1992.77C1680.97 1995.25 1681.7 1997.15 1682.26 1998.46 1682.83 1999.77 1683.33 2000.74 1683.76 2001.36 1684.11 2001.82 1684.48 2002.18 1684.86 2002.43 1685.24 2002.69 1685.87 2002.95 1686.76 2003.22L1686.36 2005.21 1669.98 2005.21 1670.39 2003.22C1671.63 2003.04 1672.58 2002.61 1673.25 2001.95 1673.91 2001.29 1674.24 2000.43 1674.24 1999.37 1674.24 1997.78 1673.92 1996.01 1673.27 1994.07L1669.05 1981.7 1659.81 1993.25C1658.43 1994.98 1657.43 1996.4 1656.81 1997.49 1656.19 1998.58 1655.88 1999.52 1655.88 2000.31 1655.88 2001.36 1656.13 2002.08 1656.63 2002.47 1657.13 2002.87 1657.84 2003.12 1658.76 2003.22L1658.31 2005.21 1643.24 2005.21 1643.64 2003.22C1644.48 2002.95 1645.24 2002.56 1645.93 2002.05 1646.62 2001.54 1647.51 2000.66 1648.61 1999.43 1649.7 1998.21 1651.61 1995.97 1654.34 1992.73L1667.19 1977.45 1661.19 1960.79C1660.19 1958.01 1659.41 1956.08 1658.84 1955.02 1658.27 1953.95 1657.71 1953.2 1657.16 1952.77 1656.6 1952.34 1655.89 1952.04 1655.03 1951.88Z" fill-rule="evenodd"/><text fill="#000000" fill-opacity="0" font-family="Arial,Arial_MSFontService,sans-serif" font-size="55.3198" x="1643.24" y="1998.3">𝑋</text><path d="M1711.53 1983.48C1713.59 1983.48 1715.36 1983.72 1716.82 1984.18 1718.28 1984.65 1719.46 1985.28 1720.38 1986.07 1721.29 1986.87 1721.95 1987.82 1722.36 1988.93 1722.76 1990.04 1722.97 1991.25 1722.97 1992.54 1722.97 1993.31 1722.91 1994.03 1722.8 1994.7 1722.69 1995.36 1722.51 1996.02 1722.24 1996.66 1721.97 1997.31 1721.62 1997.96 1721.18 1998.61 1720.74 1999.27 1720.2 1999.96 1719.54 2000.7 1719.05 2001.33 1718.4 2002.07 1717.61 2002.9 1716.81 2003.74 1715.94 2004.63 1715 2005.58 1714.06 2006.54 1713.07 2007.53 1712.04 2008.56 1711 2009.59 1710 2010.62 1709.03 2011.63 1708.05 2012.64 1707.16 2013.62 1706.35 2014.58 1705.53 2015.53 1704.87 2016.4 1704.35 2017.2L1715.37 2017.2C1716.31 2017.2 1717.05 2017.16 1717.61 2017.09 1718.16 2017.03 1718.62 2016.87 1718.99 2016.63 1719.36 2016.39 1719.67 2016.03 1719.93 2015.55 1720.19 2015.06 1720.48 2014.39 1720.82 2013.54L1723.59 2013.54C1723.49 2014.95 1723.4 2016.36 1723.31 2017.79 1723.22 2019.22 1723.13 2020.64 1723.03 2022.05L1697.8 2022.05 1697.8 2020.51C1698.28 2019.43 1698.83 2018.38 1699.47 2017.33 1700.1 2016.29 1700.82 2015.23 1701.61 2014.16 1702.41 2013.09 1703.31 2011.98 1704.32 2010.84 1705.33 2009.7 1706.46 2008.51 1707.69 2007.28 1709.55 2005.41 1711.07 2003.82 1712.24 2002.5 1713.42 2001.18 1714.34 2000 1715.01 1998.97 1715.69 1997.94 1716.15 1996.98 1716.4 1996.11 1716.65 1995.24 1716.77 1994.3 1716.77 1993.31 1716.77 1992.3 1716.63 1991.37 1716.34 1990.51 1716.05 1989.66 1715.64 1988.93 1715.1 1988.34 1714.57 1987.74 1713.89 1987.27 1713.06 1986.94 1712.24 1986.6 1711.29 1986.43 1710.22 1986.43 1708.37 1986.43 1706.82 1986.93 1705.57 1987.93 1704.32 1988.94 1703.35 1990.39 1702.65 1992.3L1698.75 1992.3 1698.75 1986.49C1701.29 1985.44 1703.63 1984.67 1705.77 1984.2 1707.9 1983.72 1709.82 1983.48 1711.53 1983.48Z" fill-rule="evenodd"/><text fill="#000000" fill-opacity="0" font-family="Arial,Arial_MSFontService,sans-serif" font-size="38.5718" x="1697.8" y="2017.23">2</text><rect x="864.5" y="1533.5" width="348" height="188" stroke="#172C51" stroke-width="4.58333" stroke-miterlimit="8" fill="#C5E0B4"/><path d="M1072.38 1599.41 1086.84 1599.41 1091.46 1638.72 1115.09 1599.41 1127.86 1599.41 1127.41 1601.39C1126.38 1601.61 1125.65 1601.85 1125.2 1602.12 1124.76 1602.39 1124.35 1602.8 1123.99 1603.34 1123.62 1603.88 1123.26 1604.72 1122.89 1605.87 1122.53 1607.02 1122.06 1608.89 1121.49 1611.48L1114.56 1642.93C1114.21 1644.53 1113.98 1645.79 1113.88 1646.72 1113.77 1647.65 1113.71 1648.5 1113.71 1649.26 1113.71 1650.47 1114.02 1651.33 1114.63 1651.83 1115.23 1652.33 1116.25 1652.63 1117.68 1652.74L1117.24 1654.73 1101.03 1654.73 1101.47 1652.74C1102.5 1652.58 1103.27 1652.32 1103.78 1651.95 1104.3 1651.59 1104.73 1651.08 1105.08 1650.43 1105.43 1649.78 1105.76 1648.99 1106.05 1648.06 1106.35 1647.13 1106.8 1645.32 1107.39 1642.65L1112.78 1618.21C1113.54 1614.83 1114.4 1611.47 1115.37 1608.12L1114.81 1608.12C1113.97 1609.71 1112.08 1612.96 1109.13 1617.85L1090.69 1648.28 1086.28 1648.28 1082.91 1622.22C1082.43 1618.55 1081.89 1613.6 1081.29 1607.39L1080.48 1607.39C1079.56 1613.44 1078.54 1619.05 1077.4 1624.21L1073.27 1642.93C1072.7 1645.5 1072.42 1647.61 1072.42 1649.26 1072.42 1650.47 1072.72 1651.33 1073.33 1651.83 1073.94 1652.33 1074.96 1652.63 1076.39 1652.74L1075.94 1654.73 1061.76 1654.73 1062.2 1652.74C1063.23 1652.58 1064 1652.32 1064.51 1651.95 1065.03 1651.59 1065.46 1651.08 1065.81 1650.43 1066.16 1649.78 1066.49 1648.99 1066.78 1648.06 1067.08 1647.13 1067.53 1645.32 1068.12 1642.65L1075.01 1611.44C1075.28 1610.28 1075.5 1609.17 1075.66 1608.12 1075.82 1607.07 1075.9 1606 1075.9 1604.92 1075.9 1603.65 1075.58 1602.76 1074.95 1602.26 1074.31 1601.76 1073.31 1601.47 1071.93 1601.39ZM1016.4 1599.41 1058.72 1599.41 1055.55 1613.67 1051.66 1613.67C1051.66 1611.05 1051.6 1609.09 1051.46 1607.78 1051.33 1606.47 1051.07 1605.47 1050.69 1604.78 1050.31 1604.09 1049.85 1603.61 1049.29 1603.36 1048.74 1603.1 1047.76 1602.97 1046.35 1602.97L1040.36 1602.97 1031.56 1642.93C1031.32 1643.99 1031.15 1644.82 1031.06 1645.45 1030.96 1646.07 1030.88 1646.72 1030.81 1647.41 1030.74 1648.1 1030.71 1648.71 1030.71 1649.26 1030.71 1650.09 1030.85 1650.75 1031.12 1651.22 1031.39 1651.69 1031.79 1652.04 1032.33 1652.25 1032.87 1652.47 1033.8 1652.63 1035.13 1652.74L1034.68 1654.73 1017.62 1654.73 1018.07 1652.74C1019.15 1652.58 1019.94 1652.36 1020.46 1652.09 1020.97 1651.82 1021.42 1651.4 1021.82 1650.84 1022.21 1650.27 1022.6 1649.38 1022.99 1648.16 1023.38 1646.95 1023.85 1645.11 1024.39 1642.65L1033.06 1602.97 1027.91 1602.97C1026.24 1602.97 1024.9 1603.22 1023.9 1603.7 1022.9 1604.19 1021.9 1605.09 1020.9 1606.42 1019.9 1607.74 1018.69 1609.96 1017.26 1613.06L1013.37 1613.06ZM935.456 1599.41 951.667 1599.41 951.222 1601.39C950.195 1601.61 949.459 1601.85 949.013 1602.12 948.567 1602.39 948.169 1602.8 947.817 1603.34 947.466 1603.88 947.101 1604.72 946.723 1605.87 946.345 1607.02 945.872 1608.89 945.305 1611.48L936.632 1651 946.602 1651C948.412 1651 949.837 1650.82 950.877 1650.47 951.917 1650.12 952.904 1649.48 953.836 1648.55 954.768 1647.61 955.68 1646.35 956.571 1644.76 957.463 1643.16 958.368 1641.18 959.287 1638.8L963.218 1638.8 959.124 1654.73 924.838 1654.73 925.284 1652.74C926.311 1652.58 927.081 1652.32 927.594 1651.95 928.108 1651.59 928.54 1651.08 928.891 1650.43 929.242 1649.78 929.567 1648.99 929.864 1648.06 930.161 1647.13 930.607 1645.32 931.201 1642.65L938.091 1611.44C938.685 1608.74 938.982 1606.57 938.982 1604.92 938.982 1603.65 938.665 1602.76 938.03 1602.26 937.395 1601.76 936.389 1601.47 935.011 1601.39ZM995.303 1598.76C997.788 1598.76 1000.09 1598.93 1002.21 1599.26 1004.33 1599.6 1006.68 1600.18 1009.24 1600.99L1006.97 1611.4 1003.08 1611.4C1002.98 1609.11 1002.62 1607.3 1002.03 1605.99 1001.44 1604.68 1000.58 1603.74 999.477 1603.18 998.369 1602.61 996.897 1602.32 995.06 1602.32 992.817 1602.32 990.845 1602.78 989.143 1603.7 987.44 1604.62 986.143 1605.87 985.252 1607.45 984.36 1609.03 983.914 1610.79 983.914 1612.74 983.914 1614.77 984.448 1616.54 985.515 1618.07 986.583 1619.6 988.629 1621.4 991.655 1623.48 994.303 1625.32 996.323 1626.96 997.714 1628.4 999.105 1629.85 1000.13 1631.38 1000.79 1633 1001.46 1634.62 1001.79 1636.5 1001.79 1638.64 1001.79 1641.93 1001 1644.86 999.416 1647.41 997.836 1649.96 995.607 1651.94 992.729 1653.33 989.852 1654.72 986.576 1655.42 982.901 1655.42 980.416 1655.42 977.734 1655.21 974.857 1654.81 971.979 1654.4 969.406 1653.89 967.136 1653.27L969.568 1642.12 973.458 1642.12C973.458 1645.42 974.222 1647.87 975.748 1649.48 977.275 1651.09 979.632 1651.89 982.82 1651.89 986.495 1651.89 989.386 1650.89 991.493 1648.89 993.601 1646.89 994.654 1644.11 994.654 1640.54 994.654 1638.89 994.364 1637.44 993.783 1636.19 993.202 1634.93 992.324 1633.73 991.149 1632.58 989.973 1631.43 988.278 1630.11 986.062 1628.63 984.063 1627.28 982.401 1625.95 981.078 1624.64 979.754 1623.32 978.7 1621.86 977.916 1620.24 977.133 1618.62 976.741 1616.81 976.741 1614.81 976.741 1611.62 977.511 1608.81 979.051 1606.38 980.591 1603.95 982.766 1602.07 985.576 1600.74 988.386 1599.42 991.628 1598.76 995.303 1598.76Z" fill-rule="evenodd"/><text fill="#000000" fill-opacity="0" font-family="Arial,Arial_MSFontService,sans-serif" font-size="56.6572" x="924.838" y="1648.33">𝐿𝑆𝑇𝑀</text><rect x="1383.5" y="1533.5" width="348" height="188" stroke="#172C51" stroke-width="4.58333" stroke-miterlimit="8" fill="#C5E0B4"/><path d="M1591.44 1599.41 1605.91 1599.41 1610.53 1638.72 1634.15 1599.41 1646.92 1599.41 1646.47 1601.39C1645.45 1601.61 1644.71 1601.85 1644.27 1602.12 1643.82 1602.39 1643.41 1602.8 1643.05 1603.34 1642.68 1603.88 1642.32 1604.72 1641.96 1605.87 1641.59 1607.02 1641.12 1608.89 1640.56 1611.48L1633.63 1642.93C1633.28 1644.53 1633.05 1645.79 1632.94 1646.72 1632.83 1647.65 1632.78 1648.5 1632.78 1649.26 1632.78 1650.47 1633.08 1651.33 1633.69 1651.83 1634.3 1652.33 1635.32 1652.63 1636.75 1652.74L1636.3 1654.73 1620.09 1654.73 1620.54 1652.74C1621.56 1652.58 1622.33 1652.32 1622.85 1651.95 1623.36 1651.59 1623.79 1651.08 1624.14 1650.43 1624.49 1649.78 1624.82 1648.99 1625.12 1648.06 1625.41 1647.13 1625.86 1645.32 1626.45 1642.65L1631.84 1618.21C1632.6 1614.83 1633.46 1611.47 1634.44 1608.12L1633.87 1608.12C1633.03 1609.71 1631.14 1612.96 1628.2 1617.85L1609.76 1648.28 1605.34 1648.28 1601.97 1622.22C1601.49 1618.55 1600.95 1613.6 1600.35 1607.39L1599.54 1607.39C1598.62 1613.44 1597.6 1619.05 1596.46 1624.21L1592.33 1642.93C1591.76 1645.5 1591.48 1647.61 1591.48 1649.26 1591.48 1650.47 1591.78 1651.33 1592.39 1651.83 1593 1652.33 1594.02 1652.63 1595.45 1652.74L1595 1654.73 1580.82 1654.73 1581.27 1652.74C1582.29 1652.58 1583.06 1652.32 1583.58 1651.95 1584.09 1651.59 1584.52 1651.08 1584.87 1650.43 1585.22 1649.78 1585.55 1648.99 1585.85 1648.06 1586.14 1647.13 1586.59 1645.32 1587.18 1642.65L1594.07 1611.44C1594.34 1610.28 1594.56 1609.17 1594.72 1608.12 1594.88 1607.07 1594.96 1606 1594.96 1604.92 1594.96 1603.65 1594.65 1602.76 1594.01 1602.26 1593.38 1601.76 1592.37 1601.47 1590.99 1601.39ZM1535.47 1599.41 1577.78 1599.41 1574.62 1613.67 1570.73 1613.67C1570.73 1611.05 1570.66 1609.09 1570.52 1607.78 1570.39 1606.47 1570.13 1605.47 1569.75 1604.78 1569.38 1604.09 1568.91 1603.61 1568.36 1603.36 1567.8 1603.1 1566.82 1602.97 1565.42 1602.97L1559.42 1602.97 1550.62 1642.93C1550.38 1643.99 1550.21 1644.82 1550.12 1645.45 1550.02 1646.07 1549.94 1646.72 1549.87 1647.41 1549.81 1648.1 1549.77 1648.71 1549.77 1649.26 1549.77 1650.09 1549.91 1650.75 1550.18 1651.22 1550.45 1651.69 1550.85 1652.04 1551.39 1652.25 1551.93 1652.47 1552.87 1652.63 1554.19 1652.74L1553.74 1654.73 1536.68 1654.73 1537.13 1652.74C1538.21 1652.58 1539.01 1652.36 1539.52 1652.09 1540.03 1651.82 1540.49 1651.4 1540.88 1650.84 1541.27 1650.27 1541.66 1649.38 1542.05 1648.16 1542.44 1646.95 1542.91 1645.11 1543.45 1642.65L1552.12 1602.97 1546.98 1602.97C1545.3 1602.97 1543.96 1603.22 1542.96 1603.7 1541.97 1604.19 1540.97 1605.09 1539.97 1606.42 1538.97 1607.74 1537.75 1609.96 1536.32 1613.06L1532.43 1613.06ZM1454.52 1599.41 1470.73 1599.41 1470.28 1601.39C1469.26 1601.61 1468.52 1601.85 1468.08 1602.12 1467.63 1602.39 1467.23 1602.8 1466.88 1603.34 1466.53 1603.88 1466.16 1604.72 1465.79 1605.87 1465.41 1607.02 1464.93 1608.89 1464.37 1611.48L1455.69 1651 1465.66 1651C1467.47 1651 1468.9 1650.82 1469.94 1650.47 1470.98 1650.12 1471.97 1649.48 1472.9 1648.55 1473.83 1647.61 1474.74 1646.35 1475.63 1644.76 1476.53 1643.16 1477.43 1641.18 1478.35 1638.8L1482.28 1638.8 1478.19 1654.73 1443.9 1654.73 1444.35 1652.74C1445.37 1652.58 1446.14 1652.32 1446.66 1651.95 1447.17 1651.59 1447.6 1651.08 1447.95 1650.43 1448.3 1649.78 1448.63 1648.99 1448.93 1648.06 1449.22 1647.13 1449.67 1645.32 1450.26 1642.65L1457.15 1611.44C1457.75 1608.74 1458.04 1606.57 1458.04 1604.92 1458.04 1603.65 1457.73 1602.76 1457.09 1602.26 1456.46 1601.76 1455.45 1601.47 1454.07 1601.39ZM1514.37 1598.76C1516.85 1598.76 1519.15 1598.93 1521.28 1599.26 1523.4 1599.6 1525.74 1600.18 1528.31 1600.99L1526.04 1611.4 1522.15 1611.4C1522.04 1609.11 1521.69 1607.3 1521.09 1605.99 1520.5 1604.68 1519.65 1603.74 1518.54 1603.18 1517.43 1602.61 1515.96 1602.32 1514.12 1602.32 1511.88 1602.32 1509.91 1602.78 1508.2 1603.7 1506.5 1604.62 1505.21 1605.87 1504.31 1607.45 1503.42 1609.03 1502.98 1610.79 1502.98 1612.74 1502.98 1614.77 1503.51 1616.54 1504.58 1618.07 1505.65 1619.6 1507.69 1621.4 1510.72 1623.48 1513.37 1625.32 1515.39 1626.96 1516.78 1628.4 1518.17 1629.85 1519.19 1631.38 1519.86 1633 1520.52 1634.62 1520.85 1636.5 1520.85 1638.64 1520.85 1641.93 1520.06 1644.86 1518.48 1647.41 1516.9 1649.96 1514.67 1651.94 1511.79 1653.33 1508.91 1654.72 1505.64 1655.42 1501.96 1655.42 1499.48 1655.42 1496.8 1655.21 1493.92 1654.81 1491.04 1654.4 1488.47 1653.89 1486.2 1653.27L1488.63 1642.12 1492.52 1642.12C1492.52 1645.42 1493.28 1647.87 1494.81 1649.48 1496.34 1651.09 1498.69 1651.89 1501.88 1651.89 1505.56 1651.89 1508.45 1650.89 1510.56 1648.89 1512.66 1646.89 1513.72 1644.11 1513.72 1640.54 1513.72 1638.89 1513.43 1637.44 1512.85 1636.19 1512.26 1634.93 1511.39 1633.73 1510.21 1632.58 1509.04 1631.43 1507.34 1630.11 1505.12 1628.63 1503.13 1627.28 1501.46 1625.95 1500.14 1624.64 1498.82 1623.32 1497.76 1621.86 1496.98 1620.24 1496.2 1618.62 1495.8 1616.81 1495.8 1614.81 1495.8 1611.62 1496.57 1608.81 1498.11 1606.38 1499.65 1603.95 1501.83 1602.07 1504.64 1600.74 1507.45 1599.42 1510.69 1598.76 1514.37 1598.76Z" fill-rule="evenodd"/><text fill="#000000" fill-opacity="0" font-family="Arial,Arial_MSFontService,sans-serif" font-size="56.6572" x="1443.9" y="1648.33">𝐿𝑆𝑇𝑀</text><rect x="1148.5" y="1185.5" width="348" height="188" stroke="#172C51" stroke-width="4.58333" stroke-miterlimit="8" fill="#C5E0B4"/><path d="M1355.98 1250.79 1370.45 1250.79 1375.07 1290.1 1398.69 1250.79 1411.46 1250.79 1411.02 1252.77C1409.99 1252.99 1409.25 1253.23 1408.81 1253.5 1408.36 1253.77 1407.96 1254.18 1407.59 1254.72 1407.23 1255.26 1406.86 1256.1 1406.5 1257.25 1406.13 1258.4 1405.67 1260.27 1405.1 1262.86L1398.17 1294.31C1397.82 1295.91 1397.59 1297.17 1397.48 1298.1 1397.37 1299.03 1397.32 1299.88 1397.32 1300.64 1397.32 1301.85 1397.62 1302.71 1398.23 1303.21 1398.84 1303.71 1399.86 1304.01 1401.29 1304.12L1400.84 1306.11 1384.63 1306.11 1385.08 1304.12C1386.1 1303.96 1386.87 1303.7 1387.39 1303.33 1387.9 1302.97 1388.33 1302.46 1388.68 1301.81 1389.04 1301.16 1389.36 1300.37 1389.66 1299.44 1389.95 1298.51 1390.4 1296.7 1390.99 1294.03L1396.38 1269.59C1397.14 1266.21 1398.01 1262.85 1398.98 1259.5L1398.41 1259.5C1397.57 1261.09 1395.68 1264.34 1392.74 1269.23L1374.3 1299.66 1369.88 1299.66 1366.52 1273.6C1366.03 1269.93 1365.49 1264.98 1364.9 1258.77L1364.08 1258.77C1363.17 1264.82 1362.14 1270.43 1361 1275.59L1356.87 1294.31C1356.3 1296.88 1356.02 1298.99 1356.02 1300.64 1356.02 1301.85 1356.32 1302.71 1356.93 1303.21 1357.54 1303.71 1358.56 1304.01 1359.99 1304.12L1359.55 1306.11 1345.36 1306.11 1345.81 1304.12C1346.83 1303.96 1347.6 1303.7 1348.12 1303.33 1348.63 1302.97 1349.06 1302.46 1349.41 1301.81 1349.76 1301.16 1350.09 1300.37 1350.39 1299.44 1350.68 1298.51 1351.13 1296.7 1351.72 1294.03L1358.61 1262.82C1358.88 1261.66 1359.1 1260.55 1359.26 1259.5 1359.42 1258.45 1359.5 1257.38 1359.5 1256.3 1359.5 1255.03 1359.19 1254.14 1358.55 1253.64 1357.92 1253.14 1356.91 1252.85 1355.53 1252.77ZM1300.01 1250.79 1342.32 1250.79 1339.16 1265.05 1335.27 1265.05C1335.27 1262.43 1335.2 1260.47 1335.06 1259.16 1334.93 1257.85 1334.67 1256.85 1334.29 1256.16 1333.92 1255.47 1333.45 1254.99 1332.9 1254.74 1332.34 1254.48 1331.36 1254.35 1329.96 1254.35L1323.96 1254.35 1315.17 1294.31C1314.92 1295.37 1314.75 1296.2 1314.66 1296.83 1314.56 1297.45 1314.48 1298.1 1314.42 1298.79 1314.35 1299.48 1314.31 1300.1 1314.31 1300.64 1314.31 1301.47 1314.45 1302.13 1314.72 1302.6 1314.99 1303.07 1315.4 1303.42 1315.94 1303.63 1316.48 1303.85 1317.41 1304.01 1318.73 1304.12L1318.29 1306.11 1301.22 1306.11 1301.67 1304.12C1302.75 1303.96 1303.55 1303.74 1304.06 1303.47 1304.57 1303.2 1305.03 1302.78 1305.42 1302.22 1305.81 1301.65 1306.2 1300.76 1306.59 1299.54 1306.99 1298.33 1307.45 1296.49 1307.99 1294.03L1316.67 1254.35 1311.52 1254.35C1309.84 1254.35 1308.51 1254.6 1307.51 1255.08 1306.51 1255.57 1305.51 1256.47 1304.51 1257.8 1303.51 1259.12 1302.29 1261.34 1300.86 1264.44L1296.97 1264.44ZM1219.06 1250.79 1235.27 1250.79 1234.83 1252.77C1233.8 1252.99 1233.06 1253.23 1232.62 1253.5 1232.17 1253.77 1231.77 1254.18 1231.42 1254.72 1231.07 1255.26 1230.7 1256.1 1230.33 1257.25 1229.95 1258.4 1229.48 1260.27 1228.91 1262.86L1220.24 1302.38 1230.21 1302.38C1232.02 1302.38 1233.44 1302.2 1234.48 1301.85 1235.52 1301.5 1236.51 1300.86 1237.44 1299.93 1238.37 1298.99 1239.28 1297.73 1240.17 1296.14 1241.07 1294.54 1241.97 1292.56 1242.89 1290.18L1246.82 1290.18 1242.73 1306.11 1208.44 1306.11 1208.89 1304.12C1209.91 1303.96 1210.68 1303.7 1211.2 1303.33 1211.71 1302.97 1212.14 1302.46 1212.49 1301.81 1212.85 1301.16 1213.17 1300.37 1213.47 1299.44 1213.76 1298.51 1214.21 1296.7 1214.8 1294.03L1221.69 1262.82C1222.29 1260.12 1222.59 1257.95 1222.59 1256.3 1222.59 1255.03 1222.27 1254.14 1221.63 1253.64 1221 1253.14 1219.99 1252.85 1218.61 1252.77ZM1278.91 1250.14C1281.39 1250.14 1283.7 1250.31 1285.82 1250.65 1287.94 1250.98 1290.28 1251.56 1292.85 1252.37L1290.58 1262.78 1286.69 1262.78C1286.58 1260.49 1286.23 1258.68 1285.63 1257.37 1285.04 1256.06 1284.19 1255.12 1283.08 1254.56 1281.97 1253.99 1280.5 1253.7 1278.66 1253.7 1276.42 1253.7 1274.45 1254.16 1272.75 1255.08 1271.04 1256 1269.75 1257.25 1268.86 1258.83 1267.96 1260.41 1267.52 1262.18 1267.52 1264.12 1267.52 1266.15 1268.05 1267.92 1269.12 1269.45 1270.19 1270.98 1272.23 1272.78 1275.26 1274.86 1277.91 1276.7 1279.93 1278.34 1281.32 1279.78 1282.71 1281.23 1283.74 1282.76 1284.4 1284.38 1285.06 1286.01 1285.39 1287.88 1285.39 1290.02 1285.39 1293.31 1284.6 1296.24 1283.02 1298.79 1281.44 1301.34 1279.21 1303.32 1276.33 1304.71 1273.46 1306.1 1270.18 1306.8 1266.5 1306.8 1264.02 1306.8 1261.34 1306.59 1258.46 1306.19 1255.58 1305.78 1253.01 1305.27 1250.74 1304.65L1253.17 1293.5 1257.06 1293.5C1257.06 1296.8 1257.83 1299.25 1259.35 1300.86 1260.88 1302.47 1263.24 1303.27 1266.42 1303.27 1270.1 1303.27 1272.99 1302.27 1275.1 1300.27 1277.2 1298.27 1278.26 1295.49 1278.26 1291.92 1278.26 1290.27 1277.97 1288.82 1277.39 1287.57 1276.81 1286.31 1275.93 1285.11 1274.75 1283.96 1273.58 1282.81 1271.88 1281.49 1269.67 1280.01 1267.67 1278.66 1266.01 1277.33 1264.68 1276.02 1263.36 1274.7 1262.3 1273.24 1261.52 1271.62 1260.74 1270 1260.34 1268.19 1260.34 1266.19 1260.34 1263 1261.11 1260.19 1262.65 1257.76 1264.19 1255.33 1266.37 1253.45 1269.18 1252.12 1271.99 1250.8 1275.23 1250.14 1278.91 1250.14Z" fill-rule="evenodd"/><text fill="#000000" fill-opacity="0" font-family="Arial,Arial_MSFontService,sans-serif" font-size="56.6572" x="1208.44" y="1299.71">𝐿𝑆𝑇𝑀</text><rect x="1667.5" y="1185.5" width="348" height="188" stroke="#172C51" stroke-width="4.58333" stroke-miterlimit="8" fill="#C5E0B4"/><path d="M1875.04 1250.79 1889.51 1250.79 1894.13 1290.1 1917.76 1250.79 1930.52 1250.79 1930.08 1252.77C1929.05 1252.99 1928.31 1253.23 1927.87 1253.5 1927.42 1253.77 1927.02 1254.18 1926.65 1254.72 1926.29 1255.26 1925.92 1256.1 1925.56 1257.25 1925.19 1258.4 1924.73 1260.27 1924.16 1262.86L1917.23 1294.31C1916.88 1295.91 1916.65 1297.17 1916.54 1298.1 1916.43 1299.03 1916.38 1299.88 1916.38 1300.64 1916.38 1301.85 1916.68 1302.71 1917.29 1303.21 1917.9 1303.71 1918.92 1304.01 1920.35 1304.12L1919.91 1306.11 1903.69 1306.11 1904.14 1304.12C1905.17 1303.96 1905.94 1303.7 1906.45 1303.33 1906.96 1302.97 1907.4 1302.46 1907.75 1301.81 1908.1 1301.16 1908.42 1300.37 1908.72 1299.44 1909.02 1298.51 1909.46 1296.7 1910.06 1294.03L1915.45 1269.59C1916.2 1266.21 1917.07 1262.85 1918.04 1259.5L1917.47 1259.5C1916.64 1261.09 1914.74 1264.34 1911.8 1269.23L1893.36 1299.66 1888.94 1299.66 1885.58 1273.6C1885.09 1269.93 1884.55 1264.98 1883.96 1258.77L1883.15 1258.77C1882.23 1264.82 1881.2 1270.43 1880.07 1275.59L1875.93 1294.31C1875.37 1296.88 1875.08 1298.99 1875.08 1300.64 1875.08 1301.85 1875.39 1302.71 1875.99 1303.21 1876.6 1303.71 1877.62 1304.01 1879.05 1304.12L1878.61 1306.11 1864.42 1306.11 1864.87 1304.12C1865.9 1303.96 1866.67 1303.7 1867.18 1303.33 1867.69 1302.97 1868.12 1302.46 1868.48 1301.81 1868.83 1301.16 1869.15 1300.37 1869.45 1299.44 1869.75 1298.51 1870.19 1296.7 1870.79 1294.03L1877.68 1262.82C1877.95 1261.66 1878.16 1260.55 1878.32 1259.5 1878.49 1258.45 1878.57 1257.38 1878.57 1256.3 1878.57 1255.03 1878.25 1254.14 1877.61 1253.64 1876.98 1253.14 1875.97 1252.85 1874.6 1252.77ZM1819.07 1250.79 1861.38 1250.79 1858.22 1265.05 1854.33 1265.05C1854.33 1262.43 1854.26 1260.47 1854.13 1259.16 1853.99 1257.85 1853.74 1256.85 1853.36 1256.16 1852.98 1255.47 1852.51 1254.99 1851.96 1254.74 1851.4 1254.48 1850.43 1254.35 1849.02 1254.35L1843.02 1254.35 1834.23 1294.31C1833.98 1295.37 1833.82 1296.2 1833.72 1296.83 1833.63 1297.45 1833.55 1298.1 1833.48 1298.79 1833.41 1299.48 1833.38 1300.1 1833.38 1300.64 1833.38 1301.47 1833.51 1302.13 1833.78 1302.6 1834.05 1303.07 1834.46 1303.42 1835 1303.63 1835.54 1303.85 1836.47 1304.01 1837.79 1304.12L1837.35 1306.11 1820.29 1306.11 1820.73 1304.12C1821.81 1303.96 1822.61 1303.74 1823.12 1303.47 1823.64 1303.2 1824.09 1302.78 1824.48 1302.22 1824.87 1301.65 1825.26 1300.76 1825.66 1299.54 1826.05 1298.33 1826.51 1296.49 1827.05 1294.03L1835.73 1254.35 1830.58 1254.35C1828.91 1254.35 1827.57 1254.6 1826.57 1255.08 1825.57 1255.57 1824.57 1256.47 1823.57 1257.8 1822.57 1259.12 1821.35 1261.34 1819.92 1264.44L1816.03 1264.44ZM1738.12 1250.79 1754.33 1250.79 1753.89 1252.77C1752.86 1252.99 1752.12 1253.23 1751.68 1253.5 1751.23 1253.77 1750.83 1254.18 1750.48 1254.72 1750.13 1255.26 1749.77 1256.1 1749.39 1257.25 1749.01 1258.4 1748.54 1260.27 1747.97 1262.86L1739.3 1302.38 1749.27 1302.38C1751.08 1302.38 1752.5 1302.2 1753.54 1301.85 1754.58 1301.5 1755.57 1300.86 1756.5 1299.93 1757.43 1298.99 1758.35 1297.73 1759.24 1296.14 1760.13 1294.54 1761.03 1292.56 1761.95 1290.18L1765.88 1290.18 1761.79 1306.11 1727.5 1306.11 1727.95 1304.12C1728.98 1303.96 1729.75 1303.7 1730.26 1303.33 1730.77 1302.97 1731.21 1302.46 1731.56 1301.81 1731.91 1301.16 1732.23 1300.37 1732.53 1299.44 1732.83 1298.51 1733.27 1296.7 1733.87 1294.03L1740.76 1262.82C1741.35 1260.12 1741.65 1257.95 1741.65 1256.3 1741.65 1255.03 1741.33 1254.14 1740.7 1253.64 1740.06 1253.14 1739.05 1252.85 1737.68 1252.77ZM1797.97 1250.14C1800.45 1250.14 1802.76 1250.31 1804.88 1250.65 1807 1250.98 1809.34 1251.56 1811.91 1252.37L1809.64 1262.78 1805.75 1262.78C1805.64 1260.49 1805.29 1258.68 1804.7 1257.37 1804.1 1256.06 1803.25 1255.12 1802.14 1254.56 1801.04 1253.99 1799.56 1253.7 1797.73 1253.7 1795.48 1253.7 1793.51 1254.16 1791.81 1255.08 1790.11 1256 1788.81 1257.25 1787.92 1258.83 1787.03 1260.41 1786.58 1262.18 1786.58 1264.12 1786.58 1266.15 1787.11 1267.92 1788.18 1269.45 1789.25 1270.98 1791.3 1272.78 1794.32 1274.86 1796.97 1276.7 1798.99 1278.34 1800.38 1279.78 1801.77 1281.23 1802.8 1282.76 1803.46 1284.38 1804.12 1286.01 1804.45 1287.88 1804.45 1290.02 1804.45 1293.31 1803.66 1296.24 1802.08 1298.79 1800.5 1301.34 1798.27 1303.32 1795.4 1304.71 1792.52 1306.1 1789.24 1306.8 1785.57 1306.8 1783.08 1306.8 1780.4 1306.59 1777.52 1306.19 1774.65 1305.78 1772.07 1305.27 1769.8 1304.65L1772.23 1293.5 1776.12 1293.5C1776.12 1296.8 1776.89 1299.25 1778.41 1300.86 1779.94 1302.47 1782.3 1303.27 1785.49 1303.27 1789.16 1303.27 1792.05 1302.27 1794.16 1300.27 1796.27 1298.27 1797.32 1295.49 1797.32 1291.92 1797.32 1290.27 1797.03 1288.82 1796.45 1287.57 1795.87 1286.31 1794.99 1285.11 1793.81 1283.96 1792.64 1282.81 1790.94 1281.49 1788.73 1280.01 1786.73 1278.66 1785.07 1277.33 1783.74 1276.02 1782.42 1274.7 1781.37 1273.24 1780.58 1271.62 1779.8 1270 1779.41 1268.19 1779.41 1266.19 1779.41 1263 1780.18 1260.19 1781.72 1257.76 1783.26 1255.33 1785.43 1253.45 1788.24 1252.12 1791.05 1250.8 1794.29 1250.14 1797.97 1250.14Z" fill-rule="evenodd"/><text fill="#000000" fill-opacity="0" font-family="Arial,Arial_MSFontService,sans-serif" font-size="56.6572" x="1727.5" y="1299.71">𝐿𝑆𝑇𝑀</text><path d="M2224.63 1975.63C2226.03 1975.63 2227.21 1976.12 2228.15 1977.11 2229.1 1978.09 2229.57 1979.34 2229.57 1980.86 2229.57 1982.37 2229.1 1983.62 2228.15 1984.61 2227.21 1985.59 2226.03 1986.08 2224.63 1986.08 2223.22 1986.08 2222.05 1985.59 2221.1 1984.61 2220.16 1983.62 2219.68 1982.37 2219.68 1980.86 2219.68 1979.34 2220.16 1978.09 2221.1 1977.11 2222.05 1976.12 2223.22 1975.63 2224.63 1975.63ZM2200.07 1975.63C2201.47 1975.63 2202.65 1976.12 2203.59 1977.11 2204.54 1978.09 2205.01 1979.34 2205.01 1980.86 2205.01 1982.37 2204.54 1983.62 2203.59 1984.61 2202.65 1985.59 2201.47 1986.08 2200.07 1986.08 2198.66 1986.08 2197.49 1985.59 2196.54 1984.61 2195.6 1983.62 2195.12 1982.37 2195.12 1980.86 2195.12 1979.34 2195.6 1978.09 2196.54 1977.11 2197.49 1976.12 2198.66 1975.63 2200.07 1975.63ZM2175.51 1975.63C2176.91 1975.63 2178.09 1976.12 2179.03 1977.11 2179.98 1978.09 2180.45 1979.34 2180.45 1980.86 2180.45 1982.37 2179.98 1983.62 2179.03 1984.61 2178.09 1985.59 2176.91 1986.08 2175.51 1986.08 2174.1 1986.08 2172.93 1985.59 2171.98 1984.61 2171.04 1983.62 2170.56 1982.37 2170.56 1980.86 2170.56 1979.34 2171.04 1978.09 2171.98 1977.11 2172.93 1976.12 2174.1 1975.63 2175.51 1975.63Z" fill-rule="evenodd"/><text fill="#000000" fill-opacity="0" font-family="Arial,Arial_MSFontService,sans-serif" font-size="10.4561" x="2170.56" y="1984.78">⋯</text><path d="M2082.82 1625.15C2084.23 1625.15 2085.41 1625.64 2086.35 1626.62 2087.3 1627.61 2087.77 1628.86 2087.77 1630.37 2087.77 1631.89 2087.3 1633.14 2086.35 1634.12 2085.41 1635.11 2084.23 1635.6 2082.82 1635.6 2081.42 1635.6 2080.24 1635.11 2079.3 1634.12 2078.35 1633.14 2077.88 1631.89 2077.88 1630.37 2077.88 1628.86 2078.35 1627.61 2079.3 1626.62 2080.24 1625.64 2081.42 1625.15 2082.82 1625.15ZM2058.27 1625.15C2059.67 1625.15 2060.85 1625.64 2061.79 1626.62 2062.74 1627.61 2063.21 1628.86 2063.21 1630.37 2063.21 1631.89 2062.74 1633.14 2061.79 1634.12 2060.85 1635.11 2059.67 1635.6 2058.27 1635.6 2056.86 1635.6 2055.69 1635.11 2054.74 1634.12 2053.79 1633.14 2053.32 1631.89 2053.32 1630.37 2053.32 1628.86 2053.79 1627.61 2054.74 1626.62 2055.69 1625.64 2056.86 1625.15 2058.27 1625.15ZM2033.71 1625.15C2035.11 1625.15 2036.29 1625.64 2037.23 1626.62 2038.18 1627.61 2038.65 1628.86 2038.65 1630.37 2038.65 1631.89 2038.18 1633.14 2037.23 1634.12 2036.29 1635.11 2035.11 1635.6 2033.71 1635.6 2032.3 1635.6 2031.13 1635.11 2030.18 1634.12 2029.23 1633.14 2028.76 1631.89 2028.76 1630.37 2028.76 1628.86 2029.23 1627.61 2030.18 1626.62 2031.13 1625.64 2032.3 1625.15 2033.71 1625.15Z" fill-rule="evenodd"/><text fill="#000000" fill-opacity="0" font-family="Arial,Arial_MSFontService,sans-serif" font-size="10.4561" x="2028.76" y="1634.29">⋯</text><path d="M2366.43 1276.53C2367.83 1276.53 2369.01 1277.02 2369.95 1278 2370.9 1278.99 2371.37 1280.24 2371.37 1281.75 2371.37 1283.27 2370.9 1284.52 2369.95 1285.5 2369.01 1286.49 2367.83 1286.98 2366.43 1286.98 2365.02 1286.98 2363.85 1286.49 2362.9 1285.5 2361.96 1284.52 2361.48 1283.27 2361.48 1281.75 2361.48 1280.24 2361.96 1278.99 2362.9 1278 2363.85 1277.02 2365.02 1276.53 2366.43 1276.53ZM2341.87 1276.53C2343.27 1276.53 2344.45 1277.02 2345.4 1278 2346.34 1278.99 2346.81 1280.24 2346.81 1281.75 2346.81 1283.27 2346.34 1284.52 2345.4 1285.5 2344.45 1286.49 2343.27 1286.98 2341.87 1286.98 2340.46 1286.98 2339.29 1286.49 2338.34 1285.5 2337.4 1284.52 2336.92 1283.27 2336.92 1281.75 2336.92 1280.24 2337.4 1278.99 2338.34 1278 2339.29 1277.02 2340.46 1276.53 2341.87 1276.53ZM2317.31 1276.53C2318.71 1276.53 2319.89 1277.02 2320.84 1278 2321.78 1278.99 2322.25 1280.24 2322.25 1281.75 2322.25 1283.27 2321.78 1284.52 2320.84 1285.5 2319.89 1286.49 2318.71 1286.98 2317.31 1286.98 2315.9 1286.98 2314.73 1286.49 2313.78 1285.5 2312.84 1284.52 2312.37 1283.27 2312.37 1281.75 2312.37 1280.24 2312.84 1278.99 2313.78 1278 2314.73 1277.02 2315.9 1276.53 2317.31 1276.53Z" fill-rule="evenodd"/><text fill="#000000" fill-opacity="0" font-family="Arial,Arial_MSFontService,sans-serif" font-size="10.4561" x="2312.37" y="1285.67">⋯</text><path d="M2629.5 1978.5C2629.5 1938.74 2661.74 1906.5 2701.5 1906.5 2741.26 1906.5 2773.5 1938.74 2773.5 1978.5 2773.5 2018.26 2741.26 2050.5 2701.5 2050.5 2661.74 2050.5 2629.5 2018.26 2629.5 1978.5Z" stroke="#172C51" stroke-width="4.58333" stroke-miterlimit="8" fill="#8FAADC" fill-rule="evenodd" fill-opacity="0.8"/><path d="M2654.41 1949.89 2670.79 1949.89 2670.34 1951.88C2669.18 1952.07 2668.25 1952.46 2667.56 1953.07 2666.88 1953.68 2666.53 1954.56 2666.53 1955.73 2666.53 1957.46 2666.98 1959.63 2667.87 1962.25L2671.23 1972.06 2678.73 1962.58C2679.89 1961.12 2680.8 1959.92 2681.44 1958.99 2682.09 1958.06 2682.56 1957.23 2682.84 1956.52 2683.13 1955.8 2683.27 1955.17 2683.27 1954.63 2683.27 1953.9 2683.05 1953.28 2682.62 1952.77 2682.19 1952.25 2681.44 1951.96 2680.39 1951.88L2680.84 1949.89 2695.95 1949.89 2695.51 1951.88C2694.7 1952.12 2693.93 1952.51 2693.22 1953.05 2692.5 1953.59 2691.65 1954.4 2690.66 1955.48 2689.68 1956.56 2687.85 1958.7 2685.17 1961.89L2673.1 1976.31 2679.01 1992.77C2679.9 1995.25 2680.63 1997.15 2681.2 1998.46 2681.77 1999.77 2682.27 2000.74 2682.7 2001.36 2683.05 2001.82 2683.42 2002.18 2683.8 2002.43 2684.17 2002.69 2684.81 2002.95 2685.7 2003.22L2685.29 2005.21 2668.92 2005.21 2669.33 2003.22C2670.57 2003.04 2671.52 2002.61 2672.18 2001.95 2672.85 2001.29 2673.18 2000.43 2673.18 1999.37 2673.18 1997.78 2672.85 1996.01 2672.2 1994.07L2667.99 1981.7 2658.75 1993.25C2657.37 1994.98 2656.37 1996.4 2655.75 1997.49 2655.13 1998.58 2654.82 1999.52 2654.82 2000.31 2654.82 2001.36 2655.07 2002.08 2655.57 2002.47 2656.07 2002.87 2656.78 2003.12 2657.7 2003.22L2657.25 2005.21 2642.17 2005.21 2642.58 2003.22C2643.42 2002.95 2644.18 2002.56 2644.87 2002.05 2645.56 2001.54 2646.45 2000.66 2647.54 1999.43 2648.64 1998.21 2650.55 1995.97 2653.28 1992.73L2666.13 1977.45 2660.13 1960.79C2659.13 1958.01 2658.34 1956.08 2657.78 1955.02 2657.21 1953.95 2656.65 1953.2 2656.09 1952.77 2655.54 1952.34 2654.83 1952.04 2653.97 1951.88Z" fill-rule="evenodd"/><text fill="#000000" fill-opacity="0" font-family="Arial,Arial_MSFontService,sans-serif" font-size="55.3198" x="2642.17" y="1998.3">𝑋</text><path d="M2703.53 1991.64C2705 1991.64 2706.13 1992.12 2706.94 1993.09 2707.74 1994.05 2708.14 1995.32 2708.14 1996.89 2708.14 1997.28 2708.11 1997.7 2708.04 1998.14 2707.97 1998.57 2707.85 1998.99 2707.67 1999.39L2708.08 1999.54C2710.01 1996.9 2711.91 1994.92 2713.79 1993.61 2715.66 1992.3 2717.61 1991.64 2719.61 1991.64 2721.72 1991.64 2723.29 1992.21 2724.33 1993.34 2725.37 1994.47 2725.9 1996.06 2725.9 1998.11 2725.9 1998.72 2725.81 1999.58 2725.63 2000.67 2725.45 2001.76 2725.22 2002.95 2724.94 2004.24 2724.66 2005.53 2724.37 2006.86 2724.05 2008.22 2723.73 2009.58 2723.43 2010.83 2723.16 2011.99 2722.88 2013.14 2722.65 2014.12 2722.47 2014.94 2722.29 2015.75 2722.2 2016.26 2722.2 2016.45 2722.2 2017.21 2722.34 2017.75 2722.62 2018.09 2722.9 2018.43 2723.34 2018.6 2723.96 2018.6 2724.34 2018.6 2724.71 2018.53 2725.08 2018.39 2725.44 2018.25 2725.83 2018.03 2726.22 2017.73 2726.62 2017.44 2727.06 2017.05 2727.53 2016.59 2728.01 2016.12 2728.55 2015.56 2729.14 2014.91L2731.2 2016.87C2730.22 2017.86 2729.33 2018.72 2728.52 2019.43 2727.7 2020.15 2726.91 2020.74 2726.15 2021.2 2725.38 2021.67 2724.62 2022.02 2723.87 2022.25 2723.12 2022.48 2722.31 2022.59 2721.46 2022.59 2720.74 2022.59 2720.08 2022.45 2719.48 2022.17 2718.87 2021.9 2718.35 2021.51 2717.91 2021.03 2717.48 2020.54 2717.14 2019.96 2716.9 2019.3 2716.66 2018.63 2716.54 2017.9 2716.54 2017.11 2716.54 2016.32 2716.63 2015.39 2716.8 2014.32 2716.97 2013.26 2717.22 2012.1 2717.56 2010.82 2717.91 2009.53 2718.25 2008.3 2718.55 2007.12 2718.86 2005.94 2719.13 2004.84 2719.36 2003.84 2719.59 2002.84 2719.76 2001.94 2719.89 2001.16 2720.02 2000.38 2720.09 1999.72 2720.09 1999.21 2720.09 1997.98 2719.85 1997.07 2719.39 1996.5 2718.92 1995.92 2718.17 1995.63 2717.14 1995.63 2716.54 1995.63 2715.9 1995.79 2715.22 1996.1 2714.53 1996.4 2713.84 1996.83 2713.15 1997.38 2712.45 1997.92 2711.77 1998.57 2711.11 1999.31 2710.44 2000.06 2709.83 2000.85 2709.28 2001.7 2708.72 2002.54 2708.23 2003.42 2707.8 2004.35 2707.37 2005.27 2707.06 2006.19 2706.86 2007.1L2703.53 2022.05 2697.69 2022.05 2702.16 2002.63C2702.42 2001.6 2702.6 2000.68 2702.72 1999.86 2702.84 1999.05 2702.9 1998.38 2702.9 1997.87 2702.9 1996.42 2702.32 1995.69 2701.14 1995.69 2700.79 1995.69 2700.42 1995.77 2700.06 1995.92 2699.69 1996.07 2699.3 1996.29 2698.9 1996.59 2698.49 1996.89 2698.05 1997.26 2697.57 1997.72 2697.09 1998.18 2696.56 1998.71 2695.96 1999.33L2693.91 1997.39C2694.9 1996.38 2695.81 1995.51 2696.63 1994.79 2697.46 1994.06 2698.24 1993.47 2698.98 1993 2699.73 1992.53 2700.47 1992.19 2701.2 1991.97 2701.94 1991.75 2702.71 1991.64 2703.53 1991.64Z" fill-rule="evenodd"/><text fill="#000000" fill-opacity="0" font-family="Arial,Arial_MSFontService,sans-serif" font-size="30.9468" x="2693.91" y="2018.72">𝑛</text><rect x="2385.5" y="1533.5" width="348" height="188" stroke="#172C51" stroke-width="4.58333" stroke-miterlimit="8" fill="#C5E0B4"/><path d="M2592.9 1599.41 2607.36 1599.41 2611.98 1638.72 2635.61 1599.41 2648.38 1599.41 2647.93 1601.39C2646.91 1601.61 2646.17 1601.85 2645.72 1602.12 2645.28 1602.39 2644.87 1602.8 2644.51 1603.34 2644.14 1603.88 2643.78 1604.72 2643.41 1605.87 2643.05 1607.02 2642.58 1608.89 2642.02 1611.48L2635.09 1642.93C2634.73 1644.53 2634.5 1645.79 2634.4 1646.72 2634.29 1647.65 2634.23 1648.5 2634.23 1649.26 2634.23 1650.47 2634.54 1651.33 2635.15 1651.83 2635.75 1652.33 2636.77 1652.63 2638.21 1652.74L2637.76 1654.73 2621.55 1654.73 2621.99 1652.74C2623.02 1652.58 2623.79 1652.32 2624.3 1651.95 2624.82 1651.59 2625.25 1651.08 2625.6 1650.43 2625.95 1649.78 2626.28 1648.99 2626.57 1648.06 2626.87 1647.13 2627.32 1645.32 2627.91 1642.65L2633.3 1618.21C2634.06 1614.83 2634.92 1611.47 2635.9 1608.12L2635.33 1608.12C2634.49 1609.71 2632.6 1612.96 2629.65 1617.85L2611.21 1648.28 2606.8 1648.28 2603.43 1622.22C2602.95 1618.55 2602.41 1613.6 2601.81 1607.39L2601 1607.39C2600.08 1613.44 2599.06 1619.05 2597.92 1624.21L2593.79 1642.93C2593.22 1645.5 2592.94 1647.61 2592.94 1649.26 2592.94 1650.47 2593.24 1651.33 2593.85 1651.83 2594.46 1652.33 2595.48 1652.63 2596.91 1652.74L2596.46 1654.73 2582.28 1654.73 2582.72 1652.74C2583.75 1652.58 2584.52 1652.32 2585.03 1651.95 2585.55 1651.59 2585.98 1651.08 2586.33 1650.43 2586.68 1649.78 2587.01 1648.99 2587.3 1648.06 2587.6 1647.13 2588.05 1645.32 2588.64 1642.65L2595.53 1611.44C2595.8 1610.28 2596.02 1609.17 2596.18 1608.12 2596.34 1607.07 2596.42 1606 2596.42 1604.92 2596.42 1603.65 2596.1 1602.76 2595.47 1602.26 2594.83 1601.76 2593.83 1601.47 2592.45 1601.39ZM2536.93 1599.41 2579.24 1599.41 2576.07 1613.67 2572.18 1613.67C2572.18 1611.05 2572.12 1609.09 2571.98 1607.78 2571.85 1606.47 2571.59 1605.47 2571.21 1604.78 2570.83 1604.09 2570.37 1603.61 2569.81 1603.36 2569.26 1603.1 2568.28 1602.97 2566.88 1602.97L2560.88 1602.97 2552.08 1642.93C2551.84 1643.99 2551.67 1644.82 2551.58 1645.45 2551.48 1646.07 2551.4 1646.72 2551.33 1647.41 2551.27 1648.1 2551.23 1648.71 2551.23 1649.26 2551.23 1650.09 2551.37 1650.75 2551.64 1651.22 2551.91 1651.69 2552.31 1652.04 2552.85 1652.25 2553.39 1652.47 2554.33 1652.63 2555.65 1652.74L2555.2 1654.73 2538.14 1654.73 2538.59 1652.74C2539.67 1652.58 2540.46 1652.36 2540.98 1652.09 2541.49 1651.82 2541.94 1651.4 2542.34 1650.84 2542.73 1650.27 2543.12 1649.38 2543.51 1648.16 2543.9 1646.95 2544.37 1645.11 2544.91 1642.65L2553.58 1602.97 2548.44 1602.97C2546.76 1602.97 2545.42 1603.22 2544.42 1603.7 2543.42 1604.19 2542.42 1605.09 2541.42 1606.42 2540.42 1607.74 2539.21 1609.96 2537.78 1613.06L2533.89 1613.06ZM2455.98 1599.41 2472.19 1599.41 2471.74 1601.39C2470.72 1601.61 2469.98 1601.85 2469.53 1602.12 2469.09 1602.39 2468.69 1602.8 2468.34 1603.34 2467.99 1603.88 2467.62 1604.72 2467.24 1605.87 2466.87 1607.02 2466.39 1608.89 2465.83 1611.48L2457.15 1651 2467.12 1651C2468.93 1651 2470.36 1650.82 2471.4 1650.47 2472.44 1650.12 2473.42 1649.48 2474.36 1648.55 2475.29 1647.61 2476.2 1646.35 2477.09 1644.76 2477.98 1643.16 2478.89 1641.18 2479.81 1638.8L2483.74 1638.8 2479.65 1654.73 2445.36 1654.73 2445.8 1652.74C2446.83 1652.58 2447.6 1652.32 2448.11 1651.95 2448.63 1651.59 2449.06 1651.08 2449.41 1650.43 2449.76 1649.78 2450.09 1648.99 2450.38 1648.06 2450.68 1647.13 2451.13 1645.32 2451.72 1642.65L2458.61 1611.44C2459.21 1608.74 2459.5 1606.57 2459.5 1604.92 2459.5 1603.65 2459.19 1602.76 2458.55 1602.26 2457.92 1601.76 2456.91 1601.47 2455.53 1601.39ZM2515.82 1598.76C2518.31 1598.76 2520.61 1598.93 2522.73 1599.26 2524.85 1599.6 2527.2 1600.18 2529.76 1600.99L2527.5 1611.4 2523.6 1611.4C2523.5 1609.11 2523.15 1607.3 2522.55 1605.99 2521.96 1604.68 2521.11 1603.74 2520 1603.18 2518.89 1602.61 2517.42 1602.32 2515.58 1602.32 2513.34 1602.32 2511.37 1602.78 2509.66 1603.7 2507.96 1604.62 2506.66 1605.87 2505.77 1607.45 2504.88 1609.03 2504.44 1610.79 2504.44 1612.74 2504.44 1614.77 2504.97 1616.54 2506.04 1618.07 2507.1 1619.6 2509.15 1621.4 2512.18 1623.48 2514.82 1625.32 2516.84 1626.96 2518.23 1628.4 2519.63 1629.85 2520.65 1631.38 2521.31 1633 2521.98 1634.62 2522.31 1636.5 2522.31 1638.64 2522.31 1641.93 2521.52 1644.86 2519.94 1647.41 2518.36 1649.96 2516.13 1651.94 2513.25 1653.33 2510.37 1654.72 2507.1 1655.42 2503.42 1655.42 2500.94 1655.42 2498.25 1655.21 2495.38 1654.81 2492.5 1654.4 2489.93 1653.89 2487.66 1653.27L2490.09 1642.12 2493.98 1642.12C2493.98 1645.42 2494.74 1647.87 2496.27 1649.48 2497.8 1651.09 2500.15 1651.89 2503.34 1651.89 2507.02 1651.89 2509.91 1650.89 2512.01 1648.89 2514.12 1646.89 2515.18 1644.11 2515.18 1640.54 2515.18 1638.89 2514.88 1637.44 2514.3 1636.19 2513.72 1634.93 2512.84 1633.73 2511.67 1632.58 2510.49 1631.43 2508.8 1630.11 2506.58 1628.63 2504.58 1627.28 2502.92 1625.95 2501.6 1624.64 2500.27 1623.32 2499.22 1621.86 2498.44 1620.24 2497.65 1618.62 2497.26 1616.81 2497.26 1614.81 2497.26 1611.62 2498.03 1608.81 2499.57 1606.38 2501.11 1603.95 2503.29 1602.07 2506.1 1600.74 2508.91 1599.42 2512.15 1598.76 2515.82 1598.76Z" fill-rule="evenodd"/><text fill="#000000" fill-opacity="0" font-family="Arial,Arial_MSFontService,sans-serif" font-size="56.6572" x="2445.36" y="1648.33">𝐿𝑆𝑇𝑀</text><rect x="2669.5" y="1185.5" width="348" height="188" stroke="#172C51" stroke-width="4.58333" stroke-miterlimit="8" fill="#C5E0B4"/><path d="M2876.5 1250.79 2890.97 1250.79 2895.59 1290.1 2919.22 1250.79 2931.98 1250.79 2931.54 1252.77C2930.51 1252.99 2929.77 1253.23 2929.33 1253.5 2928.88 1253.77 2928.48 1254.18 2928.11 1254.72 2927.75 1255.26 2927.38 1256.1 2927.02 1257.25 2926.65 1258.4 2926.19 1260.27 2925.62 1262.86L2918.69 1294.31C2918.34 1295.91 2918.11 1297.17 2918 1298.1 2917.89 1299.03 2917.84 1299.88 2917.84 1300.64 2917.84 1301.85 2918.14 1302.71 2918.75 1303.21 2919.36 1303.71 2920.38 1304.01 2921.81 1304.12L2921.36 1306.11 2905.15 1306.11 2905.6 1304.12C2906.62 1303.96 2907.4 1303.7 2907.91 1303.33 2908.42 1302.97 2908.85 1302.46 2909.21 1301.81 2909.56 1301.16 2909.88 1300.37 2910.18 1299.44 2910.48 1298.51 2910.92 1296.7 2911.52 1294.03L2916.91 1269.59C2917.66 1266.21 2918.53 1262.85 2919.5 1259.5L2918.93 1259.5C2918.09 1261.09 2916.2 1264.34 2913.26 1269.23L2894.82 1299.66 2890.4 1299.66 2887.04 1273.6C2886.55 1269.93 2886.01 1264.98 2885.42 1258.77L2884.61 1258.77C2883.69 1264.82 2882.66 1270.43 2881.53 1275.59L2877.39 1294.31C2876.82 1296.88 2876.54 1298.99 2876.54 1300.64 2876.54 1301.85 2876.84 1302.71 2877.45 1303.21 2878.06 1303.71 2879.08 1304.01 2880.51 1304.12L2880.07 1306.11 2865.88 1306.11 2866.33 1304.12C2867.35 1303.96 2868.12 1303.7 2868.64 1303.33 2869.15 1302.97 2869.58 1302.46 2869.93 1301.81 2870.29 1301.16 2870.61 1300.37 2870.91 1299.44 2871.2 1298.51 2871.65 1296.7 2872.24 1294.03L2879.13 1262.82C2879.4 1261.66 2879.62 1260.55 2879.78 1259.5 2879.94 1258.45 2880.03 1257.38 2880.03 1256.3 2880.03 1255.03 2879.71 1254.14 2879.07 1253.64 2878.44 1253.14 2877.43 1252.85 2876.05 1252.77ZM2820.53 1250.79 2862.84 1250.79 2859.68 1265.05 2855.79 1265.05C2855.79 1262.43 2855.72 1260.47 2855.59 1259.16 2855.45 1257.85 2855.19 1256.85 2854.82 1256.16 2854.44 1255.47 2853.97 1254.99 2853.42 1254.74 2852.86 1254.48 2851.88 1254.35 2850.48 1254.35L2844.48 1254.35 2835.69 1294.31C2835.44 1295.37 2835.27 1296.2 2835.18 1296.83 2835.09 1297.45 2835 1298.1 2834.94 1298.79 2834.87 1299.48 2834.84 1300.1 2834.84 1300.64 2834.84 1301.47 2834.97 1302.13 2835.24 1302.6 2835.51 1303.07 2835.92 1303.42 2836.46 1303.63 2837 1303.85 2837.93 1304.01 2839.25 1304.12L2838.81 1306.11 2821.74 1306.11 2822.19 1304.12C2823.27 1303.96 2824.07 1303.74 2824.58 1303.47 2825.1 1303.2 2825.55 1302.78 2825.94 1302.22 2826.33 1301.65 2826.72 1300.76 2827.11 1299.54 2827.51 1298.33 2827.97 1296.49 2828.51 1294.03L2837.19 1254.35 2832.04 1254.35C2830.36 1254.35 2829.03 1254.6 2828.03 1255.08 2827.03 1255.57 2826.03 1256.47 2825.03 1257.8 2824.03 1259.12 2822.81 1261.34 2821.38 1264.44L2817.49 1264.44ZM2739.58 1250.79 2755.79 1250.79 2755.35 1252.77C2754.32 1252.99 2753.58 1253.23 2753.14 1253.5 2752.69 1253.77 2752.29 1254.18 2751.94 1254.72 2751.59 1255.26 2751.23 1256.1 2750.85 1257.25 2750.47 1258.4 2750 1260.27 2749.43 1262.86L2740.76 1302.38 2750.73 1302.38C2752.54 1302.38 2753.96 1302.2 2755 1301.85 2756.04 1301.5 2757.03 1300.86 2757.96 1299.93 2758.89 1298.99 2759.8 1297.73 2760.7 1296.14 2761.59 1294.54 2762.49 1292.56 2763.41 1290.18L2767.34 1290.18 2763.25 1306.11 2728.96 1306.11 2729.41 1304.12C2730.44 1303.96 2731.21 1303.7 2731.72 1303.33 2732.23 1302.97 2732.66 1302.46 2733.02 1301.81 2733.37 1301.16 2733.69 1300.37 2733.99 1299.44 2734.29 1298.51 2734.73 1296.7 2735.33 1294.03L2742.22 1262.82C2742.81 1260.12 2743.11 1257.95 2743.11 1256.3 2743.11 1255.03 2742.79 1254.14 2742.15 1253.64 2741.52 1253.14 2740.51 1252.85 2739.14 1252.77ZM2799.43 1250.14C2801.91 1250.14 2804.22 1250.31 2806.34 1250.65 2808.46 1250.98 2810.8 1251.56 2813.37 1252.37L2811.1 1262.78 2807.21 1262.78C2807.1 1260.49 2806.75 1258.68 2806.15 1257.37 2805.56 1256.06 2804.71 1255.12 2803.6 1254.56 2802.49 1253.99 2801.02 1253.7 2799.18 1253.7 2796.94 1253.7 2794.97 1254.16 2793.27 1255.08 2791.56 1256 2790.27 1257.25 2789.38 1258.83 2788.48 1260.41 2788.04 1262.18 2788.04 1264.12 2788.04 1266.15 2788.57 1267.92 2789.64 1269.45 2790.71 1270.98 2792.75 1272.78 2795.78 1274.86 2798.43 1276.7 2800.45 1278.34 2801.84 1279.78 2803.23 1281.23 2804.26 1282.76 2804.92 1284.38 2805.58 1286.01 2805.91 1287.88 2805.91 1290.02 2805.91 1293.31 2805.12 1296.24 2803.54 1298.79 2801.96 1301.34 2799.73 1303.32 2796.85 1304.71 2793.98 1306.1 2790.7 1306.8 2787.03 1306.8 2784.54 1306.8 2781.86 1306.59 2778.98 1306.19 2776.1 1305.78 2773.53 1305.27 2771.26 1304.65L2773.69 1293.5 2777.58 1293.5C2777.58 1296.8 2778.35 1299.25 2779.87 1300.86 2781.4 1302.47 2783.76 1303.27 2786.94 1303.27 2790.62 1303.27 2793.51 1302.27 2795.62 1300.27 2797.72 1298.27 2798.78 1295.49 2798.78 1291.92 2798.78 1290.27 2798.49 1288.82 2797.91 1287.57 2797.33 1286.31 2796.45 1285.11 2795.27 1283.96 2794.1 1282.81 2792.4 1281.49 2790.19 1280.01 2788.19 1278.66 2786.53 1277.33 2785.2 1276.02 2783.88 1274.7 2782.82 1273.24 2782.04 1271.62 2781.26 1270 2780.87 1268.19 2780.87 1266.19 2780.87 1263 2781.64 1260.19 2783.18 1257.76 2784.72 1255.33 2786.89 1253.45 2789.7 1252.12 2792.51 1250.8 2795.75 1250.14 2799.43 1250.14Z" fill-rule="evenodd"/><text fill="#000000" fill-opacity="0" font-family="Arial,Arial_MSFontService,sans-serif" font-size="56.6572" x="2728.96" y="1299.71">𝐿𝑆𝑇𝑀</text><path d="M1108.5 872.5C1108.5 832.736 1140.74 800.5 1180.5 800.5 1220.26 800.5 1252.5 832.736 1252.5 872.5 1252.5 912.265 1220.26 944.5 1180.5 944.5 1140.74 944.5 1108.5 912.265 1108.5 872.5Z" stroke="#172C51" stroke-width="4.58333" stroke-miterlimit="8" fill="#7030A0" fill-rule="evenodd" fill-opacity="0.4"/><path d="M1136.07 843.873 1152.28 843.873 1151.84 845.859C1150.81 846.075 1150.08 846.318 1149.63 846.588 1149.18 846.858 1148.79 847.264 1148.43 847.804 1148.08 848.344 1147.72 849.189 1147.34 850.337 1146.96 851.485 1146.49 853.356 1145.92 855.95L1143.17 868.351 1164.93 868.351 1167.69 855.909C1167.93 854.802 1168.14 853.62 1168.31 852.363 1168.49 851.107 1168.58 850.114 1168.58 849.384 1168.58 848.115 1168.26 847.23 1167.62 846.73 1166.99 846.23 1165.98 845.94 1164.61 845.859L1165.05 843.873 1181.26 843.873 1180.82 845.859C1179.79 846.075 1179.05 846.318 1178.61 846.588 1178.16 846.858 1177.76 847.264 1177.41 847.804 1177.06 848.344 1176.7 849.189 1176.32 850.337 1175.94 851.485 1175.47 853.356 1174.9 855.95L1167.97 887.399C1167.62 888.993 1167.39 890.256 1167.28 891.188 1167.17 892.121 1167.12 892.965 1167.12 893.721 1167.12 894.937 1167.42 895.795 1168.03 896.295 1168.64 896.795 1169.66 897.099 1171.09 897.207L1170.64 899.193 1154.43 899.193 1154.88 897.207C1155.91 897.045 1156.68 896.781 1157.19 896.416 1157.7 896.052 1158.13 895.545 1158.49 894.897 1158.84 894.248 1159.16 893.458 1159.46 892.526 1159.76 891.594 1160.2 889.79 1160.8 887.115L1164.12 872.08 1142.36 872.08 1138.99 887.399C1138.69 888.75 1138.48 889.865 1138.34 890.743 1138.21 891.621 1138.14 892.614 1138.14 893.721 1138.14 894.883 1138.41 895.721 1138.95 896.234 1139.49 896.747 1140.55 897.072 1142.11 897.207L1141.67 899.193 1125.46 899.193 1125.9 897.207C1126.93 897.045 1127.7 896.781 1128.21 896.416 1128.72 896.052 1129.16 895.545 1129.51 894.897 1129.86 894.248 1130.18 893.458 1130.48 892.526 1130.78 891.594 1131.22 889.79 1131.82 887.115L1138.71 855.909C1138.95 854.802 1139.16 853.62 1139.34 852.363 1139.51 851.107 1139.6 850.114 1139.6 849.384 1139.6 848.115 1139.28 847.23 1138.65 846.73 1138.01 846.23 1137.01 845.94 1135.63 845.859Z" fill-rule="evenodd"/><text fill="#000000" fill-opacity="0" font-family="Arial,Arial_MSFontService,sans-serif" font-size="55.3198" x="1125.46" y="892.278">𝐻</text><path d="M1196.67 877.673 1198.49 877.673C1198.45 878.765 1198.42 879.743 1198.4 880.607 1198.38 881.471 1198.36 882.31 1198.35 883.124 1198.34 883.938 1198.34 884.742 1198.34 885.536L1198.34 908.173C1198.34 908.789 1198.36 909.32 1198.4 909.767 1198.44 910.213 1198.5 910.591 1198.59 910.898 1198.68 911.206 1198.8 911.469 1198.95 911.688 1199.1 911.906 1199.27 912.095 1199.47 912.254 1199.71 912.492 1200.03 912.676 1200.42 912.805 1200.82 912.934 1201.33 913.043 1201.94 913.132 1202.56 913.222 1203.3 913.291 1204.16 913.341 1205.02 913.39 1206.06 913.425 1207.27 913.445L1207.27 916.036 1183.65 916.036 1183.65 913.445C1184.82 913.405 1185.82 913.361 1186.63 913.311 1187.45 913.261 1188.14 913.192 1188.72 913.102 1189.29 913.013 1189.75 912.914 1190.1 912.805 1190.45 912.695 1190.75 912.561 1191.01 912.403 1191.29 912.224 1191.53 912.03 1191.73 911.822 1191.92 911.613 1192.08 911.35 1192.2 911.032 1192.32 910.715 1192.42 910.328 1192.48 909.871 1192.55 909.414 1192.59 908.848 1192.59 908.173L1192.59 886.817C1192.59 886.043 1192.44 885.497 1192.14 885.179 1191.84 884.861 1191.42 884.702 1190.86 884.702 1190.25 884.702 1189.33 885.02 1188.12 885.655 1186.91 886.291 1185.34 887.234 1183.42 888.485 1183.16 888.028 1182.92 887.572 1182.7 887.115 1182.48 886.658 1182.25 886.192 1182.02 885.715 1184.48 884.365 1186.91 883.019 1189.33 881.679 1191.74 880.339 1194.19 879.003 1196.67 877.673Z" fill-rule="evenodd"/><text fill="#000000" fill-opacity="0" font-family="Arial,Arial_MSFontService,sans-serif" font-size="38.3633" x="1182.02" y="911.241">1</text><path d="M1627.5 872.5C1627.5 832.736 1659.74 800.5 1699.5 800.5 1739.26 800.5 1771.5 832.736 1771.5 872.5 1771.5 912.265 1739.26 944.5 1699.5 944.5 1659.74 944.5 1627.5 912.265 1627.5 872.5Z" stroke="#172C51" stroke-width="4.58333" stroke-miterlimit="8" fill="#7030A0" fill-rule="evenodd" fill-opacity="0.4"/><path d="M1654.19 843.873 1670.4 843.873 1669.95 845.859C1668.92 846.075 1668.19 846.318 1667.74 846.588 1667.3 846.858 1666.9 847.264 1666.55 847.804 1666.19 848.344 1665.83 849.189 1665.45 850.337 1665.07 851.485 1664.6 853.356 1664.03 855.95L1661.28 868.351 1683.04 868.351 1685.8 855.909C1686.04 854.802 1686.25 853.62 1686.42 852.363 1686.6 851.107 1686.69 850.114 1686.69 849.384 1686.69 848.115 1686.37 847.23 1685.74 846.73 1685.1 846.23 1684.09 845.94 1682.72 845.859L1683.16 843.873 1699.37 843.873 1698.93 845.859C1697.9 846.075 1697.16 846.318 1696.72 846.588 1696.27 846.858 1695.87 847.264 1695.52 847.804 1695.17 848.344 1694.81 849.189 1694.43 850.337 1694.05 851.485 1693.58 853.356 1693.01 855.95L1686.08 887.399C1685.73 888.993 1685.5 890.256 1685.39 891.188 1685.28 892.121 1685.23 892.965 1685.23 893.721 1685.23 894.937 1685.53 895.795 1686.14 896.295 1686.75 896.795 1687.77 897.099 1689.2 897.207L1688.76 899.193 1672.54 899.193 1672.99 897.207C1674.02 897.045 1674.79 896.781 1675.3 896.416 1675.81 896.052 1676.25 895.545 1676.6 894.897 1676.95 894.248 1677.27 893.458 1677.57 892.526 1677.87 891.594 1678.31 889.79 1678.91 887.115L1682.23 872.08 1660.47 872.08 1657.1 887.399C1656.81 888.75 1656.59 889.865 1656.45 890.743 1656.32 891.621 1656.25 892.614 1656.25 893.721 1656.25 894.883 1656.52 895.721 1657.06 896.234 1657.6 896.747 1658.66 897.072 1660.22 897.207L1659.78 899.193 1643.57 899.193 1644.01 897.207C1645.04 897.045 1645.81 896.781 1646.32 896.416 1646.84 896.052 1647.27 895.545 1647.62 894.897 1647.97 894.248 1648.3 893.458 1648.59 892.526 1648.89 891.594 1649.34 889.79 1649.93 887.115L1656.82 855.909C1657.06 854.802 1657.27 853.62 1657.45 852.363 1657.62 851.107 1657.71 850.114 1657.71 849.384 1657.71 848.115 1657.39 847.23 1656.76 846.73 1656.12 846.23 1655.12 845.94 1653.74 845.859Z" fill-rule="evenodd"/><text fill="#000000" fill-opacity="0" font-family="Arial,Arial_MSFontService,sans-serif" font-size="55.3198" x="1643.57" y="892.278">𝐻</text><path d="M1714.36 877.465C1716.42 877.465 1718.19 877.698 1719.65 878.164 1721.11 878.631 1722.29 879.262 1723.21 880.056 1724.12 880.85 1724.78 881.803 1725.19 882.915 1725.59 884.027 1725.8 885.229 1725.8 886.519 1725.8 887.294 1725.74 888.013 1725.63 888.679 1725.52 889.344 1725.34 889.999 1725.07 890.644 1724.8 891.29 1724.45 891.94 1724.01 892.595 1723.57 893.251 1723.03 893.946 1722.37 894.68 1721.88 895.316 1721.23 896.05 1720.44 896.884 1719.64 897.718 1718.77 898.612 1717.83 899.565 1716.89 900.518 1715.9 901.511 1714.87 902.544 1713.83 903.576 1712.83 904.599 1711.86 905.612 1710.88 906.624 1709.99 907.607 1709.18 908.56 1708.36 909.513 1707.7 910.387 1707.18 911.181L1718.2 911.181C1719.14 911.181 1719.88 911.147 1720.44 911.077 1720.99 911.008 1721.45 910.854 1721.82 910.615 1722.19 910.377 1722.5 910.015 1722.76 909.528 1723.02 909.042 1723.32 908.372 1723.65 907.518L1726.42 907.518C1726.32 908.928 1726.23 910.347 1726.14 911.777 1726.05 913.207 1725.96 914.626 1725.86 916.036L1700.63 916.036 1700.63 914.487C1701.11 913.415 1701.66 912.358 1702.3 911.315 1702.93 910.273 1703.65 909.216 1704.44 908.143 1705.24 907.071 1706.14 905.964 1707.15 904.822 1708.16 903.68 1709.29 902.494 1710.52 901.263 1712.38 899.396 1713.9 897.803 1715.07 896.482 1716.25 895.162 1717.17 893.985 1717.84 892.953 1718.52 891.92 1718.98 890.967 1719.23 890.093 1719.48 889.22 1719.6 888.286 1719.6 887.294 1719.6 886.281 1719.46 885.348 1719.17 884.494 1718.88 883.64 1718.47 882.915 1717.93 882.32 1717.4 881.724 1716.72 881.257 1715.89 880.92 1715.07 880.582 1714.12 880.413 1713.05 880.413 1711.2 880.413 1709.65 880.915 1708.4 881.917 1707.15 882.92 1706.18 884.375 1705.48 886.281L1701.58 886.281 1701.58 880.473C1704.12 879.42 1706.46 878.656 1708.6 878.179 1710.73 877.703 1712.65 877.465 1714.36 877.465Z" fill-rule="evenodd"/><text fill="#000000" fill-opacity="0" font-family="Arial,Arial_MSFontService,sans-serif" font-size="38.5718" x="1700.63" y="911.215">2</text><path d="M2631.5 872.5C2631.5 832.736 2663.74 800.5 2703.5 800.5 2743.26 800.5 2775.5 832.736 2775.5 872.5 2775.5 912.265 2743.26 944.5 2703.5 944.5 2663.74 944.5 2631.5 912.265 2631.5 872.5Z" stroke="#172C51" stroke-width="4.58333" stroke-miterlimit="8" fill="#7030A0" fill-rule="evenodd" fill-opacity="0.4"/><path d="M2655.13 843.873 2671.34 843.873 2670.9 845.859C2669.87 846.075 2669.13 846.318 2668.69 846.588 2668.24 846.858 2667.84 847.264 2667.49 847.804 2667.14 848.344 2666.78 849.189 2666.4 850.337 2666.02 851.485 2665.55 853.356 2664.98 855.95L2662.22 868.351 2683.99 868.351 2686.74 855.909C2686.99 854.802 2687.2 853.62 2687.37 852.363 2687.55 851.107 2687.64 850.114 2687.64 849.384 2687.64 848.115 2687.32 847.23 2686.68 846.73 2686.05 846.23 2685.04 845.94 2683.66 845.859L2684.11 843.873 2700.32 843.873 2699.87 845.859C2698.85 846.075 2698.11 846.318 2697.67 846.588 2697.22 846.858 2696.82 847.264 2696.47 847.804 2696.12 848.344 2695.75 849.189 2695.38 850.337 2695 851.485 2694.53 853.356 2693.96 855.95L2687.03 887.399C2686.68 888.993 2686.45 890.256 2686.34 891.188 2686.23 892.121 2686.18 892.965 2686.18 893.721 2686.18 894.937 2686.48 895.795 2687.09 896.295 2687.7 896.795 2688.72 897.099 2690.15 897.207L2689.7 899.193 2673.49 899.193 2673.94 897.207C2674.96 897.045 2675.73 896.781 2676.25 896.416 2676.76 896.052 2677.19 895.545 2677.54 894.897 2677.9 894.248 2678.22 893.458 2678.52 892.526 2678.81 891.594 2679.26 889.79 2679.85 887.115L2683.18 872.08 2661.41 872.08 2658.05 887.399C2657.75 888.75 2657.54 889.865 2657.4 890.743 2657.27 891.621 2657.2 892.614 2657.2 893.721 2657.2 894.883 2657.47 895.721 2658.01 896.234 2658.55 896.747 2659.6 897.072 2661.17 897.207L2660.73 899.193 2644.51 899.193 2644.96 897.207C2645.99 897.045 2646.76 896.781 2647.27 896.416 2647.78 896.052 2648.22 895.545 2648.57 894.897 2648.92 894.248 2649.24 893.458 2649.54 892.526 2649.84 891.594 2650.28 889.79 2650.88 887.115L2657.77 855.909C2658.01 854.802 2658.22 853.62 2658.4 852.363 2658.57 851.107 2658.66 850.114 2658.66 849.384 2658.66 848.115 2658.34 847.23 2657.71 846.73 2657.07 846.23 2656.06 845.94 2654.69 845.859Z" fill-rule="evenodd"/><text fill="#000000" fill-opacity="0" font-family="Arial,Arial_MSFontService,sans-serif" font-size="55.3198" x="2644.51" y="892.278">𝐻</text><path d="M2708.37 885.626C2709.84 885.626 2710.97 886.107 2711.78 887.07 2712.58 888.033 2712.98 889.299 2712.98 890.868 2712.98 891.265 2712.95 891.682 2712.88 892.119 2712.81 892.556 2712.69 892.973 2712.51 893.37L2712.92 893.519C2714.85 890.878 2716.75 888.902 2718.63 887.591 2720.5 886.281 2722.45 885.626 2724.45 885.626 2726.56 885.626 2728.13 886.192 2729.17 887.323 2730.21 888.455 2730.74 890.044 2730.74 892.089 2730.74 892.705 2730.65 893.558 2730.47 894.651 2730.29 895.743 2730.06 896.934 2729.78 898.225 2729.5 899.516 2729.21 900.841 2728.89 902.201 2728.57 903.561 2728.27 904.817 2728 905.969 2727.72 907.121 2727.49 908.104 2727.31 908.918 2727.13 909.732 2727.04 910.238 2727.04 910.437 2727.04 911.191 2727.18 911.737 2727.46 912.075 2727.74 912.412 2728.18 912.581 2728.8 912.581 2729.18 912.581 2729.55 912.512 2729.92 912.373 2730.28 912.234 2730.67 912.015 2731.06 911.717 2731.46 911.42 2731.9 911.037 2732.37 910.571 2732.85 910.104 2733.39 909.543 2733.98 908.888L2736.04 910.854C2735.06 911.847 2734.17 912.7 2733.36 913.415 2732.54 914.13 2731.75 914.721 2730.99 915.187 2730.22 915.654 2729.46 916.002 2728.71 916.23 2727.96 916.458 2727.15 916.572 2726.3 916.572 2725.58 916.572 2724.92 916.433 2724.32 916.155 2723.71 915.877 2723.19 915.495 2722.75 915.009 2722.32 914.522 2721.98 913.946 2721.74 913.281 2721.5 912.616 2721.38 911.886 2721.38 911.092 2721.38 910.298 2721.47 909.369 2721.64 908.307 2721.8 907.245 2722.06 906.078 2722.4 904.807 2722.75 903.517 2723.09 902.281 2723.39 901.099 2723.7 899.918 2723.97 898.825 2724.2 897.823 2724.43 896.82 2724.6 895.926 2724.73 895.142 2724.86 894.358 2724.93 893.707 2724.93 893.191 2724.93 891.96 2724.69 891.057 2724.23 890.481 2723.76 889.905 2723.01 889.617 2721.98 889.617 2721.38 889.617 2720.74 889.771 2720.06 890.079 2719.37 890.386 2718.68 890.813 2717.99 891.359 2717.29 891.905 2716.61 892.551 2715.95 893.295 2715.28 894.04 2714.67 894.834 2714.12 895.678 2713.56 896.522 2713.07 897.406 2712.64 898.329 2712.21 899.252 2711.9 900.171 2711.7 901.084L2708.37 916.036 2702.53 916.036 2707 896.616C2707.25 895.584 2707.44 894.661 2707.56 893.846 2707.68 893.032 2707.74 892.367 2707.74 891.851 2707.74 890.401 2707.16 889.676 2705.98 889.676 2705.63 889.676 2705.26 889.751 2704.9 889.9 2704.53 890.049 2704.14 890.272 2703.74 890.57 2703.33 890.868 2702.89 891.245 2702.41 891.702 2701.93 892.159 2701.4 892.695 2700.8 893.31L2698.75 891.374C2699.74 890.362 2700.65 889.493 2701.47 888.768 2702.3 888.043 2703.08 887.448 2703.82 886.981 2704.57 886.514 2705.31 886.172 2706.04 885.953 2706.78 885.735 2707.55 885.626 2708.37 885.626Z" fill-rule="evenodd"/><text fill="#000000" fill-opacity="0" font-family="Arial,Arial_MSFontService,sans-serif" font-size="30.9468" x="2698.75" y="912.704">𝑛</text><path d="M3226.09 1973.77C3227.49 1973.77 3228.67 1974.26 3229.61 1975.24 3230.56 1976.23 3231.03 1977.48 3231.03 1978.99 3231.03 1980.51 3230.56 1981.76 3229.61 1982.74 3228.67 1983.73 3227.49 1984.22 3226.09 1984.22 3224.68 1984.22 3223.5 1983.73 3222.56 1982.74 3221.61 1981.76 3221.14 1980.51 3221.14 1978.99 3221.14 1977.48 3221.61 1976.23 3222.56 1975.24 3223.5 1974.26 3224.68 1973.77 3226.09 1973.77ZM3201.53 1973.77C3202.93 1973.77 3204.11 1974.26 3205.05 1975.24 3206 1976.23 3206.47 1977.48 3206.47 1978.99 3206.47 1980.51 3206 1981.76 3205.05 1982.74 3204.11 1983.73 3202.93 1984.22 3201.53 1984.22 3200.12 1984.22 3198.95 1983.73 3198 1982.74 3197.05 1981.76 3196.58 1980.51 3196.58 1978.99 3196.58 1977.48 3197.05 1976.23 3198 1975.24 3198.95 1974.26 3200.12 1973.77 3201.53 1973.77ZM3176.97 1973.77C3178.37 1973.77 3179.55 1974.26 3180.49 1975.24 3181.44 1976.23 3181.91 1977.48 3181.91 1978.99 3181.91 1980.51 3181.44 1981.76 3180.49 1982.74 3179.55 1983.73 3178.37 1984.22 3176.97 1984.22 3175.56 1984.22 3174.39 1983.73 3173.44 1982.74 3172.49 1981.76 3172.02 1980.51 3172.02 1978.99 3172.02 1977.48 3172.49 1976.23 3173.44 1975.24 3174.39 1974.26 3175.56 1973.77 3176.97 1973.77Z" fill-rule="evenodd"/><text fill="#000000" fill-opacity="0" font-family="Arial,Arial_MSFontService,sans-serif" font-size="10.4561" x="3172.02" y="1982.91">⋯</text><path d="M3084.28 1625.15C3085.69 1625.15 3086.86 1625.64 3087.81 1626.62 3088.75 1627.61 3089.23 1628.86 3089.23 1630.37 3089.23 1631.89 3088.75 1633.14 3087.81 1634.12 3086.86 1635.11 3085.69 1635.6 3084.28 1635.6 3082.88 1635.6 3081.7 1635.11 3080.76 1634.12 3079.81 1633.14 3079.34 1631.89 3079.34 1630.37 3079.34 1628.86 3079.81 1627.61 3080.76 1626.62 3081.7 1625.64 3082.88 1625.15 3084.28 1625.15ZM3059.72 1625.15C3061.13 1625.15 3062.3 1625.64 3063.25 1626.62 3064.2 1627.61 3064.67 1628.86 3064.67 1630.37 3064.67 1631.89 3064.2 1633.14 3063.25 1634.12 3062.3 1635.11 3061.13 1635.6 3059.72 1635.6 3058.32 1635.6 3057.14 1635.11 3056.2 1634.12 3055.25 1633.14 3054.78 1631.89 3054.78 1630.37 3054.78 1628.86 3055.25 1627.61 3056.2 1626.62 3057.14 1625.64 3058.32 1625.15 3059.72 1625.15ZM3035.16 1625.15C3036.57 1625.15 3037.74 1625.64 3038.69 1626.62 3039.64 1627.61 3040.11 1628.86 3040.11 1630.37 3040.11 1631.89 3039.64 1633.14 3038.69 1634.12 3037.74 1635.11 3036.57 1635.6 3035.16 1635.6 3033.76 1635.6 3032.58 1635.11 3031.64 1634.12 3030.69 1633.14 3030.22 1631.89 3030.22 1630.37 3030.22 1628.86 3030.69 1627.61 3031.64 1626.62 3032.58 1625.64 3033.76 1625.15 3035.16 1625.15Z" fill-rule="evenodd"/><text fill="#000000" fill-opacity="0" font-family="Arial,Arial_MSFontService,sans-serif" font-size="10.4561" x="3030.22" y="1634.29">⋯</text><path d="M3367.89 1276.53C3369.29 1276.53 3370.47 1277.02 3371.41 1278 3372.36 1278.99 3372.83 1280.24 3372.83 1281.75 3372.83 1283.27 3372.36 1284.52 3371.41 1285.5 3370.47 1286.49 3369.29 1286.98 3367.89 1286.98 3366.48 1286.98 3365.31 1286.49 3364.36 1285.5 3363.42 1284.52 3362.94 1283.27 3362.94 1281.75 3362.94 1280.24 3363.42 1278.99 3364.36 1278 3365.31 1277.02 3366.48 1276.53 3367.89 1276.53ZM3343.33 1276.53C3344.73 1276.53 3345.91 1277.02 3346.85 1278 3347.8 1278.99 3348.27 1280.24 3348.27 1281.75 3348.27 1283.27 3347.8 1284.52 3346.85 1285.5 3345.91 1286.49 3344.73 1286.98 3343.33 1286.98 3341.92 1286.98 3340.75 1286.49 3339.8 1285.5 3338.86 1284.52 3338.38 1283.27 3338.38 1281.75 3338.38 1280.24 3338.86 1278.99 3339.8 1278 3340.75 1277.02 3341.92 1276.53 3343.33 1276.53ZM3318.77 1276.53C3320.17 1276.53 3321.35 1277.02 3322.29 1278 3323.24 1278.99 3323.71 1280.24 3323.71 1281.75 3323.71 1283.27 3323.24 1284.52 3322.29 1285.5 3321.35 1286.49 3320.17 1286.98 3318.77 1286.98 3317.36 1286.98 3316.19 1286.49 3315.24 1285.5 3314.3 1284.52 3313.82 1283.27 3313.82 1281.75 3313.82 1280.24 3314.3 1278.99 3315.24 1278 3316.19 1277.02 3317.36 1276.53 3318.77 1276.53Z" fill-rule="evenodd"/><text fill="#000000" fill-opacity="0" font-family="Arial,Arial_MSFontService,sans-serif" font-size="10.4561" x="3313.82" y="1285.67">⋯</text><path d="M1127.16 1927.76 1045.67 1743.39 1049.86 1741.53 1131.35 1925.91ZM1037.04 1752.21 1038.5 1721.5 1062.19 1741.09Z"/><path d="M2.26152-0.370515 89.3139 530.971 84.7908 531.712-2.26152 0.370515ZM99.8805 524.596 90.7576 553.958 72.7423 529.042Z" transform="matrix(1 0 0 -1 1231.5 1927.46)"/><path d="M2.26675-0.337039 89.6541 587.384 85.1206 588.059-2.26675 0.337039ZM100.314 581.165 90.7576 610.388 73.1126 585.209Z" transform="matrix(1 0 0 -1 1038.5 1533.89)"/><path d="M1320.09 1186.02 1236.84 945.903 1241.17 944.402 1324.42 1184.52ZM1227.52 953.987 1231.5 923.5 1253.5 944.979Z"/><path d="M1646.16 1927.76 1564.67 1743.39 1568.86 1741.53 1650.35 1925.91ZM1556.04 1752.21 1557.5 1721.5 1581.19 1741.09Z"/><path d="M2.26152-0.370515 89.3139 530.971 84.7908 531.712-2.26152 0.370515ZM99.8805 524.596 90.7576 553.958 72.7423 529.042Z" transform="matrix(1 0 0 -1 1750.5 1927.46)"/><path d="M1839.09 1186.02 1755.84 945.903 1760.17 944.402 1843.42 1184.52ZM1746.52 953.987 1750.5 923.5 1772.5 944.979Z"/><path d="M2.26675-0.337039 89.6541 587.384 85.1206 588.059-2.26675 0.337039ZM100.314 581.165 90.7576 610.388 73.1126 585.209Z" transform="matrix(1 0 0 -1 1557.5 1533.89)"/><path d="M2648.16 1927.76 2566.67 1743.39 2570.86 1741.53 2652.35 1925.91ZM2558.04 1752.21 2559.5 1721.5 2583.19 1741.09Z"/><path d="M2.26152-0.370515 89.3139 530.971 84.7908 531.712-2.26152 0.370515ZM99.8805 524.596 90.7576 553.958 72.7423 529.042Z" transform="matrix(1 0 0 -1 2752.5 1927.46)"/><path d="M2.26565-0.344336 91.5895 587.386 87.0582 588.075-2.26565 0.344336ZM102.229 581.134 92.7674 610.388 75.0415 585.266Z" transform="matrix(1 0 0 -1 2559.5 1533.89)"/><path d="M2841.08 1186 2759.69 945.939 2764.03 944.468 2845.42 1184.53ZM2750.31 953.959 2754.5 923.5 2776.35 945.129Z"/><path d="M1731.5 1624.06 1887.48 1624.06 1887.48 1630.94 1731.5 1630.94ZM1882.89 1613.75 1910.39 1627.5 1882.89 1641.25Z" fill="#4472C4"/><path d="M1212.5 1624.06 1360.6 1624.06 1360.6 1630.94 1212.5 1630.94ZM1356.02 1613.75 1383.52 1627.5 1356.02 1641.25Z" fill="#4472C4"/><path d="M2206.5 1624.06 2362.48 1624.06 2362.48 1630.94 2206.5 1630.94ZM2357.89 1613.75 2385.39 1627.5 2357.89 1641.25Z" fill="#4472C4"/><path d="M2733.5 1624.06 2889.48 1624.06 2889.48 1630.94 2733.5 1630.94ZM2884.89 1613.75 2912.39 1627.5 2884.89 1641.25Z" fill="#4472C4"/><path d="M6.93468e-06-3.4375 155.977-3.43719 155.977 3.43781-6.93468e-06 3.4375ZM151.393-13.7497 178.893 0.000360892 151.393 13.7503Z" fill="#4472C4" transform="matrix(-1 0 0 1 2194.39 1279.5)"/><path d="M6.93468e-06-3.4375 155.977-3.43719 155.977 3.43781-6.93468e-06 3.4375ZM151.393-13.7497 178.893 0.000360892 151.393 13.7503Z" fill="#4472C4" transform="matrix(-1 0 0 1 2669.39 1279.5)"/><path d="M6.93468e-06-3.4375 155.977-3.43719 155.977 3.43781-6.93468e-06 3.4375ZM151.393-13.7497 178.893 0.000360892 151.393 13.7503Z" fill="#4472C4" transform="matrix(-1 0 0 1 3196.39 1279.5)"/><path d="M7.25411e-06-3.4375 148.099-3.43719 148.099 3.43781-7.25411e-06 3.4375ZM143.516-13.7497 171.016 0.000360892 143.516 13.7503Z" fill="#4472C4" transform="matrix(-1 0 0 1 1667.52 1279.5)"/><path d="M703.054 1972.95C704.459 1972.95 705.634 1973.45 706.58 1974.43 707.525 1975.42 707.998 1976.67 707.998 1978.18 707.998 1979.69 707.525 1980.94 706.58 1981.93 705.634 1982.92 704.459 1983.41 703.054 1983.41 701.649 1983.41 700.474 1982.92 699.528 1981.93 698.582 1980.94 698.109 1979.69 698.109 1978.18 698.109 1976.67 698.582 1975.42 699.528 1974.43 700.474 1973.45 701.649 1972.95 703.054 1972.95ZM678.494 1972.95C679.899 1972.95 681.075 1973.45 682.02 1974.43 682.966 1975.42 683.439 1976.67 683.439 1978.18 683.439 1979.69 682.966 1980.94 682.02 1981.93 681.075 1982.92 679.899 1983.41 678.494 1983.41 677.089 1983.41 675.914 1982.92 674.968 1981.93 674.023 1980.94 673.55 1979.69 673.55 1978.18 673.55 1976.67 674.023 1975.42 674.968 1974.43 675.914 1973.45 677.089 1972.95 678.494 1972.95ZM653.935 1972.95C655.34 1972.95 656.515 1973.45 657.461 1974.43 658.406 1975.42 658.879 1976.67 658.879 1978.18 658.879 1979.69 658.406 1980.94 657.461 1981.93 656.515 1982.92 655.34 1983.41 653.935 1983.41 652.53 1983.41 651.354 1982.92 650.409 1981.93 649.463 1980.94 648.99 1979.69 648.99 1978.18 648.99 1976.67 649.463 1975.42 650.409 1974.43 651.354 1973.45 652.53 1972.95 653.935 1972.95Z" fill-rule="evenodd"/><text fill="#000000" fill-opacity="0" font-family="Arial,Arial_MSFontService,sans-serif" font-size="10.4561" x="648.99" y="1982.1">⋯</text><path d="M845.908 1276.53C847.313 1276.53 848.488 1277.02 849.434 1278 850.38 1278.99 850.852 1280.24 850.852 1281.75 850.852 1283.27 850.38 1284.52 849.434 1285.5 848.488 1286.49 847.313 1286.98 845.908 1286.98 844.503 1286.98 843.328 1286.49 842.382 1285.5 841.437 1284.52 840.964 1283.27 840.964 1281.75 840.964 1280.24 841.437 1278.99 842.382 1278 843.328 1277.02 844.503 1276.53 845.908 1276.53ZM821.348 1276.53C822.753 1276.53 823.929 1277.02 824.874 1278 825.82 1278.99 826.293 1280.24 826.293 1281.75 826.293 1283.27 825.82 1284.52 824.874 1285.5 823.929 1286.49 822.753 1286.98 821.348 1286.98 819.943 1286.98 818.768 1286.49 817.823 1285.5 816.877 1284.52 816.404 1283.27 816.404 1281.75 816.404 1280.24 816.877 1278.99 817.823 1278 818.768 1277.02 819.943 1276.53 821.348 1276.53ZM796.789 1276.53C798.194 1276.53 799.369 1277.02 800.315 1278 801.26 1278.99 801.733 1280.24 801.733 1281.75 801.733 1283.27 801.26 1284.52 800.315 1285.5 799.369 1286.49 798.194 1286.98 796.789 1286.98 795.384 1286.98 794.209 1286.49 793.263 1285.5 792.317 1284.52 791.845 1283.27 791.845 1281.75 791.845 1280.24 792.317 1278.99 793.263 1278 794.209 1277.02 795.384 1276.53 796.789 1276.53Z" fill-rule="evenodd"/><text fill="#000000" fill-opacity="0" font-family="Arial,Arial_MSFontService,sans-serif" font-size="10.4561" x="791.845" y="1285.67">⋯</text><path d="M6.93468e-06-3.4375 155.977-3.43719 155.977 3.43781-6.93468e-06 3.4375ZM151.393-13.7497 178.893 0.000360892 151.393 13.7503Z" fill="#4472C4" transform="matrix(-1 0 0 1 1148.39 1279.5)"/><path d="M563.83 1624.74C565.235 1624.74 566.41 1625.23 567.356 1626.22 568.302 1627.2 568.775 1628.45 568.775 1629.97 568.775 1631.48 568.302 1632.73 567.356 1633.72 566.41 1634.7 565.235 1635.19 563.83 1635.19 562.425 1635.19 561.25 1634.7 560.304 1633.72 559.359 1632.73 558.886 1631.48 558.886 1629.97 558.886 1628.45 559.359 1627.2 560.304 1626.22 561.25 1625.23 562.425 1624.74 563.83 1624.74ZM539.271 1624.74C540.676 1624.74 541.851 1625.23 542.797 1626.22 543.742 1627.2 544.215 1628.45 544.215 1629.97 544.215 1631.48 543.742 1632.73 542.797 1633.72 541.851 1634.7 540.676 1635.19 539.271 1635.19 537.866 1635.19 536.69 1634.7 535.745 1633.72 534.799 1632.73 534.326 1631.48 534.326 1629.97 534.326 1628.45 534.799 1627.2 535.745 1626.22 536.69 1625.23 537.866 1624.74 539.271 1624.74ZM514.711 1624.74C516.116 1624.74 517.291 1625.23 518.237 1626.22 519.183 1627.2 519.655 1628.45 519.655 1629.97 519.655 1631.48 519.183 1632.73 518.237 1633.72 517.291 1634.7 516.116 1635.19 514.711 1635.19 513.306 1635.19 512.131 1634.7 511.185 1633.72 510.24 1632.73 509.767 1631.48 509.767 1629.97 509.767 1628.45 510.24 1627.2 511.185 1626.22 512.131 1625.23 513.306 1624.74 514.711 1624.74Z" fill-rule="evenodd"/><text fill="#000000" fill-opacity="0" font-family="Arial,Arial_MSFontService,sans-serif" font-size="10.4561" x="509.767" y="1633.89">⋯</text><path d="M687.508 1624.06 841.959 1624.42 841.943 1631.29 687.492 1630.94ZM837.399 1614.09 864.867 1627.91 837.336 1641.59Z" fill="#4472C4"/></g></svg>