<svg width="1961" height="1177" xmlns="http://www.w3.org/2000/svg" xmlns:xlink="http://www.w3.org/1999/xlink" xml:space="preserve" overflow="hidden"><defs><clipPath id="clip0"><rect x="1167" y="257" width="1961" height="1177"/></clipPath></defs><g clip-path="url(#clip0)" transform="translate(-1167 -257)"><path d="M1559.06 259.722 3118.11 259.722 3118.11 454.604 1559.06 454.604Z" fill="#4472C4" fill-rule="evenodd" fill-opacity="0.2"/><path d="M1559.06 454.604 2338.58 454.604 2338.58 649.486 1559.06 649.486Z" fill="#F4B183" fill-rule="evenodd" fill-opacity="0.6"/><path d="M2338.58 454.604 3118.11 454.604 3118.11 649.486 2338.58 649.486Z" fill="#A9D18E" fill-rule="evenodd" fill-opacity="0.6"/><path d="M1169.29 649.486 1364.17 649.486 1364.17 1429.01 1169.29 1429.01Z" fill="#4472C4" fill-rule="evenodd" fill-opacity="0.2"/><path d="M1364.17 649.486 1559.06 649.486 1559.06 1039.25 1364.17 1039.25Z" fill="#F4B183" fill-rule="evenodd" fill-opacity="0.6"/><path d="M1559.06 649.486 2338.58 649.486 2338.58 1039.25 1559.06 1039.25Z" fill="#C5E0B4" fill-rule="evenodd" fill-opacity="0.501961"/><path d="M2338.58 649.486 3118.11 649.486 3118.11 1039.25 2338.58 1039.25Z" fill="#F8CBAD" fill-rule="evenodd" fill-opacity="0.501961"/><path d="M1364.17 1039.25 1559.06 1039.25 1559.06 1429.01 1364.17 1429.01Z" fill="#C5E0B4" fill-rule="evenodd" fill-opacity="0.6"/><path d="M1559.06 1039.25 2338.58 1039.25 2338.58 1429.01 1559.06 1429.01Z" fill="#F8CBAD" fill-rule="evenodd" fill-opacity="0.501961"/><path d="M2338.58 1039.25 3118.11 1039.25 3118.11 1429.01 2338.58 1429.01Z" fill="#C5E0B4" fill-rule="evenodd" fill-opacity="0.501961"/><path d="M1364.17 642.611 1364.17 1431.3" stroke="#FFFFFF" stroke-width="4.58333" stroke-linejoin="round" stroke-miterlimit="10" fill="none" fill-rule="evenodd"/><path d="M1559.06 257.43 1559.06 447.729" stroke="#FFFFFF" stroke-width="4.58333" stroke-linejoin="round" stroke-miterlimit="10" fill="none" fill-rule="evenodd"/><path d="M1559.06 447.729 1559.06 656.361" stroke="#FFFFFF" stroke-width="13.75" stroke-linejoin="round" stroke-miterlimit="10" fill="none" fill-rule="evenodd"/><path d="M1559.06 656.361 1559.06 1431.3" stroke="#FFFFFF" stroke-width="4.58333" stroke-linejoin="round" stroke-miterlimit="10" fill="none" fill-rule="evenodd"/><path d="M2338.58 447.729 2338.58 1431.3" stroke="#FFFFFF" stroke-width="4.58333" stroke-linejoin="round" stroke-miterlimit="10" fill="none" fill-rule="evenodd"/><path d="M1552.18 454.604 3120.4 454.604" stroke="#FFFFFF" stroke-width="13.75" stroke-linejoin="round" stroke-miterlimit="10" fill="none" fill-rule="evenodd"/><path d="M1167 649.486 1565.93 649.486" stroke="#FFFFFF" stroke-width="13.75" stroke-linejoin="round" stroke-miterlimit="10" fill="none" fill-rule="evenodd"/><path d="M1565.93 649.486 3120.4 649.486" stroke="#FFFFFF" stroke-width="4.58333" stroke-linejoin="round" stroke-miterlimit="10" fill="none" fill-rule="evenodd"/><path d="M1361.88 1039.25 3120.4 1039.25" stroke="#FFFFFF" stroke-width="4.58333" stroke-linejoin="round" stroke-miterlimit="10" fill="none" fill-rule="evenodd"/><path d="M1169.29 257.43 1169.29 1431.3" stroke="#FFFFFF" stroke-width="4.58333" stroke-linejoin="round" stroke-miterlimit="10" fill="none" fill-rule="evenodd"/><path d="M3118.11 257.43 3118.11 1431.3" stroke="#FFFFFF" stroke-width="4.58333" stroke-linejoin="round" stroke-miterlimit="10" fill="none" fill-rule="evenodd"/><path d="M1167 259.722 3120.4 259.722" stroke="#FFFFFF" stroke-width="4.58333" stroke-linejoin="round" stroke-miterlimit="10" fill="none" fill-rule="evenodd"/><path d="M1167 1429.01 3120.4 1429.01" stroke="#FFFFFF" stroke-width="4.58333" stroke-linejoin="round" stroke-miterlimit="10" fill="none" fill-rule="evenodd"/><text font-family="DengXian,DengXian_MSFontService,sans-serif" font-weight="400" font-size="83" transform="matrix(1 0 0 1 2044.1 385)">Predicted Values</text><text font-family="DengXian,DengXian_MSFontService,sans-serif" font-weight="400" font-size="73" transform="matrix(1 0 0 1 2607.75 576)">Positive</text><text font-family="DengXian,DengXian_MSFontService,sans-serif" font-weight="400" font-size="73" transform="matrix(1 0 0 1 1807.59 576)">Negative</text><text font-family="DengXian,DengXian_MSFontService,sans-serif" font-weight="400" font-size="83" transform="matrix(1 0 0 1 2494.31 822)">False Positive</text><text font-family="DengXian,DengXian_MSFontService,sans-serif" font-weight="400" font-size="83" transform="matrix(1 0 0 1 2661.88 921)">(FP)</text><text font-family="DengXian,DengXian_MSFontService,sans-serif" font-weight="400" font-size="83" transform="matrix(1 0 0 1 1699.89 822)">True Negative</text><text font-family="DengXian,DengXian_MSFontService,sans-serif" font-weight="400" font-size="83" transform="matrix(1 0 0 1 1873.18 921)">(TN)</text><text font-family="DengXian,DengXian_MSFontService,sans-serif" font-weight="400" font-size="73" transform="matrix(6.12323e-17 -1 1 6.12323e-17 1485.61 986)">Negative</text><text font-family="DengXian,DengXian_MSFontService,sans-serif" font-weight="400" font-size="83" transform="matrix(6.12323e-17 -1 1 6.12323e-17 1294.23 1245)">True Values</text><text font-family="DengXian,DengXian_MSFontService,sans-serif" font-weight="400" font-size="83" transform="matrix(1 0 0 1 2502.62 1212)">True Positive</text><text font-family="DengXian,DengXian_MSFontService,sans-serif" font-weight="400" font-size="83" transform="matrix(1 0 0 1 2660.17 1311)">(TP)</text><text font-family="DengXian,DengXian_MSFontService,sans-serif" font-weight="400" font-size="83" transform="matrix(1 0 0 1 1691.58 1212)">False Negative</text><text font-family="DengXian,DengXian_MSFontService,sans-serif" font-weight="400" font-size="83" transform="matrix(1 0 0 1 1874.91 1311)">(FN)</text><text font-family="DengXian,DengXian_MSFontService,sans-serif" font-weight="400" font-size="73" transform="matrix(6.12323e-17 -1 1 6.12323e-17 1485.61 1355)">Positive</text></g></svg>