<svg width="4037" height="872" xmlns="http://www.w3.org/2000/svg" xmlns:xlink="http://www.w3.org/1999/xlink" xml:space="preserve" overflow="hidden"><g transform="translate(-182 -863)"><path d="M870.5 1054.67C870.5 1043.53 879.529 1034.5 890.667 1034.5L1135.33 1034.5C1146.47 1034.5 1155.5 1043.53 1155.5 1054.67L1155.5 1135.33C1155.5 1146.47 1146.47 1155.5 1135.33 1155.5L890.667 1155.5C879.529 1155.5 870.5 1146.47 870.5 1135.33Z" stroke="#172C51" stroke-width="4.58333" stroke-miterlimit="8" fill="#FFFFFF" fill-rule="evenodd"/><text font-family="Cambria,Cambria_MSFontService,sans-serif" font-weight="400" font-size="73" transform="matrix(1 0 0 1 936.858 1122)">BoW</text><path d="M870.5 1295.67C870.5 1284.53 879.529 1275.5 890.667 1275.5L1595.33 1275.5C1606.47 1275.5 1615.5 1284.53 1615.5 1295.67L1615.5 1376.33C1615.5 1387.47 1606.47 1396.5 1595.33 1396.5L890.667 1396.5C879.529 1396.5 870.5 1387.47 870.5 1376.33Z" stroke="#172C51" stroke-width="4.58333" stroke-miterlimit="8" fill="#FFFFFF" fill-rule="evenodd"/><text font-family="Cambria,Cambria_MSFontService,sans-serif" font-weight="400" font-size="73" transform="matrix(1 0 0 1 969.554 1363)">Word Embedding</text><path d="M1834.5 937.667C1834.5 926.529 1843.53 917.5 1854.67 917.5L2099.33 917.5C2110.47 917.5 2119.5 926.529 2119.5 937.667L2119.5 1018.33C2119.5 1029.47 2110.47 1038.5 2099.33 1038.5L1854.67 1038.5C1843.53 1038.5 1834.5 1029.47 1834.5 1018.33Z" stroke="#172C51" stroke-width="4.58333" stroke-miterlimit="8" fill="#FFFFFF" fill-rule="evenodd"/><text font-family="Cambria,Cambria_MSFontService,sans-serif" font-weight="400" font-size="73" transform="matrix(1 0 0 1 1934.05 1004)">LR</text><path d="M1834.5 1174.67C1834.5 1163.53 1843.53 1154.5 1854.67 1154.5L2213.33 1154.5C2224.47 1154.5 2233.5 1163.53 2233.5 1174.67L2233.5 1255.33C2233.5 1266.47 2224.47 1275.5 2213.33 1275.5L1854.67 1275.5C1843.53 1275.5 1834.5 1266.47 1834.5 1255.33Z" stroke="#172C51" stroke-width="4.58333" stroke-miterlimit="8" fill="#FFFFFF" fill-rule="evenodd"/><text font-family="Cambria,Cambria_MSFontService,sans-serif" font-weight="400" font-size="73" transform="matrix(1 0 0 1 1899.6 1241)">Bi</text><text font-family="Cambria,Cambria_MSFontService,sans-serif" font-weight="400" font-size="73" transform="matrix(1 0 0 1 1964.92 1241)">-</text><text font-family="Cambria,Cambria_MSFontService,sans-serif" font-weight="400" font-size="73" transform="matrix(1 0 0 1 1989.55 1241)">LSTM</text><path d="M1834.5 1411.67C1834.5 1400.53 1843.53 1391.5 1854.67 1391.5L2099.33 1391.5C2110.47 1391.5 2119.5 1400.53 2119.5 1411.67L2119.5 1492.33C2119.5 1503.47 2110.47 1512.5 2099.33 1512.5L1854.67 1512.5C1843.53 1512.5 1834.5 1503.47 1834.5 1492.33Z" stroke="#172C51" stroke-width="4.58333" stroke-miterlimit="8" fill="#FFFFFF" fill-rule="evenodd"/><text font-family="Cambria,Cambria_MSFontService,sans-serif" font-weight="400" font-size="73" transform="matrix(1 0 0 1 1889.65 1478)">BERT</text><path d="M0-3.4375 169.673-3.4375 169.673 239.427 166.235 235.989 309.554 235.989 309.554 242.864 162.798 242.864 162.798 0 166.235 3.4375 0 3.4375ZM304.97 225.677 332.47 239.427 304.97 253.177Z" transform="matrix(1 0 0 -1 2119.5 1451.93)"/><path d="M2119.5 974.063 2289.17 974.063 2289.17 1212.35 2285.74 1208.91 2429.05 1208.91 2429.05 1215.79 2282.3 1215.79 2282.3 977.5 2285.74 980.938 2119.5 980.938ZM2424.47 1198.6 2451.97 1212.35 2424.47 1226.1Z"/><path d="M184.5 1174.67C184.5 1163.53 193.529 1154.5 204.667 1154.5L631.333 1154.5C642.471 1154.5 651.5 1163.53 651.5 1174.67L651.5 1255.33C651.5 1266.47 642.471 1275.5 631.333 1275.5L204.667 1275.5C193.529 1275.5 184.5 1266.47 184.5 1255.33Z" stroke="#172C51" stroke-width="4.58333" stroke-miterlimit="8" fill="#FFFFFF" fill-rule="evenodd"/><text font-family="DengXian,DengXian_MSFontService,sans-serif" font-weight="400" font-size="73" transform="matrix(1 0 0 1 351.97 1238)">Text</text><path d="M2452.5 1171.83C2452.5 1160.6 2461.6 1151.5 2472.83 1151.5L3291.17 1151.5C3302.4 1151.5 3311.5 1160.6 3311.5 1171.83L3311.5 1253.17C3311.5 1264.4 3302.4 1273.5 3291.17 1273.5L2472.83 1273.5C2461.6 1273.5 2452.5 1264.4 2452.5 1253.17Z" stroke="#172C51" stroke-width="4.58333" stroke-miterlimit="8" fill="#FFFFFF" fill-rule="evenodd"/><text font-family="Cambria,Cambria_MSFontService,sans-serif" font-weight="400" font-size="73" transform="matrix(1 0 0 1 2490.58 1239)">Identification Results</text><path d="M651.5 1211.06 764.366 1211.06 764.366 1335.76 760.928 1332.32 847.44 1332.32 847.44 1339.2 757.491 1339.2 757.491 1214.5 760.928 1217.94 651.5 1217.94ZM842.857 1322.01 870.357 1335.76 842.857 1349.51Z"/><path d="M0-3.4375 112.866-3.4375 112.866 119.639 109.428 116.201 195.94 116.201 195.94 123.076 105.991 123.076 105.991 0 109.428 3.4375 0 3.4375ZM191.357 105.889 218.857 119.639 191.357 133.389Z" transform="matrix(1 0 0 -1 651.5 1215.14)"/><path d="M804.5 1044.83C804.5 999.363 841.362 962.5 886.835 962.5L1576.17 962.5C1621.64 962.5 1658.5 999.363 1658.5 1044.83L1658.5 1374.17C1658.5 1419.64 1621.64 1456.5 1576.17 1456.5L886.835 1456.5C841.362 1456.5 804.5 1419.64 804.5 1374.17Z" stroke="#172C51" stroke-width="4.58333" stroke-miterlimit="8" stroke-dasharray="4.58333 4.58333" fill="none" fill-rule="evenodd"/><path d="M1778.5 945.669C1778.5 901.393 1814.39 865.5 1858.67 865.5L2179.33 865.5C2223.61 865.5 2259.5 901.393 2259.5 945.669L2259.5 1483.33C2259.5 1527.61 2223.61 1563.5 2179.33 1563.5L1858.67 1563.5C1814.39 1563.5 1778.5 1527.61 1778.5 1483.33Z" stroke="#172C51" stroke-width="4.58333" stroke-miterlimit="8" stroke-dasharray="4.58333 4.58333" fill="none" fill-rule="evenodd"/><text font-family="Cambria,Cambria_MSFontService,sans-serif" font-weight="400" font-size="55" transform="matrix(1 0 0 1 1933.79 1656)">Models</text><text font-family="Cambria,Cambria_MSFontService,sans-serif" font-weight="400" font-size="55" transform="matrix(1 0 0 1 1112.37 1622)">Word </text><text font-family="Cambria,Cambria_MSFontService,sans-serif" font-weight="400" font-size="55" transform="matrix(1 0 0 1 1020.82 1688)">Vectorization</text><path d="M1980.94 1512.81 1980.94 1528.85 1977.5 1525.41 1982.08 1525.41 1982.08 1532.29 1974.06 1532.29 1974.06 1512.81ZM1988.96 1525.41 2009.58 1525.41 2009.58 1532.29 1988.96 1532.29ZM2016.46 1525.41 2037.08 1525.41 2037.08 1532.29 2016.46 1532.29ZM2043.96 1525.41 2064.58 1525.41 2064.58 1532.29 2043.96 1532.29ZM2071.46 1525.41 2092.08 1525.41 2092.08 1532.29 2071.46 1532.29ZM2098.96 1525.41 2119.58 1525.41 2119.58 1532.29 2098.96 1532.29ZM2126.46 1525.41 2147.08 1525.41 2147.08 1532.29 2126.46 1532.29ZM2153.96 1525.41 2174.58 1525.41 2174.58 1532.29 2153.96 1532.29ZM2181.46 1525.41 2202.08 1525.41 2202.08 1532.29 2181.46 1532.29ZM2208.96 1525.41 2229.58 1525.41 2229.58 1532.29 2208.96 1532.29ZM2236.46 1525.41 2257.08 1525.41 2257.08 1532.29 2236.46 1532.29ZM2263.96 1525.41 2284.58 1525.41 2284.58 1532.29 2263.96 1532.29ZM2291.46 1525.41 2312.08 1525.41 2312.08 1532.29 2291.46 1532.29ZM2318.96 1525.41 2339.58 1525.41 2339.58 1532.29 2318.96 1532.29ZM2346.46 1525.41 2367.08 1525.41 2367.08 1532.29 2346.46 1532.29ZM2373.96 1525.41 2394.58 1525.41 2394.58 1532.29 2373.96 1532.29ZM2401.46 1525.41 2422.08 1525.41 2422.08 1532.29 2401.46 1532.29ZM2428.96 1525.41 2449.58 1525.41 2449.58 1532.29 2428.96 1532.29ZM2456.46 1525.41 2477.08 1525.41 2477.08 1532.29 2456.46 1532.29ZM2483.96 1525.41 2504.58 1525.41 2504.58 1532.29 2483.96 1532.29ZM2511.46 1525.41 2532.08 1525.41 2532.08 1532.29 2511.46 1532.29ZM2538.96 1525.41 2559.58 1525.41 2559.58 1532.29 2538.96 1532.29ZM2566.46 1525.41 2587.08 1525.41 2587.08 1532.29 2566.46 1532.29ZM2593.96 1525.41 2614.58 1525.41 2614.58 1532.29 2593.96 1532.29ZM2621.46 1525.41 2642.08 1525.41 2642.08 1532.29 2621.46 1532.29ZM2648.96 1525.41 2669.58 1525.41 2669.58 1532.29 2648.96 1532.29ZM2676.46 1525.41 2697.08 1525.41 2697.08 1532.29 2676.46 1532.29ZM2703.96 1525.41 2724.58 1525.41 2724.58 1532.29 2703.96 1532.29ZM2731.46 1525.41 2752.08 1525.41 2752.08 1532.29 2731.46 1532.29ZM2758.96 1525.41 2779.58 1525.41 2779.58 1532.29 2758.96 1532.29ZM2786.46 1525.41 2807.08 1525.41 2807.08 1532.29 2786.46 1532.29ZM2813.96 1525.41 2834.58 1525.41 2834.58 1532.29 2813.96 1532.29ZM2841.46 1525.41 2862.08 1525.41 2862.08 1532.29 2841.46 1532.29ZM2868.96 1525.41 2889.58 1525.41 2889.58 1532.29 2868.96 1532.29ZM2896.46 1525.41 2917.08 1525.41 2917.08 1532.29 2896.46 1532.29ZM2923.96 1525.41 2944.58 1525.41 2944.58 1532.29 2923.96 1532.29ZM2951.46 1525.41 2972.08 1525.41 2972.08 1532.29 2951.46 1532.29ZM2978.96 1525.41 2999.58 1525.41 2999.58 1532.29 2978.96 1532.29ZM3006.46 1525.41 3027.08 1525.41 3027.08 1532.29 3006.46 1532.29ZM3033.96 1525.41 3054.58 1525.41 3054.58 1532.29 3033.96 1532.29ZM3061.46 1525.41 3082.08 1525.41 3082.08 1532.29 3061.46 1532.29ZM3088.96 1525.41 3109.58 1525.41 3109.58 1532.29 3088.96 1532.29ZM3116.46 1525.41 3137.08 1525.41 3137.08 1532.29 3116.46 1532.29ZM3143.96 1525.41 3164.58 1525.41 3164.58 1532.29 3143.96 1532.29ZM3171.46 1525.41 3192.08 1525.41 3192.08 1532.29 3171.46 1532.29ZM3198.96 1525.41 3219.58 1525.41 3219.58 1532.29 3198.96 1532.29ZM3226.46 1525.41 3247.08 1525.41 3247.08 1532.29 3226.46 1532.29ZM3253.96 1525.41 3274.58 1525.41 3274.58 1532.29 3253.96 1532.29ZM3281.46 1525.41 3302.08 1525.41 3302.08 1532.29 3281.46 1532.29ZM3308.96 1525.41 3329.58 1525.41 3329.58 1532.29 3308.96 1532.29ZM3336.46 1525.41 3357.08 1525.41 3357.08 1532.29 3336.46 1532.29ZM3363.96 1525.41 3384.58 1525.41 3384.58 1532.29 3363.96 1532.29ZM3391.46 1525.41 3412.08 1525.41 3412.08 1532.29 3391.46 1532.29ZM3418.96 1525.41 3439.58 1525.41 3439.58 1532.29 3418.96 1532.29ZM3446.46 1525.41 3467.08 1525.41 3467.08 1532.29 3446.46 1532.29ZM3473.96 1525.41 3494.58 1525.41 3494.58 1532.29 3473.96 1532.29ZM3501.46 1525.41 3522.08 1525.41 3522.08 1532.29 3501.46 1532.29ZM3528.96 1525.41 3549.58 1525.41 3549.58 1532.29 3528.96 1532.29ZM3556.46 1525.41 3577.08 1525.41 3577.08 1532.29 3556.46 1532.29ZM3583.96 1525.41 3604.58 1525.41 3604.58 1532.29 3583.96 1532.29ZM3611.46 1525.41 3632.08 1525.41 3632.08 1532.29 3611.46 1532.29ZM3638.96 1525.41 3659.58 1525.41 3659.58 1532.29 3638.96 1532.29ZM3666.46 1525.41 3687.08 1525.41 3687.08 1532.29 3666.46 1532.29ZM3693.96 1525.41 3714.58 1525.41 3714.58 1532.29 3693.96 1532.29ZM3721.46 1525.41 3742.08 1525.41 3742.08 1532.29 3721.46 1532.29ZM3748.96 1525.41 3769.58 1525.41 3769.58 1532.29 3748.96 1532.29ZM3776.46 1525.41 3797.08 1525.41 3797.08 1532.29 3776.46 1532.29ZM3803.96 1525.41 3824.58 1525.41 3824.58 1532.29 3803.96 1532.29ZM3831.46 1525.41 3852.08 1525.41 3852.08 1532.29 3831.46 1532.29ZM3858.96 1525.41 3859.62 1525.41 3856.18 1528.85 3856.18 1508.89 3863.06 1508.89 3863.06 1532.29 3858.96 1532.29ZM3856.18 1502.01 3856.18 1481.39 3863.06 1481.39 3863.06 1502.01ZM3856.18 1474.51 3856.18 1453.89 3863.06 1453.89 3863.06 1474.51ZM3856.18 1447.01 3856.18 1426.39 3863.06 1426.39 3863.06 1447.01ZM3856.18 1419.51 3856.18 1398.89 3863.06 1398.89 3863.06 1419.51ZM3856.18 1392.01 3856.18 1371.39 3863.06 1371.39 3863.06 1392.01ZM3856.18 1364.51 3856.18 1343.89 3863.06 1343.89 3863.06 1364.51ZM3856.18 1337.01 3856.18 1316.39 3863.06 1316.39 3863.06 1337.01ZM3856.18 1309.51 3856.18 1294.42 3863.06 1294.42 3863.06 1309.51ZM3845.87 1299 3859.62 1271.5 3873.37 1299Z"/><path d="M3502.5 1169.83C3502.5 1158.6 3511.6 1149.5 3522.83 1149.5L4196.17 1149.5C4207.4 1149.5 4216.5 1158.6 4216.5 1169.83L4216.5 1251.17C4216.5 1262.4 4207.4 1271.5 4196.17 1271.5L3522.83 1271.5C3511.6 1271.5 3502.5 1262.4 3502.5 1251.17Z" stroke="#172C51" stroke-width="4.58333" stroke-miterlimit="8" fill="#FFFFFF" fill-rule="evenodd"/><text font-family="Cambria,Cambria_MSFontService,sans-serif" font-weight="400" font-size="73" transform="matrix(1 0 0 1 3600.9 1237)">Web Application</text><path d="M1.66594-3.00683 200.477 107.145 197.145 113.158-1.66594 3.00683ZM201.466 95.9028 218.857 121.258 188.138 119.957Z" transform="matrix(1 0 0 -1 1615.5 1335.76)"/><path d="M1617.11 1333.46 1815.71 1438.62 1812.5 1444.69 1613.89 1339.54ZM1816.49 1427.36 1834.36 1452.38 1803.62 1451.66Z"/><path d="M2.93375-1.79151 209.847 337.045 203.979 340.628-2.93375 1.79151ZM216.26 327.759 218.857 358.395 192.79 342.091Z" transform="matrix(1 0 0 -1 1615.5 1335.9)"/><path d="M0.585861-3.38721 657.335 110.206 656.163 116.98-0.585861 3.38721ZM654.577 99.2633 679.331 117.499 649.89 126.361Z" transform="matrix(1 0 0 -1 1155.5 1095)"/><path d="M0.0340355-3.43733 167.338-1.78074 167.27 5.09392-0.0340355 3.43733ZM162.857-12.1381 190.219 1.8835 162.584 15.3605Z" transform="matrix(1 0 0 -1 3311.5 1212.38)"/><path d="M0.0359527-3.43731 195.977-1.38786 195.905 5.48677-0.0359527 3.43731ZM191.502-11.7477 218.857 2.28914 191.214 15.7508Z" transform="matrix(1 0 0 -1 2233.5 1214.79)"/><text font-family="Cambria,Cambria_MSFontService,sans-serif" font-weight="400" font-size="55" transform="matrix(1 0 0 1 353.688 1656)">Input</text><text font-family="Cambria,Cambria_MSFontService,sans-serif" font-weight="400" font-size="55" transform="matrix(1 0 0 1 2786.7 1656)">Output</text><text font-family="Cambria,Cambria_MSFontService,sans-serif" font-weight="400" font-size="55" transform="matrix(1 0 0 1 3715.45 1656)">Deployment</text></g></svg>