<svg width="3130" height="1544" xmlns="http://www.w3.org/2000/svg" xmlns:xlink="http://www.w3.org/1999/xlink" xml:space="preserve" overflow="hidden"><g transform="translate(-497 -634)"><path d="M904.5 769.203C904.5 695.913 963.913 636.5 1037.2 636.5L3086.8 636.5C3160.09 636.5 3219.5 695.913 3219.5 769.203L3219.5 1706.8C3219.5 1780.09 3160.09 1839.5 3086.8 1839.5L1037.2 1839.5C963.913 1839.5 904.5 1780.09 904.5 1706.8Z" stroke="#172C51" stroke-width="4.58333" stroke-miterlimit="8" fill="#C5E0B4" fill-rule="evenodd" fill-opacity="0.8"/><path d="M961.5 2052.5C961.5 1984.57 1016.79 1929.5 1085 1929.5 1153.21 1929.5 1208.5 1984.57 1208.5 2052.5 1208.5 2120.43 1153.21 2175.5 1085 2175.5 1016.79 2175.5 961.5 2120.43 961.5 2052.5Z" stroke="#172C51" stroke-width="4.58333" stroke-miterlimit="8" fill="#B4C7E7" fill-rule="evenodd"/><path d="M1044.16 2024.52 1060.53 2024.52 1060.08 2026.5C1058.92 2026.69 1058 2027.09 1057.31 2027.7 1056.62 2028.3 1056.27 2029.19 1056.27 2030.35 1056.27 2032.08 1056.72 2034.26 1057.61 2036.88L1060.97 2046.68 1068.47 2037.2C1069.63 2035.74 1070.54 2034.55 1071.19 2033.61 1071.84 2032.68 1072.3 2031.86 1072.59 2031.14 1072.87 2030.43 1073.01 2029.8 1073.01 2029.26 1073.01 2028.53 1072.79 2027.91 1072.36 2027.39 1071.93 2026.88 1071.19 2026.58 1070.13 2026.5L1070.58 2024.52 1085.7 2024.52 1085.25 2026.5C1084.44 2026.74 1083.68 2027.14 1082.96 2027.68 1082.24 2028.22 1081.39 2029.03 1080.41 2030.11 1079.42 2031.19 1077.59 2033.32 1074.92 2036.51L1062.84 2050.94 1068.76 2067.39C1069.65 2069.88 1070.38 2071.78 1070.94 2073.09 1071.51 2074.4 1072.01 2075.36 1072.44 2075.99 1072.79 2076.44 1073.16 2076.8 1073.54 2077.06 1073.92 2077.32 1074.55 2077.58 1075.44 2077.85L1075.04 2079.84 1058.66 2079.84 1059.07 2077.85C1060.31 2077.66 1061.26 2077.23 1061.93 2076.57 1062.59 2075.91 1062.92 2075.05 1062.92 2074 1062.92 2072.41 1062.6 2070.64 1061.95 2068.69L1057.73 2056.33 1048.49 2067.88C1047.11 2069.61 1046.11 2071.02 1045.49 2072.11 1044.87 2073.21 1044.56 2074.15 1044.56 2074.93 1044.56 2075.99 1044.81 2076.71 1045.31 2077.1 1045.81 2077.49 1046.52 2077.74 1047.44 2077.85L1046.99 2079.84 1031.92 2079.84 1032.32 2077.85C1033.16 2077.58 1033.92 2077.19 1034.61 2076.67 1035.3 2076.16 1036.19 2075.29 1037.29 2074.06 1038.38 2072.83 1040.29 2070.6 1043.02 2067.35L1055.87 2052.07 1049.87 2035.42C1048.87 2032.63 1048.09 2030.71 1047.52 2029.64 1046.95 2028.58 1046.39 2027.83 1045.84 2027.39 1045.28 2026.96 1044.57 2026.66 1043.71 2026.5Z" fill-rule="evenodd"/><text fill="#000000" fill-opacity="0" font-family="Arial,Arial_MSFontService,sans-serif" font-size="55.3198" x="1031.92" y="2072.92">ğ‘‹</text><path d="M1095.24 2059.33 1099.88 2059.33 1098.18 2066.89 1108.31 2066.89 1107.63 2070.2 1097.53 2070.2 1094.49 2082.68C1094.29 2083.51 1094.13 2084.26 1094 2084.93 1093.87 2085.59 1093.77 2086.19 1093.69 2086.73 1093.61 2087.27 1093.55 2087.75 1093.52 2088.19 1093.49 2088.63 1093.48 2089.03 1093.48 2089.41 1093.48 2090.6 1093.73 2091.54 1094.22 2092.21 1094.72 2092.89 1095.53 2093.22 1096.67 2093.22 1097.62 2093.22 1098.63 2092.87 1099.7 2092.17 1100.78 2091.46 1102 2090.35 1103.37 2088.85L1105.42 2090.93C1104.41 2092.06 1103.45 2093.03 1102.53 2093.82 1101.62 2094.61 1100.73 2095.26 1099.85 2095.77 1098.98 2096.28 1098.11 2096.64 1097.26 2096.87 1096.41 2097.1 1095.53 2097.22 1094.64 2097.22 1092.28 2097.22 1090.51 2096.66 1089.35 2095.55 1088.19 2094.44 1087.61 2092.8 1087.61 2090.63 1087.61 2089.9 1087.67 2089.09 1087.77 2088.21 1087.88 2087.32 1088.04 2086.46 1088.24 2085.63L1091.78 2070.2 1086.66 2070.2 1087.25 2067.91C1088.44 2067.91 1089.37 2067.79 1090.04 2067.56 1090.7 2067.34 1091.26 2067.02 1091.72 2066.63 1092.02 2066.35 1092.31 2066.01 1092.58 2065.6 1092.86 2065.19 1093.14 2064.7 1093.42 2064.12 1093.7 2063.55 1093.98 2062.87 1094.27 2062.08 1094.56 2061.3 1094.88 2060.38 1095.24 2059.33Z" fill-rule="evenodd"/><text fill="#000000" fill-opacity="0" font-family="Arial,Arial_MSFontService,sans-serif" font-size="37.8867" x="1086.66" y="2092.48">ğ‘¡</text><path d="M499.5 1690C499.5 1621.79 554.569 1566.5 622.5 1566.5 690.431 1566.5 745.5 1621.79 745.5 1690 745.5 1758.21 690.431 1813.5 622.5 1813.5 554.569 1813.5 499.5 1758.21 499.5 1690Z" stroke="#172C51" stroke-width="4.58333" stroke-miterlimit="8" fill="#B4C7E7" fill-rule="evenodd"/><path d="M541.501 1661.64 557.711 1661.64 557.266 1663.62C556.239 1663.84 555.503 1664.08 555.057 1664.35 554.611 1664.62 554.213 1665.03 553.861 1665.57 553.51 1666.11 553.145 1666.95 552.767 1668.1 552.389 1669.25 551.916 1671.12 551.349 1673.71L548.593 1686.11 570.356 1686.11 573.112 1673.67C573.355 1672.57 573.564 1671.38 573.74 1670.13 573.916 1668.87 574.003 1667.88 574.003 1667.15 574.003 1665.88 573.686 1664.99 573.051 1664.49 572.416 1663.99 571.41 1663.7 570.032 1663.62L570.478 1661.64 586.689 1661.64 586.243 1663.62C585.216 1663.84 584.48 1664.08 584.034 1664.35 583.588 1664.62 583.19 1665.03 582.838 1665.57 582.487 1666.11 582.122 1666.95 581.744 1668.1 581.366 1669.25 580.893 1671.12 580.326 1673.71L573.396 1705.16C573.044 1706.76 572.815 1708.02 572.707 1708.95 572.599 1709.88 572.544 1710.73 572.544 1711.48 572.544 1712.7 572.848 1713.56 573.456 1714.06 574.064 1714.56 575.084 1714.86 576.516 1714.97L576.07 1716.96 559.859 1716.96 560.305 1714.97C561.332 1714.81 562.102 1714.54 562.615 1714.18 563.129 1713.82 563.561 1713.31 563.912 1712.66 564.263 1712.01 564.588 1711.22 564.885 1710.29 565.182 1709.36 565.628 1707.55 566.222 1704.88L569.545 1689.84 547.782 1689.84 544.419 1705.16C544.121 1706.51 543.905 1707.63 543.77 1708.51 543.635 1709.38 543.567 1710.38 543.567 1711.48 543.567 1712.65 543.838 1713.48 544.378 1714 544.918 1714.51 545.972 1714.84 547.539 1714.97L547.093 1716.96 530.882 1716.96 531.328 1714.97C532.355 1714.81 533.125 1714.54 533.638 1714.18 534.152 1713.82 534.584 1713.31 534.935 1712.66 535.286 1712.01 535.611 1711.22 535.908 1710.29 536.205 1709.36 536.651 1707.55 537.245 1704.88L544.135 1673.67C544.378 1672.57 544.587 1671.38 544.763 1670.13 544.939 1668.87 545.026 1667.88 545.026 1667.15 545.026 1665.88 544.709 1664.99 544.074 1664.49 543.439 1663.99 542.433 1663.7 541.055 1663.62Z" fill-rule="evenodd"/><text fill="#000000" fill-opacity="0" font-family="Arial,Arial_MSFontService,sans-serif" font-size="55.3198" x="530.882" y="1710.04">ğ»</text><path d="M596.701 1696.45 601.347 1696.45 599.65 1704.01 609.776 1704.01 609.091 1707.32 598.994 1707.32 595.956 1719.8C595.758 1720.63 595.594 1721.38 595.465 1722.05 595.336 1722.71 595.231 1723.32 595.152 1723.85 595.073 1724.39 595.018 1724.87 594.988 1725.31 594.958 1725.75 594.943 1726.15 594.943 1726.53 594.943 1727.72 595.192 1728.66 595.688 1729.33 596.185 1730.01 596.999 1730.34 598.13 1730.34 599.084 1730.34 600.096 1729.99 601.169 1729.29 602.241 1728.58 603.462 1727.48 604.832 1725.97L606.887 1728.05C605.875 1729.18 604.912 1730.15 603.998 1730.94 603.085 1731.73 602.191 1732.39 601.318 1732.89 600.444 1733.4 599.58 1733.77 598.726 1733.99 597.872 1734.22 596.999 1734.34 596.105 1734.34 593.742 1734.34 591.98 1733.78 590.818 1732.67 589.657 1731.56 589.076 1729.92 589.076 1727.75 589.076 1727.02 589.13 1726.21 589.24 1725.33 589.349 1724.44 589.503 1723.58 589.701 1722.75L593.246 1707.32 588.123 1707.32 588.718 1705.03C589.91 1705.03 590.838 1704.91 591.503 1704.68 592.169 1704.46 592.729 1704.14 593.186 1703.75 593.484 1703.47 593.772 1703.13 594.05 1702.72 594.328 1702.31 594.606 1701.82 594.884 1701.24 595.162 1700.67 595.445 1699.99 595.733 1699.2 596.021 1698.42 596.343 1697.5 596.701 1696.45Z" fill-rule="evenodd"/><text fill="#000000" fill-opacity="0" font-family="Arial,Arial_MSFontService,sans-serif" font-size="37.8867" x="588.123" y="1729.6">ğ‘¡</text><path d="M616.885 1714.08 651.198 1714.08 651.198 1718.64 616.885 1718.64Z" fill-rule="evenodd"/><text fill="#000000" fill-opacity="0" font-family="Arial,Arial_MSFontService,sans-serif" font-size="4.55713" x="616.885" y="1718.07">âˆ’</text><path d="M675.498 1695.44 677.315 1695.44C677.275 1696.53 677.246 1697.51 677.226 1698.37 677.206 1699.23 677.191 1700.07 677.181 1700.89 677.171 1701.7 677.166 1702.51 677.166 1703.3L677.166 1725.94C677.166 1726.55 677.186 1727.08 677.226 1727.53 677.265 1727.98 677.33 1728.35 677.419 1728.66 677.509 1728.97 677.628 1729.23 677.777 1729.45 677.926 1729.67 678.099 1729.86 678.298 1730.02 678.536 1730.26 678.854 1730.44 679.251 1730.57 679.648 1730.7 680.155 1730.81 680.77 1730.9 681.386 1730.99 682.125 1731.05 682.989 1731.1 683.853 1731.15 684.89 1731.19 686.102 1731.21L686.102 1733.8 662.482 1733.8 662.482 1731.21C663.654 1731.17 664.646 1731.12 665.461 1731.07 666.275 1731.02 666.97 1730.96 667.546 1730.87 668.121 1730.78 668.583 1730.68 668.931 1730.57 669.278 1730.46 669.581 1730.32 669.839 1730.17 670.117 1729.99 670.355 1729.79 670.554 1729.59 670.752 1729.38 670.911 1729.11 671.03 1728.8 671.15 1728.48 671.244 1728.09 671.313 1727.63 671.383 1727.18 671.418 1726.61 671.418 1725.94L671.418 1704.58C671.418 1703.81 671.269 1703.26 670.971 1702.94 670.673 1702.62 670.246 1702.47 669.69 1702.47 669.075 1702.47 668.161 1702.78 666.95 1703.42 665.739 1704.05 664.17 1705 662.244 1706.25 661.986 1705.79 661.747 1705.34 661.529 1704.88 661.31 1704.42 661.082 1703.96 660.844 1703.48 663.306 1702.13 665.744 1700.78 668.156 1699.44 670.569 1698.1 673.016 1696.77 675.498 1695.44Z" fill-rule="evenodd"/><text fill="#000000" fill-opacity="0" font-family="Arial,Arial_MSFontService,sans-serif" font-size="38.3633" x="660.844" y="1729">1</text><path d="M499.5 812.5C499.5 744.569 554.569 689.5 622.5 689.5 690.431 689.5 745.5 744.569 745.5 812.5 745.5 880.431 690.431 935.5 622.5 935.5 554.569 935.5 499.5 880.431 499.5 812.5Z" stroke="#172C51" stroke-width="4.58333" stroke-miterlimit="8" fill="#B4C7E7" fill-rule="evenodd"/><path d="M568.504 783.379C570.963 783.379 573.239 783.528 575.333 783.825 577.427 784.122 579.757 784.663 582.324 785.446L579.892 796.429 576.001 796.429C575.785 793.106 575.063 790.708 573.833 789.235 572.604 787.763 570.625 787.027 567.896 787.027 564.167 787.027 560.702 788.891 557.501 792.619 554.299 796.348 551.766 801.272 549.902 807.392 548.038 813.511 547.105 819.192 547.105 824.433 547.105 828.54 547.835 831.566 549.294 833.511 550.753 835.457 552.995 836.429 556.021 836.429 558.048 836.429 559.818 836.125 561.331 835.518 562.844 834.91 564.262 833.883 565.586 832.438 566.91 830.992 568.22 828.972 569.517 826.379L573.408 826.379 570.936 837.888C565.883 839.293 560.588 839.996 555.049 839.996 549.969 839.996 546.106 838.537 543.458 835.619 540.81 832.701 539.486 828.432 539.486 822.812 539.486 818.841 540.196 814.261 541.614 809.073 543.032 803.886 545.039 799.333 547.632 795.416 550.226 791.498 553.293 788.513 556.832 786.459 560.371 784.406 564.262 783.379 568.504 783.379Z" fill-rule="evenodd"/><text fill="#000000" fill-opacity="0" font-family="Arial,Arial_MSFontService,sans-serif" font-size="56.6167" x="539.486" y="832.919">ğ¶</text><path d="M591.258 818.841 595.905 818.841 594.207 826.406 604.334 826.406 603.649 829.712 593.552 829.712 590.514 842.192C590.315 843.026 590.151 843.776 590.022 844.441 589.893 845.106 589.789 845.707 589.709 846.243 589.63 846.779 589.575 847.266 589.546 847.702 589.516 848.139 589.501 848.546 589.501 848.924 589.501 850.115 589.749 851.048 590.245 851.723 590.742 852.398 591.556 852.736 592.688 852.736 593.641 852.736 594.654 852.384 595.726 851.679 596.798 850.974 598.019 849.867 599.39 848.358L601.445 850.443C600.432 851.574 599.469 852.538 598.556 853.332 597.642 854.126 596.749 854.776 595.875 855.283 595.001 855.789 594.137 856.156 593.284 856.385 592.43 856.613 591.556 856.727 590.662 856.727 588.299 856.727 586.537 856.171 585.376 855.059 584.214 853.947 583.633 852.309 583.633 850.145 583.633 849.41 583.688 848.601 583.797 847.717 583.906 846.834 584.06 845.975 584.259 845.141L587.803 829.712 582.68 829.712 583.276 827.419C584.467 827.419 585.395 827.305 586.061 827.076 586.726 826.848 587.287 826.535 587.744 826.138 588.041 825.86 588.329 825.517 588.607 825.11 588.885 824.703 589.163 824.212 589.441 823.636 589.719 823.06 590.002 822.38 590.29 821.596 590.578 820.811 590.901 819.893 591.258 818.841Z" fill-rule="evenodd"/><text fill="#000000" fill-opacity="0" font-family="Arial,Arial_MSFontService,sans-serif" font-size="37.8867" x="582.68" y="851.991">ğ‘¡</text><path d="M611.443 836.473 645.755 836.473 645.755 841.031 611.443 841.031Z" fill-rule="evenodd"/><text fill="#000000" fill-opacity="0" font-family="Arial,Arial_MSFontService,sans-serif" font-size="4.55713" x="611.443" y="840.461">âˆ’</text><path d="M670.056 817.828 671.872 817.828C671.833 818.92 671.803 819.898 671.783 820.762 671.763 821.625 671.748 822.464 671.738 823.279 671.728 824.093 671.724 824.897 671.724 825.691L671.724 848.328C671.724 848.943 671.743 849.475 671.783 849.921 671.823 850.368 671.887 850.745 671.977 851.053 672.066 851.361 672.185 851.624 672.334 851.843 672.483 852.061 672.657 852.25 672.855 852.408 673.094 852.647 673.411 852.83 673.808 852.959 674.206 853.089 674.712 853.198 675.328 853.287 675.943 853.376 676.683 853.446 677.547 853.496 678.41 853.545 679.448 853.58 680.659 853.6L680.659 856.191 657.039 856.191 657.039 853.6C658.211 853.56 659.204 853.515 660.018 853.466 660.832 853.416 661.527 853.347 662.103 853.257 662.679 853.168 663.14 853.069 663.488 852.959 663.835 852.85 664.138 852.716 664.396 852.557 664.674 852.379 664.913 852.185 665.111 851.977 665.31 851.768 665.469 851.505 665.588 851.187 665.707 850.87 665.801 850.482 665.871 850.026 665.94 849.569 665.975 849.003 665.975 848.328L665.975 826.972C665.975 826.198 665.826 825.651 665.528 825.334 665.23 825.016 664.803 824.857 664.247 824.857 663.632 824.857 662.718 825.175 661.507 825.81 660.296 826.446 658.727 827.389 656.801 828.64 656.543 828.183 656.305 827.727 656.086 827.27 655.868 826.813 655.64 826.346 655.401 825.87 657.863 824.52 660.301 823.174 662.714 821.834 665.126 820.494 667.573 819.158 670.056 817.828Z" fill-rule="evenodd"/><text fill="#000000" fill-opacity="0" font-family="Arial,Arial_MSFontService,sans-serif" font-size="38.3633" x="655.401" y="851.396">1</text><path d="M3377.5 812.5C3377.5 744.569 3432.79 689.5 3501 689.5 3569.21 689.5 3624.5 744.569 3624.5 812.5 3624.5 880.431 3569.21 935.5 3501 935.5 3432.79 935.5 3377.5 880.431 3377.5 812.5Z" stroke="#172C51" stroke-width="4.58333" stroke-miterlimit="8" fill="#B4C7E7" fill-rule="evenodd"/><path d="M3485.88 783.379C3488.34 783.379 3490.62 783.528 3492.71 783.825 3494.81 784.122 3497.14 784.663 3499.7 785.446L3497.27 796.429 3493.38 796.429C3493.17 793.106 3492.44 790.708 3491.21 789.235 3489.98 787.763 3488.01 787.027 3485.28 787.027 3481.55 787.027 3478.08 788.891 3474.88 792.619 3471.68 796.348 3469.15 801.272 3467.28 807.392 3465.42 813.511 3464.49 819.192 3464.49 824.433 3464.49 828.54 3465.22 831.566 3466.67 833.511 3468.13 835.457 3470.38 836.429 3473.4 836.429 3475.43 836.429 3477.2 836.125 3478.71 835.518 3480.22 834.91 3481.64 833.883 3482.97 832.438 3484.29 830.992 3485.6 828.972 3486.9 826.379L3490.79 826.379 3488.32 837.888C3483.26 839.293 3477.97 839.996 3472.43 839.996 3467.35 839.996 3463.49 838.537 3460.84 835.619 3458.19 832.701 3456.87 828.432 3456.87 822.812 3456.87 818.841 3457.58 814.261 3458.99 809.073 3460.41 803.886 3462.42 799.333 3465.01 795.416 3467.61 791.498 3470.67 788.513 3474.21 786.459 3477.75 784.406 3481.64 783.379 3485.88 783.379Z" fill-rule="evenodd"/><text fill="#000000" fill-opacity="0" font-family="Arial,Arial_MSFontService,sans-serif" font-size="56.6167" x="3456.87" y="832.919">ğ¶</text><path d="M3508.64 818.841 3513.29 818.841 3511.59 826.406 3521.71 826.406 3521.03 829.712 3510.93 829.712 3507.89 842.192C3507.7 843.026 3507.53 843.776 3507.4 844.441 3507.27 845.106 3507.17 845.707 3507.09 846.243 3507.01 846.779 3506.96 847.266 3506.93 847.702 3506.9 848.139 3506.88 848.546 3506.88 848.924 3506.88 850.115 3507.13 851.048 3507.63 851.723 3508.12 852.398 3508.94 852.736 3510.07 852.736 3511.02 852.736 3512.03 852.384 3513.11 851.679 3514.18 850.974 3515.4 849.867 3516.77 848.358L3518.83 850.443C3517.81 851.574 3516.85 852.538 3515.94 853.332 3515.02 854.126 3514.13 854.776 3513.26 855.283 3512.38 855.789 3511.52 856.156 3510.66 856.385 3509.81 856.613 3508.94 856.727 3508.04 856.727 3505.68 856.727 3503.92 856.171 3502.76 855.059 3501.59 853.947 3501.01 852.309 3501.01 850.145 3501.01 849.41 3501.07 848.601 3501.18 847.717 3501.29 846.834 3501.44 845.975 3501.64 845.141L3505.18 829.712 3500.06 829.712 3500.66 827.419C3501.85 827.419 3502.78 827.305 3503.44 827.076 3504.11 826.848 3504.67 826.535 3505.12 826.138 3505.42 825.86 3505.71 825.517 3505.99 825.11 3506.27 824.703 3506.54 824.212 3506.82 823.636 3507.1 823.06 3507.38 822.38 3507.67 821.596 3507.96 820.811 3508.28 819.893 3508.64 818.841Z" fill-rule="evenodd"/><text fill="#000000" fill-opacity="0" font-family="Arial,Arial_MSFontService,sans-serif" font-size="37.8867" x="3500.06" y="851.991">ğ‘¡</text><path d="M3377.5 1690C3377.5 1621.79 3432.57 1566.5 3500.5 1566.5 3568.43 1566.5 3623.5 1621.79 3623.5 1690 3623.5 1758.21 3568.43 1813.5 3500.5 1813.5 3432.57 1813.5 3377.5 1758.21 3377.5 1690Z" stroke="#172C51" stroke-width="4.58333" stroke-miterlimit="8" fill="#B4C7E7" fill-rule="evenodd"/><path d="M3458.68 1661.64 3474.89 1661.64 3474.45 1663.62C3473.42 1663.84 3472.68 1664.08 3472.24 1664.35 3471.79 1664.62 3471.39 1665.03 3471.04 1665.57 3470.69 1666.11 3470.33 1666.95 3469.95 1668.1 3469.57 1669.25 3469.1 1671.12 3468.53 1673.71L3465.77 1686.11 3487.54 1686.11 3490.29 1673.67C3490.54 1672.57 3490.75 1671.38 3490.92 1670.13 3491.1 1668.87 3491.18 1667.88 3491.18 1667.15 3491.18 1665.88 3490.87 1664.99 3490.23 1664.49 3489.6 1663.99 3488.59 1663.7 3487.21 1663.62L3487.66 1661.64 3503.87 1661.64 3503.42 1663.62C3502.4 1663.84 3501.66 1664.08 3501.22 1664.35 3500.77 1664.62 3500.37 1665.03 3500.02 1665.57 3499.67 1666.11 3499.3 1666.95 3498.93 1668.1 3498.55 1669.25 3498.07 1671.12 3497.51 1673.71L3490.58 1705.16C3490.23 1706.76 3490 1708.02 3489.89 1708.95 3489.78 1709.88 3489.73 1710.73 3489.73 1711.48 3489.73 1712.7 3490.03 1713.56 3490.64 1714.06 3491.25 1714.56 3492.27 1714.86 3493.7 1714.97L3493.25 1716.96 3477.04 1716.96 3477.49 1714.97C3478.51 1714.81 3479.28 1714.54 3479.8 1714.18 3480.31 1713.82 3480.74 1713.31 3481.09 1712.66 3481.44 1712.01 3481.77 1711.22 3482.07 1710.29 3482.36 1709.36 3482.81 1707.55 3483.4 1704.88L3486.73 1689.84 3464.96 1689.84 3461.6 1705.16C3461.3 1706.51 3461.09 1707.63 3460.95 1708.51 3460.82 1709.38 3460.75 1710.38 3460.75 1711.48 3460.75 1712.65 3461.02 1713.48 3461.56 1714 3462.1 1714.51 3463.15 1714.84 3464.72 1714.97L3464.27 1716.96 3448.06 1716.96 3448.51 1714.97C3449.54 1714.81 3450.31 1714.54 3450.82 1714.18 3451.33 1713.82 3451.77 1713.31 3452.12 1712.66 3452.47 1712.01 3452.79 1711.22 3453.09 1710.29 3453.39 1709.36 3453.83 1707.55 3454.43 1704.88L3461.32 1673.67C3461.56 1672.57 3461.77 1671.38 3461.94 1670.13 3462.12 1668.87 3462.21 1667.88 3462.21 1667.15 3462.21 1665.88 3461.89 1664.99 3461.26 1664.49 3460.62 1663.99 3459.61 1663.7 3458.24 1663.62Z" fill-rule="evenodd"/><text fill="#000000" fill-opacity="0" font-family="Arial,Arial_MSFontService,sans-serif" font-size="55.3198" x="3448.06" y="1710.04">ğ»</text><path d="M3513.88 1696.45 3518.53 1696.45 3516.83 1704.01 3526.96 1704.01 3526.27 1707.32 3516.18 1707.32 3513.14 1719.8C3512.94 1720.63 3512.78 1721.38 3512.65 1722.05 3512.52 1722.71 3512.41 1723.32 3512.33 1723.85 3512.25 1724.39 3512.2 1724.87 3512.17 1725.31 3512.14 1725.75 3512.12 1726.15 3512.12 1726.53 3512.12 1727.72 3512.37 1728.66 3512.87 1729.33 3513.37 1730.01 3514.18 1730.34 3515.31 1730.34 3516.27 1730.34 3517.28 1729.99 3518.35 1729.29 3519.42 1728.58 3520.64 1727.48 3522.01 1725.97L3524.07 1728.05C3523.06 1729.18 3522.09 1730.15 3521.18 1730.94 3520.27 1731.73 3519.37 1732.39 3518.5 1732.89 3517.63 1733.4 3516.76 1733.77 3515.91 1733.99 3515.05 1734.22 3514.18 1734.34 3513.29 1734.34 3510.92 1734.34 3509.16 1733.78 3508 1732.67 3506.84 1731.56 3506.26 1729.92 3506.26 1727.75 3506.26 1727.02 3506.31 1726.21 3506.42 1725.33 3506.53 1724.44 3506.68 1723.58 3506.88 1722.75L3510.43 1707.32 3505.3 1707.32 3505.9 1705.03C3507.09 1705.03 3508.02 1704.91 3508.68 1704.68 3509.35 1704.46 3509.91 1704.14 3510.37 1703.75 3510.67 1703.47 3510.95 1703.13 3511.23 1702.72 3511.51 1702.31 3511.79 1701.82 3512.07 1701.24 3512.34 1700.67 3512.63 1699.99 3512.91 1699.2 3513.2 1698.42 3513.52 1697.5 3513.88 1696.45Z" fill-rule="evenodd"/><text fill="#000000" fill-opacity="0" font-family="Arial,Arial_MSFontService,sans-serif" font-size="37.8867" x="3505.3" y="1729.6">ğ‘¡</text><rect x="1208.5" y="1387.5" width="275" height="179" stroke="#172C51" stroke-width="4.58333" stroke-miterlimit="8" fill="#FFD966" fill-opacity="0.8"/><path d="M1310.48 1448.81 1347.04 1448.81 1344.24 1461.25 1340.35 1461.25C1340.24 1459.17 1340.08 1457.53 1339.85 1456.33 1339.62 1455.13 1339.29 1454.26 1338.87 1453.73 1338.45 1453.21 1337.95 1452.85 1337.35 1452.66 1336.76 1452.47 1335.87 1452.38 1334.68 1452.38L1322.2 1452.38 1317.37 1474.42 1324.95 1474.42C1326.14 1474.42 1327.13 1474.26 1327.91 1473.94 1328.69 1473.61 1329.42 1473.03 1330.1 1472.17 1330.78 1471.32 1331.61 1469.87 1332.61 1467.82L1336.3 1467.82 1332.37 1484.92 1328.8 1484.92C1328.8 1482.19 1328.71 1480.48 1328.54 1479.79 1328.36 1479.1 1328.03 1478.63 1327.53 1478.37 1327.03 1478.12 1326.03 1477.99 1324.55 1477.99L1316.6 1477.99 1313.4 1492.34C1312.83 1494.88 1312.55 1496.98 1312.55 1498.66 1312.55 1499.5 1312.69 1500.15 1312.96 1500.62 1313.23 1501.1 1313.63 1501.44 1314.17 1501.66 1314.71 1501.87 1315.64 1502.04 1316.97 1502.14L1316.52 1504.13 1299.87 1504.13 1300.31 1502.14C1301.34 1501.98 1302.11 1501.72 1302.62 1501.35 1303.14 1500.99 1303.57 1500.48 1303.92 1499.83 1304.27 1499.19 1304.59 1498.4 1304.89 1497.46 1305.19 1496.53 1305.63 1494.73 1306.23 1492.05L1313.12 1460.85C1313.71 1458.14 1314.01 1456.01 1314.01 1454.44 1314.01 1453.12 1313.7 1452.2 1313.08 1451.69 1312.46 1451.17 1311.44 1450.88 1310.04 1450.8Z" fill-rule="evenodd"/><text fill="#000000" fill-opacity="0" font-family="Arial,Arial_MSFontService,sans-serif" font-size="55.3198" x="1299.87" y="1497.21">ğ¹</text><path d="M1351.75 1483.62 1356.4 1483.62 1354.7 1491.19 1364.83 1491.19 1364.14 1494.49 1354.04 1494.49 1351.01 1506.97C1350.81 1507.81 1350.64 1508.56 1350.52 1509.22 1350.39 1509.89 1350.28 1510.49 1350.2 1511.03 1350.12 1511.56 1350.07 1512.05 1350.04 1512.48 1350.01 1512.92 1349.99 1513.33 1349.99 1513.71 1349.99 1514.9 1350.24 1515.83 1350.74 1516.51 1351.24 1517.18 1352.05 1517.52 1353.18 1517.52 1354.13 1517.52 1355.15 1517.17 1356.22 1516.46 1357.29 1515.76 1358.51 1514.65 1359.88 1513.14L1361.94 1515.23C1360.93 1516.36 1359.96 1517.32 1359.05 1518.11 1358.14 1518.91 1357.24 1519.56 1356.37 1520.07 1355.49 1520.57 1354.63 1520.94 1353.78 1521.17 1352.92 1521.4 1352.05 1521.51 1351.16 1521.51 1348.79 1521.51 1347.03 1520.95 1345.87 1519.84 1344.71 1518.73 1344.13 1517.09 1344.13 1514.93 1344.13 1514.19 1344.18 1513.38 1344.29 1512.5 1344.4 1511.62 1344.55 1510.76 1344.75 1509.92L1348.3 1494.49 1343.17 1494.49 1343.77 1492.2C1344.96 1492.2 1345.89 1492.09 1346.55 1491.86 1347.22 1491.63 1347.78 1491.32 1348.24 1490.92 1348.53 1490.64 1348.82 1490.3 1349.1 1489.89 1349.38 1489.49 1349.66 1488.99 1349.93 1488.42 1350.21 1487.84 1350.5 1487.16 1350.78 1486.38 1351.07 1485.59 1351.39 1484.68 1351.75 1483.62Z" fill-rule="evenodd"/><text fill="#000000" fill-opacity="0" font-family="Arial,Arial_MSFontService,sans-serif" font-size="37.8867" x="1343.17" y="1516.77">ğ‘¡</text><rect x="1740.5" y="1387.5" width="275" height="179" stroke="#172C51" stroke-width="4.58333" stroke-miterlimit="8" fill="#FFD966" fill-opacity="0.8"/><path d="M1849.91 1448.81 1866.12 1448.81 1865.67 1450.8C1864.64 1451.01 1863.91 1451.26 1863.46 1451.53 1863.02 1451.8 1862.62 1452.2 1862.27 1452.74 1861.92 1453.28 1861.55 1454.13 1861.17 1455.27 1860.79 1456.42 1860.32 1458.29 1859.75 1460.89L1852.82 1492.34C1852.47 1493.93 1852.24 1495.19 1852.13 1496.13 1852.03 1497.06 1851.97 1497.9 1851.97 1498.66 1851.97 1499.87 1852.28 1500.73 1852.88 1501.23 1853.49 1501.73 1854.51 1502.04 1855.94 1502.14L1855.5 1504.13 1839.29 1504.13 1839.73 1502.14C1840.76 1501.98 1841.53 1501.72 1842.04 1501.35 1842.56 1500.99 1842.99 1500.48 1843.34 1499.83 1843.69 1499.19 1844.02 1498.4 1844.31 1497.46 1844.61 1496.53 1845.06 1494.73 1845.65 1492.05L1852.54 1460.85C1853.13 1458.14 1853.43 1455.97 1853.43 1454.32 1853.43 1453.05 1853.11 1452.17 1852.48 1451.67 1851.84 1451.17 1850.84 1450.88 1849.46 1450.8Z" fill-rule="evenodd"/><text fill="#000000" fill-opacity="0" font-family="Arial,Arial_MSFontService,sans-serif" font-size="55.3198" x="1839.29" y="1497.21">ğ¼</text><path d="M1876.46 1483.62 1881.11 1483.62 1879.41 1491.19 1889.54 1491.19 1888.85 1494.49 1878.75 1494.49 1875.72 1506.97C1875.52 1507.81 1875.35 1508.56 1875.22 1509.22 1875.09 1509.89 1874.99 1510.49 1874.91 1511.03 1874.83 1511.56 1874.78 1512.05 1874.75 1512.48 1874.72 1512.92 1874.7 1513.33 1874.7 1513.71 1874.7 1514.9 1874.95 1515.83 1875.45 1516.51 1875.94 1517.18 1876.76 1517.52 1877.89 1517.52 1878.84 1517.52 1879.86 1517.17 1880.93 1516.46 1882 1515.76 1883.22 1514.65 1884.59 1513.14L1886.65 1515.23C1885.63 1516.36 1884.67 1517.32 1883.76 1518.11 1882.84 1518.91 1881.95 1519.56 1881.08 1520.07 1880.2 1520.57 1879.34 1520.94 1878.49 1521.17 1877.63 1521.4 1876.76 1521.51 1875.86 1521.51 1873.5 1521.51 1871.74 1520.95 1870.58 1519.84 1869.42 1518.73 1868.83 1517.09 1868.83 1514.93 1868.83 1514.19 1868.89 1513.38 1869 1512.5 1869.11 1511.62 1869.26 1510.76 1869.46 1509.92L1873 1494.49 1867.88 1494.49 1868.48 1492.2C1869.67 1492.2 1870.6 1492.09 1871.26 1491.86 1871.93 1491.63 1872.49 1491.32 1872.95 1490.92 1873.24 1490.64 1873.53 1490.3 1873.81 1489.89 1874.09 1489.49 1874.37 1488.99 1874.64 1488.42 1874.92 1487.84 1875.2 1487.16 1875.49 1486.38 1875.78 1485.59 1876.1 1484.68 1876.46 1483.62Z" fill-rule="evenodd"/><text fill="#000000" fill-opacity="0" font-family="Arial,Arial_MSFontService,sans-serif" font-size="37.8867" x="1867.88" y="1516.77">ğ‘¡</text><rect x="2708.5" y="1387.5" width="275" height="179" stroke="#172C51" stroke-width="4.58333" stroke-miterlimit="8" fill="#FFD966" fill-opacity="0.8"/><path d="M2826.74 1451.73C2823.82 1451.73 2821.1 1452.77 2818.57 1454.85 2816.05 1456.93 2813.83 1459.9 2811.93 1463.76 2810.02 1467.63 2808.54 1471.87 2807.49 1476.49 2806.43 1481.11 2805.91 1485.19 2805.91 1488.73 2805.91 1497.08 2808.95 1501.25 2815.03 1501.25 2818.73 1501.25 2822.13 1499.55 2825.22 1496.15 2828.31 1492.74 2830.85 1487.97 2832.82 1481.82 2834.79 1475.67 2835.78 1469.78 2835.78 1464.13 2835.78 1455.86 2832.76 1451.73 2826.74 1451.73ZM2827.18 1448.16C2832.4 1448.16 2836.42 1449.67 2839.24 1452.7 2842.06 1455.73 2843.48 1460.1 2843.48 1465.83 2843.48 1470.02 2842.76 1474.73 2841.33 1479.96 2839.9 1485.18 2837.82 1489.71 2835.11 1493.53 2832.39 1497.36 2829.29 1500.19 2825.81 1502.04 2822.32 1503.89 2818.67 1504.82 2814.86 1504.82 2809.43 1504.82 2805.31 1503.31 2802.5 1500.28 2799.69 1497.25 2798.29 1492.93 2798.29 1487.31 2798.29 1483.26 2798.97 1478.68 2800.34 1473.57 2801.7 1468.47 2803.67 1463.96 2806.25 1460.06 2808.83 1456.15 2811.91 1453.19 2815.49 1451.18 2819.07 1449.17 2822.97 1448.16 2827.18 1448.16Z" fill-rule="evenodd"/><text fill="#000000" fill-opacity="0" font-family="Arial,Arial_MSFontService,sans-serif" font-size="56.6572" x="2798.29" y="1497.74">ğ‘‚</text><path d="M2857.58 1483.62 2862.22 1483.62 2860.53 1491.19 2870.65 1491.19 2869.97 1494.49 2859.87 1494.49 2856.83 1506.97C2856.63 1507.81 2856.47 1508.56 2856.34 1509.22 2856.21 1509.89 2856.11 1510.49 2856.03 1511.03 2855.95 1511.56 2855.89 1512.05 2855.86 1512.48 2855.83 1512.92 2855.82 1513.33 2855.82 1513.71 2855.82 1514.9 2856.07 1515.83 2856.56 1516.51 2857.06 1517.18 2857.88 1517.52 2859.01 1517.52 2859.96 1517.52 2860.97 1517.17 2862.04 1516.46 2863.12 1515.76 2864.34 1514.65 2865.71 1513.14L2867.76 1515.23C2866.75 1516.36 2865.79 1517.32 2864.87 1518.11 2863.96 1518.91 2863.07 1519.56 2862.19 1520.07 2861.32 1520.57 2860.46 1520.94 2859.6 1521.17 2858.75 1521.4 2857.88 1521.51 2856.98 1521.51 2854.62 1521.51 2852.86 1520.95 2851.69 1519.84 2850.53 1518.73 2849.95 1517.09 2849.95 1514.93 2849.95 1514.19 2850.01 1513.38 2850.12 1512.5 2850.23 1511.62 2850.38 1510.76 2850.58 1509.92L2854.12 1494.49 2849 1494.49 2849.59 1492.2C2850.79 1492.2 2851.71 1492.09 2852.38 1491.86 2853.04 1491.63 2853.61 1491.32 2854.06 1490.92 2854.36 1490.64 2854.65 1490.3 2854.93 1489.89 2855.2 1489.49 2855.48 1488.99 2855.76 1488.42 2856.04 1487.84 2856.32 1487.16 2856.61 1486.38 2856.9 1485.59 2857.22 1484.68 2857.58 1483.62Z" fill-rule="evenodd"/><text fill="#000000" fill-opacity="0" font-family="Arial,Arial_MSFontService,sans-serif" font-size="37.8867" x="2849" y="1516.77">ğ‘¡</text><rect x="2200.5" y="1423.5" width="242" height="107" stroke="#172C51" stroke-width="4.58333" stroke-miterlimit="8" fill="#FFE699" fill-opacity="0.701961"/><text font-family="Cambria Math,Cambria Math_MSFontService,sans-serif" font-weight="400" font-size="83" transform="matrix(1 0 0 1 2241.13 1507)">tanh</text><path d="M2275.5 1151C2275.5 1125.87 2295.87 1105.5 2321 1105.5 2346.13 1105.5 2366.5 1125.87 2366.5 1151 2366.5 1176.13 2346.13 1196.5 2321 1196.5 2295.87 1196.5 2275.5 1176.13 2275.5 1151Z" stroke="#172C51" stroke-width="4.58333" stroke-miterlimit="8" fill="#F4B183" fill-rule="evenodd"/><text font-family="Cambria Math,Cambria Math_MSFontService,sans-serif" font-weight="400" font-size="83" transform="matrix(1 0 0 1 2303 1181)">*</text><path d="M1300.5 812C1300.5 786.871 1320.87 766.5 1346 766.5 1371.13 766.5 1391.5 786.871 1391.5 812 1391.5 837.129 1371.13 857.5 1346 857.5 1320.87 857.5 1300.5 837.129 1300.5 812Z" stroke="#172C51" stroke-width="4.58333" stroke-miterlimit="8" fill="#F4B183" fill-rule="evenodd"/><text font-family="Cambria Math,Cambria Math_MSFontService,sans-serif" font-weight="400" font-size="83" transform="matrix(1 0 0 1 1327.35 842)">*</text><path d="M3.4375-2.34213e-06 3.43785 506.757-3.43715 506.757-3.4375 2.34213e-06ZM13.7503 502.174 0.000360892 529.674-13.7497 502.174Z" transform="matrix(1 0 0 -1 1345.5 1387.17)"/><path d="M2.23854e-06-3.4375 531.268-3.43715 531.268 3.43785-2.23854e-06 3.4375ZM526.685-13.7497 554.185 0.000360892 526.685 13.7503Z" transform="matrix(1 0 0 -1 745.5 812.5)"/><path d="M1874.06 1387.24 1874.06 1147.06 2252.74 1147.06 2252.74 1153.94 1877.5 1153.94 1880.94 1150.5 1880.94 1387.24ZM2248.15 1136.75 2275.65 1150.5 2248.15 1164.25Z"/><path d="M3.4375-5.46088e-06 3.43782 204.257-3.43718 204.257-3.4375 5.46088e-06ZM13.7503 199.673 0.000360892 227.173-13.7497 199.673Z" transform="matrix(1 0 0 -1 2321.5 1423.67)"/><path d="M2275.5 812C2275.5 786.871 2295.87 766.5 2321 766.5 2346.13 766.5 2366.5 786.871 2366.5 812 2366.5 837.129 2346.13 857.5 2321 857.5 2295.87 857.5 2275.5 837.129 2275.5 812Z" stroke="#172C51" stroke-width="4.58333" stroke-miterlimit="8" fill="#F4B183" fill-rule="evenodd"/><text font-family="Cambria Math,Cambria Math_MSFontService,sans-serif" font-weight="400" font-size="73" transform="matrix(1 0 0 1 2293.26 839)">+</text><path d="M3.4375-5.01237e-06 3.43783 224.584-3.43717 224.584-3.4375 5.01237e-06ZM13.7503 220.001 0.000360892 247.501-13.7497 220.001Z" transform="matrix(1 0 0 -1 2321.5 1105)"/><path d="M1.40211e-06-3.4375 861.867-3.43715 861.867 3.43785-1.40211e-06 3.4375ZM857.283-13.7497 884.783 0.000360892 857.283 13.7503Z" transform="matrix(1 0 0 -1 1391.5 812.5)"/><path d="M2366.5 809.063 3354.71 809.063 3354.71 815.938 2366.5 815.938ZM3350.12 798.751 3377.62 812.501 3350.12 826.251Z"/><path d="M3.4375-5.12381e-06 3.43783 219.202-3.43717 219.202-3.4375 5.12381e-06ZM13.7503 214.618 0.000360892 242.118-13.7497 214.618Z" transform="matrix(1 0 0 -1 1084.5 1929.62)"/><rect x="2725.5" y="940.5" width="241" height="107" stroke="#172C51" stroke-width="4.58333" stroke-miterlimit="8" fill="#FFE699" fill-opacity="0.701961"/><text font-family="Cambria Math,Cambria Math_MSFontService,sans-serif" font-weight="400" font-size="83" transform="matrix(1 0 0 1 2766.02 1024)">tanh</text><path d="M2800.5 1219C2800.5 1193.87 2820.87 1173.5 2846 1173.5 2871.13 1173.5 2891.5 1193.87 2891.5 1219 2891.5 1244.13 2871.13 1264.5 2846 1264.5 2820.87 1264.5 2800.5 1244.13 2800.5 1219Z" stroke="#172C51" stroke-width="4.58333" stroke-miterlimit="8" fill="#F4B183" fill-rule="evenodd"/><text font-family="Cambria Math,Cambria Math_MSFontService,sans-serif" font-weight="400" font-size="83" transform="matrix(1 0 0 1 2827.89 1249)">*</text><path d="M3.4375-1.00735e-05 3.43779 100.235-3.43721 100.235-3.4375 1.00735e-05ZM13.7503 95.652 0.000360892 123.152-13.7497 95.652Z" transform="matrix(1 0 0 -1 2846.5 1387.65)"/><path d="M2849.94 1047.5 2849.94 1150.13 2843.06 1150.13 2843.06 1047.5ZM2860.25 1145.54 2846.5 1173.04 2832.75 1145.54Z"/><path d="M2849.94 812.5 2849.94 917.519 2843.06 917.519 2843.06 812.5ZM2860.25 912.935 2846.5 940.435 2832.75 912.935Z"/><path d="M0-3.4375 2103.6-3.4375 2103.6 100.236 2096.73 100.236 2096.73 0 2100.16 3.4375 0 3.4375ZM2113.91 95.6524 2100.16 123.152 2086.41 95.6524Z" transform="matrix(1 0 0 -1 745.5 1689.65)"/><path d="M3.4375-1.02729e-05 3.43779 97.8444-3.43721 97.8444-3.4375 1.02729e-05ZM13.7503 93.261 0.000360892 120.761-13.7497 93.2611Z" transform="matrix(1 0 0 -1 1345.5 1687.26)"/><path d="M3.4375-1.02729e-05 3.43779 97.8444-3.43721 97.8444-3.4375 1.02729e-05ZM13.7503 93.261 0.000360892 120.761-13.7497 93.2611Z" transform="matrix(1 0 0 -1 1877.5 1687.26)"/><path d="M3.4375-7.92032e-06 3.43781 133.714-3.43719 133.714-3.4375 7.92032e-06ZM13.7503 129.131 0.000360892 156.631-13.7497 129.131Z" transform="matrix(1 0 0 -1 2321.5 1687.13)"/><path d="M2891.5 1215.06 3121.22 1215.06 3121.22 1689.59 3117.78 1686.15 3354.62 1686.15 3354.62 1693.02 3114.34 1693.02 3114.34 1218.5 3117.78 1221.94 2891.5 1221.94ZM3350.03 1675.84 3377.53 1689.59 3350.03 1703.34Z"/></g></svg>